<?xml version="1.0" encoding="UTF-8"?>
<svg version="1.1" xmlns="http://www.w3.org/2000/svg" width="800" height="800">
<path d="M0 0 C1.3132576 -0.00151062 1.3132576 -0.00151062 2.65304565 -0.00305176 C18.59918259 0.00926564 34.1954326 1.00511632 50 3.25 C50.9806543 3.38390137 51.96130859 3.51780273 52.97167969 3.65576172 C114.40246158 12.2954472 174.58143299 40.18499906 221 81.25 C221.85722656 82.00796875 222.71445312 82.7659375 223.59765625 83.546875 C226.07982949 85.76548943 228.53972774 88.00714714 231 90.25 C231.94488281 91.09046875 232.88976562 91.9309375 233.86328125 92.796875 C241.39542995 99.52904059 248.30525484 106.68813026 255 114.25 C255.45197754 114.75724609 255.90395508 115.26449219 256.36962891 115.78710938 C310.00861557 176.3390432 339.18522747 256.67392556 339.25 337.25 C339.25151062 338.5632576 339.25151062 338.5632576 339.25305176 339.90304565 C339.24073436 355.84918259 338.24488368 371.4454326 336 387.25 C335.86609863 388.2306543 335.73219727 389.21130859 335.59423828 390.22167969 C327.86393375 445.18648742 304.61267058 498.27725972 271 542.25 C270.55301758 542.84119629 270.10603516 543.43239258 269.64550781 544.04150391 C263.31713591 552.39504594 256.5543217 560.17167576 249.36083984 567.78759766 C247.41773902 569.87571641 245.55893148 572.03517824 243.6875 574.1875 C234.43702387 584.49565307 223.8807548 593.71206668 213 602.25 C212.06671875 603.00152344 211.1334375 603.75304687 210.171875 604.52734375 C151.1020538 651.25308693 77.14531609 676.43959308 2 676.5 C1.12449493 676.50100708 0.24898987 676.50201416 -0.65304565 676.50305176 C-16.59918259 676.49073436 -32.1954326 675.49488368 -48 673.25 C-48.9806543 673.11609863 -49.96130859 672.98219727 -50.97167969 672.84423828 C-112.40246158 664.2045528 -172.58143299 636.31500094 -219 595.25 C-219.85722656 594.49203125 -220.71445313 593.7340625 -221.59765625 592.953125 C-224.07982949 590.73451057 -226.53972774 588.49285286 -229 586.25 C-230.41732422 584.98929688 -230.41732422 584.98929688 -231.86328125 583.703125 C-239.39542995 576.97095941 -246.30525484 569.81186974 -253 562.25 C-253.45197754 561.74275391 -253.90395508 561.23550781 -254.36962891 560.71289062 C-308.00861557 500.1609568 -337.18522747 419.82607444 -337.25 339.25 C-337.25100708 338.37449493 -337.25201416 337.49898987 -337.25305176 336.59695435 C-337.24073436 320.65081741 -336.24488368 305.0545674 -334 289.25 C-333.86609863 288.2693457 -333.73219727 287.28869141 -333.59423828 286.27832031 C-324.38144781 220.77258828 -293.50711795 159.26714254 -249.15234375 110.625 C-247.75120328 109.07891396 -246.36728206 107.51698822 -245.00390625 105.9375 C-234.84081131 94.25666499 -223.18481672 83.77663562 -211 74.25 C-210.06800781 73.49976563 -209.13601562 72.74953125 -208.17578125 71.9765625 C-149.09865761 25.22923547 -75.16427751 0.06042216 0 0 Z M0 28.25 C-1.67313323 31.53841876 -3.33739607 34.83124682 -5 38.125 C-5.47695313 39.06214844 -5.95390625 39.99929687 -6.4453125 40.96484375 C-6.89648438 41.86074219 -7.34765625 42.75664063 -7.8125 43.6796875 C-8.23144531 44.50710449 -8.65039062 45.33452148 -9.08203125 46.18701172 C-10.13551324 48.17821018 -10.13551324 48.17821018 -10 50.25 C-10.88300781 50.29898438 -11.76601563 50.34796875 -12.67578125 50.3984375 C-20.25029197 50.87031894 -27.57192807 51.68858896 -35 53.25 C-34.236875 54.178125 -33.47375 55.10625 -32.6875 56.0625 C-32.15769531 56.72121094 -31.62789063 57.37992188 -31.08203125 58.05859375 C-29.00135137 60.40326424 -29.00135137 60.40326424 -26.01171875 62.28515625 C-19.52099731 67.12692728 -19.52099731 67.12692728 -18 71.25 C-17.70741296 79.69022628 -19.92303831 88.12092731 -22 96.25 C-16.33317773 94.59717684 -11.59864911 91.91229962 -6.56640625 88.90820312 C-3.65131197 87.26585451 -1.44942935 86.25420589 1.921875 86.22265625 C6.15129117 87.63425073 9.87826858 89.68345391 13.75 91.875 C15.26156261 92.7285883 16.77701601 93.57533539 18.296875 94.4140625 C18.96041992 94.78998535 19.62396484 95.1659082 20.30761719 95.55322266 C21.14534668 95.89812744 21.14534668 95.89812744 22 96.25 C22.66 95.92 23.32 95.59 24 95.25 C23.78980225 94.61199463 23.57960449 93.97398926 23.36303711 93.31665039 C17.83995793 75.34687742 17.83995793 75.34687742 21.47900391 68.44482422 C25.88495305 62.88757179 31.27939149 58.40543901 37 54.25 C33.38995453 52.32327108 30.25911495 51.68082176 26.1875 51.125 C25.00542969 50.95742187 23.82335937 50.78984375 22.60546875 50.6171875 C19.04202276 50.25427967 15.57905598 50.18584279 12 50.25 C11.75507813 49.43273437 11.51015625 48.61546875 11.2578125 47.7734375 C9.77452388 43.61838676 7.88199051 39.79678711 5.875 35.875 C5.50246094 35.13894531 5.12992187 34.40289062 4.74609375 33.64453125 C3.8343878 31.84449642 2.91770068 30.04698598 2 28.25 C1.34 28.25 0.68 28.25 0 28.25 Z M-98 42.25 C-98.15210938 43.54035156 -98.30421875 44.83070312 -98.4609375 46.16015625 C-100.59540671 59.34531363 -100.59540671 59.34531363 -105.00341797 62.83691406 C-110.06738849 65.51018252 -115.44117009 66.9742976 -121 68.25 C-118.46542842 70.42908522 -116.25752138 72.13887044 -113.17578125 73.46875 C-109.64783455 75.04742192 -107.56743975 76.31995107 -105 79.25 C-103.04062263 85.66613532 -103.03489863 92.58624875 -103 99.25 C-101.72502282 98.33124417 -100.45519095 97.40534598 -99.1875 96.4765625 C-98.47980469 95.96174316 -97.77210938 95.44692383 -97.04296875 94.91650391 C-95.05629339 93.29592002 -93.5806258 91.63260452 -92 89.625 C-90.32421875 88.10546875 -90.32421875 88.10546875 -88 87.25 C-83.69613593 87.86483772 -79.77316922 88.94114723 -75.64453125 90.26171875 C-71.70594262 91.34389452 -71.70594262 91.34389452 -68 90.25 C-68.44472656 89.22519531 -68.88945312 88.20039063 -69.34765625 87.14453125 C-69.91995757 85.78414287 -70.49153423 84.42344946 -71.0625 83.0625 C-71.35705078 82.38896484 -71.65160156 81.71542969 -71.95507812 81.02148438 C-73.62196612 77.00134274 -74.58741289 74.3706593 -73 70.25 C-71.69987573 67.93011652 -70.38338546 65.72251823 -68.9375 63.5 C-66.3096916 60.05654626 -66.3096916 60.05654626 -65 56.25 C-65.54825439 56.32331543 -66.09650879 56.39663086 -66.66137695 56.47216797 C-82.08011719 58.26139541 -82.08011719 58.26139541 -86.99462891 54.87597656 C-89.84292614 51.97651231 -91.98497625 48.76784575 -94.1015625 45.3125 C-94.72804688 44.301875 -95.35453125 43.29125 -96 42.25 C-96.66 42.25 -97.32 42.25 -98 42.25 Z M98 42.25 C96.9722743 43.90789496 95.94588874 45.56663879 94.92700195 47.22998047 C89.55420761 55.56572027 89.55420761 55.56572027 84.52490234 56.91308594 C78.65962493 57.49208458 72.82870991 57.02944541 67 56.25 C67.74656768 57.62686662 68.49746028 59.00138835 69.25 60.375 C69.70117188 61.2 70.15234375 62.025 70.6171875 62.875 C72.05200787 65.45066297 72.05200787 65.45066297 74.375 68.375 C76.03566183 71.31309401 76.3944647 72.75155961 75.6953125 76.0390625 C74.06925552 81.20955828 72.04438659 86.23333181 70 91.25 C71.3303125 91.0953125 71.3303125 91.0953125 72.6875 90.9375 C73.65042969 90.82921875 73.65042969 90.82921875 74.6328125 90.71875 C77.13243997 90.30033329 77.13243997 90.30033329 79.8671875 89.09375 C83.53312611 87.76720009 86.08380074 87.07024003 90 87.25 C95.45861596 90.17205378 99.68798665 94.89436802 104 99.25 C104.33 99.25 104.66 99.25 105 99.25 C104.97679687 98.69650879 104.95359375 98.14301758 104.9296875 97.57275391 C104.56825901 82.06682608 104.56825901 82.06682608 108.66503906 77.32128906 C113.02466435 73.82981426 117.89505147 71.45943102 123 69.25 C119.5780314 66.17790849 116.49267969 65.69560933 112.0625 64.75 C105.78468049 62.69223398 105.78468049 62.69223398 103.86376953 59.16162109 C101.88302325 53.68824931 100.8181421 48.00145461 100 42.25 C99.34 42.25 98.68 42.25 98 42.25 Z M-184 83.25 C-184.00515625 84.3121875 -184.0103125 85.374375 -184.015625 86.46875 C-184.48598617 97.71489963 -184.48598617 97.71489963 -188.8046875 102.09375 C-191.80273073 104.04071454 -194.75995292 105.74392307 -198 107.25 C-195.61874536 109.63125464 -193.66142433 110.25186241 -190.5 111.375 C-189.5203125 111.72820312 -188.540625 112.08140625 -187.53125 112.4453125 C-185.12501194 113.35098694 -185.12501194 113.35098694 -183 113.25 C-182.80664062 114.16523438 -182.61328125 115.08046875 -182.4140625 116.0234375 C-182.02347656 117.80621094 -182.02347656 117.80621094 -181.625 119.625 C-181.24214844 121.40003906 -181.24214844 121.40003906 -180.8515625 123.2109375 C-180.24476035 126.33196967 -180.24476035 126.33196967 -178 128.25 C-176.66081194 126.62982158 -175.3288031 125.00370657 -174 123.375 C-173.2575 122.47007812 -172.515 121.56515625 -171.75 120.6328125 C-169.80268789 118.4740716 -169.80268789 118.4740716 -170 116.25 C-164.39 116.58 -158.78 116.91 -153 117.25 C-154.134375 115.5175 -155.26875 113.785 -156.4375 112 C-160.74705518 105.41813391 -160.74705518 105.41813391 -161 102.25 C-160.22265625 99.77734375 -160.22265625 99.77734375 -159.0625 97.1875 C-157.36991168 93.37419216 -157.36991168 93.37419216 -157 89.25 C-157.66386719 89.38277344 -158.32773438 89.51554687 -159.01171875 89.65234375 C-161.67447917 90.18489583 -164.33723958 90.71744792 -167 91.25 C-167.82757813 91.51683594 -168.65515625 91.78367187 -169.5078125 92.05859375 C-172 92.25 -172 92.25 -174.60546875 90.6328125 C-175.45753906 89.88773437 -176.30960938 89.14265625 -177.1875 88.375 C-180.39207703 85.50955324 -180.39207703 85.50955324 -184 83.25 Z M178.32421875 89.40234375 C176.01649146 91.23688999 174.90226053 92.02588722 172 92.25 C169.52734375 91.69140625 169.52734375 91.69140625 166.9375 90.8125 C164.03724969 89.83993486 162.0823645 89.25 159 89.25 C159.43677668 91.85686712 159.9284119 94.09412704 161.03515625 96.50390625 C162.25666423 99.24881581 162.89212552 101.22951452 163 104.25 C160.85685565 108.68409177 158.02497776 112.38439684 155 116.25 C155 116.58 155 116.91 155 117.25 C163.415 116.755 163.415 116.755 172 116.25 C172.66 117.57 173.32 118.89 174 120.25 C175.01260441 121.68758346 176.05512648 123.1045128 177.125 124.5 C177.66382813 125.20640625 178.20265625 125.9128125 178.7578125 126.640625 C179.16773438 127.17171875 179.57765625 127.7028125 180 128.25 C182.67550292 125.57449708 182.83209389 123.30120106 183.625 119.625 C183.88539063 118.43648437 184.14578125 117.24796875 184.4140625 116.0234375 C184.60742188 115.10820312 184.80078125 114.19296875 185 113.25 C185.66386719 113.05664062 186.32773437 112.86328125 187.01171875 112.6640625 C193.59789309 110.72248648 193.59789309 110.72248648 200 108.25 C196.79457867 105.52664387 196.79457867 105.52664387 193.1796875 103.43359375 C190.80449988 102.24599994 189.6045964 101.40462558 188 99.25 C186.77912133 93.93275213 186.31313224 88.68827617 186 83.25 C183.38359112 83.25 180.15708942 87.68459553 178.32421875 89.40234375 Z M25 173.25 C17.44120027 181.50348154 14.66573483 190.80061926 14.8515625 201.89453125 C15.5601752 213.13909598 20.77084245 222.6321513 29 230.25 C35.47705289 235.17559801 42.72802043 238.69271998 50.00097656 242.26293945 C69.79171337 252.00007643 69.79171337 252.00007643 74.375 259.5 C75.30247978 263.58091103 75.14137034 267.21862141 74 271.25 C69.70604704 276.70448079 65.70761377 278.36349666 59 279.25 C44.48083558 279.3289085 31.95911785 275.63344771 18.546875 270.203125 C16.14104139 269.13316877 16.14104139 269.13316877 14 269.25 C14 277.83 14 286.41 14 295.25 C20.96750976 298.78398724 20.96750976 298.78398724 28.0625 300.9375 C29.02285156 301.16824219 29.98320312 301.39898437 30.97265625 301.63671875 C48.65524204 305.21886839 69.34352321 305.4459463 85.5 296.5 C94.50993305 290.46304149 100.54166893 283.43007109 103.25 272.875 C105.39880048 261.70891181 104.07176463 251.32639167 97.8671875 241.72265625 C89.34878771 230.44201385 76.72843936 224.67027514 64.44140625 218.4140625 C63.4975708 217.9298584 62.55373535 217.4456543 61.58129883 216.94677734 C59.7290938 216.00031127 57.87101146 215.0652382 56.0065918 214.14306641 C51.36330097 211.78085195 47.73948712 209.87242301 45 205.25 C43.60262353 200.92805967 43.54167682 196.64544882 45.125 192.375 C47.4448793 188.5085345 49.55094312 186.98628363 53.83203125 185.69921875 C67.44272873 182.87898414 81.14401178 188.35180679 94 192.25 C95.53347116 188.79713337 97.04959528 185.33692164 98.5625 181.875 C99.00013672 180.89015625 99.43777344 179.9053125 99.88867188 178.890625 C100.29794922 177.94960937 100.70722656 177.00859375 101.12890625 176.0390625 C101.51119385 175.16975098 101.89348145 174.30043945 102.28735352 173.40478516 C103.28618498 171.23449902 103.28618498 171.23449902 102 169.25 C98.90109103 167.81005204 95.61700589 166.82181375 92.375 165.75 C91.4267334 165.43538818 90.4784668 165.12077637 89.50146484 164.79663086 C68.42995787 158.05325057 42.02768531 156.95254681 25 173.25 Z M-219 162.25 C-219 208.12 -219 253.99 -219 301.25 C-169.86673875 305.7196598 -169.86673875 305.7196598 -125.625 287.375 C-118.5401245 279.81875173 -116.07640953 271.29665662 -115.96484375 261.0078125 C-116.40118361 251.96174233 -118.27718994 242.78606534 -125 236.25 C-130.06263151 232.38522326 -134.77446987 230.47287199 -141 229.25 C-141 228.59 -141 227.93 -141 227.25 C-140.40832031 227.07984375 -139.81664062 226.9096875 -139.20703125 226.734375 C-131.54571277 224.38473736 -127.14259595 221.35032167 -123.0703125 214.37109375 C-118.76440842 205.83786049 -118.79930056 195.23653137 -120.9375 186.0625 C-123.71962282 178.11727483 -129.70530388 172.00386411 -137.1875 168.3125 C-162.53703944 158.30703325 -193.36238516 162.25 -219 162.25 Z M-87 162.25 C-87 208.12 -87 253.99 -87 301.25 C-60.93 301.25 -34.86 301.25 -8 301.25 C-8 293.66 -8 286.07 -8 278.25 C-24.83 278.25 -41.66 278.25 -59 278.25 C-59 266.04 -59 253.83 -59 241.25 C-43.16 241.25 -27.32 241.25 -11 241.25 C-11 233.33 -11 225.41 -11 217.25 C-26.84 217.25 -42.68 217.25 -59 217.25 C-59 207.02 -59 196.79 -59 186.25 C-42.17 186.25 -25.34 186.25 -8 186.25 C-8 178.33 -8 170.41 -8 162.25 C-34.07 162.25 -60.14 162.25 -87 162.25 Z M116 162.25 C116 170.17 116 178.09 116 186.25 C128.54 186.25 141.08 186.25 154 186.25 C154 224.2 154 262.15 154 301.25 C163.57 301.25 173.14 301.25 183 301.25 C183 263.3 183 225.35 183 186.25 C195.54 186.25 208.08 186.25 221 186.25 C221 178.33 221 170.41 221 162.25 C186.35 162.25 151.7 162.25 116 162.25 Z M41.3515625 338.0234375 C28.92762342 352.9700038 27.79768997 375.54833556 29.30859375 394.0234375 C31.12810449 409.64224652 35.25721795 425.0175733 48 435.25 C56.0245153 441.02837557 66.89767382 441.98689061 76.4375 440.5625 C81.15009898 439.68433433 84.38332169 438.22857642 89 436.25 C89 430.31 89 424.37 89 418.25 C86.0609375 419.24 86.0609375 419.24 83.0625 420.25 C75.73182257 422.47623609 69.87284594 423.76858885 62.6875 420.625 C56.41847458 417.04269976 54.54063618 411.53207402 52.61328125 404.91015625 C48.85525574 388.60942142 48.63749903 367.28269117 56.375 352.125 C58.9132799 348.08477933 61.22718504 345.0879083 65.96484375 343.65625 C71.64451434 342.61813798 75.58927577 343.89385886 80.73828125 346.33984375 C83.21213712 347.49888241 83.21213712 347.49888241 87 347.25 C87.86555948 345.15049414 88.71711277 343.0452093 89.5625 340.9375 C90.27599609 339.17986328 90.27599609 339.17986328 91.00390625 337.38671875 C92.33297345 334.26803916 92.33297345 334.26803916 91 331.25 C74.39872012 319.87204964 54.35207299 324.03710631 41.3515625 338.0234375 Z M-147 326.25 C-147 363.54 -147 400.83 -147 439.25 C-140.07 439.25 -133.14 439.25 -126 439.25 C-126 425.72 -126 412.19 -126 398.25 C-122.37 398.25 -118.74 398.25 -115 398.25 C-106.06266579 397.02570764 -98.24481025 393.55603905 -92.5625 386.3125 C-85.12196706 375.29882978 -84.3879562 361.93411605 -86.53125 349.05859375 C-88.79651833 340.99473095 -93.11429819 334.999729 -100 330.25 C-113.50782768 323.13771522 -133.66383557 326.25 -147 326.25 Z M-78 326.25 C-78 363.54 -78 400.83 -78 439.25 C-71.4 439.25 -64.8 439.25 -58 439.25 C-58 424.73 -58 410.21 -58 395.25 C-55.36 395.58 -52.72 395.91 -50 396.25 C-49.78924332 396.77395859 -49.57848663 397.29791718 -49.36134338 397.8377533 C-47.17454416 403.27287581 -44.98419659 408.70655824 -42.79174805 414.1394043 C-41.97312074 416.16930737 -41.15541028 418.19958043 -40.33862305 420.23022461 C-39.16694011 423.14273422 -37.9920061 426.05391334 -36.81640625 428.96484375 C-36.44971329 429.8783812 -36.08302032 430.79191864 -35.70521545 431.73313904 C-35.3649382 432.57393509 -35.02466095 433.41473114 -34.67407227 434.28100586 C-34.3742897 435.02491074 -34.07450714 435.76881561 -33.76564026 436.53526306 C-33.12521513 438.24390922 -33.12521513 438.24390922 -32 439.25 C-30.43827255 439.33685603 -28.87270656 439.35702219 -27.30859375 439.34765625 C-25.89223633 439.34282227 -25.89223633 439.34282227 -24.44726562 439.33789062 C-22.95743164 439.32532227 -22.95743164 439.32532227 -21.4375 439.3125 C-20.44041016 439.30798828 -19.44332031 439.30347656 -18.41601562 439.29882812 C-15.94394862 439.28700005 -13.47201335 439.26967958 -11 439.25 C-12.97711428 432.95502976 -15.32895813 426.93521364 -18.01171875 420.91015625 C-18.38480667 420.06198837 -18.75789459 419.2138205 -19.14228821 418.33995056 C-20.32024094 415.66244566 -21.5032626 412.9872306 -22.6875 410.3125 C-24.25810729 406.76355287 -25.82381168 403.21249992 -27.38671875 399.66015625 C-27.74916183 398.84563492 -28.11160492 398.03111359 -28.48503113 397.19190979 C-31 391.47540994 -31 391.47540994 -31 389.25 C-29.79996498 388.25543003 -28.56353507 387.30460461 -27.3125 386.375 C-21.4593719 381.26001061 -18.58336771 375.59343411 -17.73388672 367.8125 C-16.93942 355.77378432 -17.21591585 345.25576609 -24.75 335.375 C-31.80496013 327.95332164 -40.09649915 327.15031826 -50 326.25 C-59.24 326.25 -68.48 326.25 -78 326.25 Z M-3 326.25 C-3 363.54 -3 400.83 -3 439.25 C3.27 439.25 9.54 439.25 16 439.25 C16 401.96 16 364.67 16 326.25 C9.73 326.25 3.46 326.25 -3 326.25 Z M98 326.25 C98 363.54 98 400.83 98 439.25 C114.83 439.25 131.66 439.25 149 439.25 C149 433.31 149 427.37 149 421.25 C139.1 421.25 129.2 421.25 119 421.25 C119 410.69 119 400.13 119 389.25 C127.91 389.25 136.82 389.25 146 389.25 C146 383.64 146 378.03 146 372.25 C137.09 372.25 128.18 372.25 119 372.25 C119 363.01 119 353.77 119 344.25 C128.9 344.25 138.8 344.25 149 344.25 C149 338.31 149 332.37 149 326.25 C132.17 326.25 115.34 326.25 98 326.25 Z M-297 339.25 C-299.05830279 343.36660557 -298.29866381 347.97106926 -297 352.25 C-294.52974582 358.26758602 -289.52911254 362.08271729 -283.75 364.75 C-280.77583853 365.48591187 -280.77583853 365.48591187 -277 364.25 C-280.3 359.96 -283.6 355.67 -287 351.25 C-283.78776646 353.81978683 -281.05424678 356.09648785 -278.25 359 C-277.18534072 360.1016909 -276.10687556 361.19073199 -275 362.25 C-274.67 362.25 -274.34 362.25 -274 362.25 C-273.45742338 355.73908054 -273.8917592 350.53202388 -278 345.25 C-282.43437774 341.01431128 -286.37418715 338.8925555 -292.5625 338.875 C-294.04391503 338.96970233 -295.52490505 339.08370537 -297 339.25 Z M278.55078125 346.85546875 C275.30212099 351.65436689 275.59374516 356.64142618 276 362.25 C280.56030824 358.44524578 284.85089392 354.50030379 289 350.25 C288.61328125 350.74628906 288.2265625 351.24257813 287.828125 351.75390625 C284.49729049 356.09883147 281.60742538 360.43629161 279 365.25 C286.48464527 364.73381757 290.44133014 362.92497304 295.75 357.375 C299.56622305 352.07469021 300.37415111 347.73528597 300 341.25 C299.67 340.59 299.34 339.93 299 339.25 C290.27597881 338.26649866 284.49552158 340.26978606 278.55078125 346.85546875 Z M247 342.25 C246.5565266 349.64122337 247.30227004 354.19730557 252.375 359.9375 C257.807713 364.72346145 261.91377512 365.80228645 269 366.25 C269.33439988 362.96756436 269.33439988 362.96756436 266.375 360.33203125 C265.25750594 359.23449244 264.13214357 358.14492105 263 357.0625 C262.42765625 356.50369141 261.8553125 355.94488281 261.265625 355.36914062 C259.85037212 353.98926907 258.42602845 352.61873266 257 351.25 C257.49628906 351.62511719 257.99257813 352.00023437 258.50390625 352.38671875 C265.35076609 358.5569256 265.35076609 358.5569256 273 362.25 C272.48473443 354.77864924 270.66098567 350.85185266 265.1875 345.5 C259.46811441 341.46278664 253.75619984 340.31965719 247 342.25 Z M-264.0546875 346.05859375 C-267.95476119 350.33896509 -270.86111335 354.12505035 -271.125 360.0625 C-271.08375 360.784375 -271.0425 361.50625 -271 362.25 C-267.28939292 360.13060821 -264.00116082 357.7576108 -260.6875 355.0625 C-259.80449219 354.34707031 -258.92148437 353.63164062 -258.01171875 352.89453125 C-257.34785156 352.35183594 -256.68398438 351.80914062 -256 351.25 C-258.57921745 354.56696659 -261.25463471 357.61705746 -264.25 360.5625 C-264.95640625 361.25988281 -265.6628125 361.95726562 -266.390625 362.67578125 C-267.18726563 363.45501953 -267.18726563 363.45501953 -268 364.25 C-267.67 364.91 -267.34 365.57 -267 366.25 C-260.20933027 366.07708943 -255.24013064 364.69581219 -250 360.25 C-246.46831221 355.72219514 -244.85464007 352.27983539 -244.9375 346.5625 C-244.94652344 345.75425781 -244.95554687 344.94601562 -244.96484375 344.11328125 C-244.97644531 343.49839844 -244.98804688 342.88351562 -245 342.25 C-252.17740929 340.81451814 -258.32287236 341.01328879 -264.0546875 346.05859375 Z M-267 374.25 C-270.82578227 379.55673025 -270.30158979 384.97246429 -270 391.25 C-265.59185846 387.80949929 -262.00836566 384.11208791 -258.41796875 379.82421875 C-257.95003906 379.30472656 -257.48210937 378.78523438 -257 378.25 C-256.67 378.25 -256.34 378.25 -256 378.25 C-259.63 383.2 -263.26 388.15 -267 393.25 C-261.13481493 394.71629627 -257.40801155 392.65000671 -252.3125 389.6875 C-247.95094562 385.09018593 -244.73142159 379.31815217 -244.5625 372.875 C-244.93949604 369.75131854 -245.27636584 367.83545124 -247 365.25 C-255.05053822 364.49526204 -261.67739137 368.53312406 -267 374.25 Z M-220.3125 371.375 C-223.40263893 375.32074192 -224.88753055 379.2234806 -225 384.25 C-224.02062732 389.34822975 -221.67077454 393.57922546 -218 397.25 C-213.14096652 400.52702258 -208.69055321 401.08911547 -203 400.25 C-198.24379812 398.89473817 -194.92534057 396.68930016 -192 392.6875 C-189.26204897 387.72206338 -189.08610544 382.77567731 -190 377.25 C-192.58904663 371.97601613 -196.23364718 368.66864247 -201.4375 366 C-208.82421483 363.83803468 -215.11336064 365.92286116 -220.3125 371.375 Z M195.0625 372.375 C191.33434827 377.57181756 191.26904119 381.9518549 192 388.25 C193.69138183 393.03171032 196.35637404 396.2280587 200.75 398.75 C205.94793696 400.92883448 210.9036109 401.48855564 216.20703125 399.3671875 C221.257813 396.53725042 223.72004386 393.53949825 226 388.25 C227.32431241 383.39418783 227.16827728 379.80524209 225.1953125 375.24609375 C222.40929471 370.59362614 218.74119654 367.13621885 213.53515625 365.453125 C205.89162113 364.27538461 200.0844005 366.53524714 195.0625 372.375 Z M249 365.25 C246.49116193 369.01325711 246.29961165 372.8986511 247 377.25 C249.17849365 384.10273729 252.45875977 388.51706748 258.640625 392.19921875 C262.15939102 393.7663513 265.16254259 394.11045609 269 394.25 C265.15717678 388.12584657 261.27631922 382.08134439 257 376.25 C260.96693277 380.12631755 264.866536 384.00133481 268.4375 388.25 C269.283125 389.24 270.12875 390.23 271 391.25 C271.33 391.25 271.66 391.25 272 391.25 C272.55522805 384.5379098 272.5427854 379.53196426 268.484375 373.96875 C264.31066597 369.13603428 260.4109512 366.53219024 254 365.25 C251.20755955 365.08071457 251.20755955 365.08071457 249 365.25 Z M-301 371.25 C-301.95062527 377.33400175 -300.82365894 382.01962024 -297.6328125 387.234375 C-294.28630506 391.36547031 -289.97272623 393.59242459 -285 395.25 C-283.43881572 395.31740865 -281.8749748 395.33514456 -280.3125 395.3125 C-279.50425781 395.30347656 -278.69601562 395.29445313 -277.86328125 395.28515625 C-277.24839844 395.27355469 -276.63351562 395.26195312 -276 395.25 C-275.76521426 393.13075738 -275.76521426 393.13075738 -277.50390625 391.734375 C-278.18324219 391.16203125 -278.86257813 390.5896875 -279.5625 390 C-280.28566406 389.38511719 -281.00882813 388.77023437 -281.75390625 388.13671875 C-282.49511719 387.51410156 -283.23632812 386.89148438 -284 386.25 C-285.33427675 385.10526537 -286.66769833 383.95953272 -288 382.8125 C-288.99 381.966875 -289.98 381.12125 -291 380.25 C-285.84726019 382.99081905 -281.43335882 386.16001928 -276.91796875 389.859375 C-275.1249796 391.44566486 -275.1249796 391.44566486 -273 391.25 C-273.4500008 384.72498845 -274.5677737 380.57180615 -279.45703125 375.83984375 C-284.40662711 371.54184026 -287.63324591 369.97468417 -294.1875 370.0625 C-295.25355469 370.06894531 -296.31960938 370.07539063 -297.41796875 370.08203125 C-299.93026661 369.96036229 -299.93026661 369.96036229 -301 371.25 Z M279.125 378.25 C275.99603466 382.66736283 274.68969313 385.81962984 275 391.25 C278.88609811 389.49933204 282.27812258 387.06675994 285.75 384.625 C286.65298828 383.99464844 286.65298828 383.99464844 287.57421875 383.3515625 C289.05113043 382.32006863 290.52579194 381.28535421 292 380.25 C291.25105469 380.99765625 290.50210938 381.7453125 289.73046875 382.515625 C288.16516904 384.08316405 286.60313925 385.65401856 285.05078125 387.234375 C284.19033203 388.10835938 284.19033203 388.10835938 283.3125 389 C282.73113281 389.59296875 282.14976562 390.1859375 281.55078125 390.796875 C280 392.25 280 392.25 278 393.25 C278 393.91 278 394.57 278 395.25 C284.58748585 395.79895715 289.55512031 395.18177628 295 391.25 C298.85124763 387.5695394 302.68682036 383.40833704 303.23046875 377.92578125 C303.21628906 377.14589844 303.20210937 376.36601562 303.1875 375.5625 C303.18105469 374.77488281 303.17460938 373.98726563 303.16796875 373.17578125 C303.20733669 371.24300636 303.20733669 371.24300636 302 370.25 C292.13839463 369.1455002 285.7507244 370.83687067 279.125 378.25 Z M-260 397.25 C-264.30912573 402.297833 -265.58621607 407.74230732 -266 414.25 C-265.62400749 416.84613874 -264.98159761 418.79600597 -264 421.25 C-260.32231703 417.90971913 -257.85596568 414.17633588 -255.25 410 C-254.83878906 409.3503125 -254.42757812 408.700625 -254.00390625 408.03125 C-252.99794914 406.4404341 -251.99832638 404.84561567 -251 403.25 C-251.56589844 404.35859375 -252.13179687 405.4671875 -252.71484375 406.609375 C-253.45594175 408.07280903 -254.19681544 409.53635667 -254.9375 411 C-255.31068359 411.72960937 -255.68386719 412.45921875 -256.06835938 413.2109375 C-256.42607422 413.91992188 -256.78378906 414.62890625 -257.15234375 415.359375 C-257.48226318 416.00874023 -257.81218262 416.65810547 -258.15209961 417.32714844 C-259.01452116 419.28293079 -259.54374179 421.16540694 -260 423.25 C-254.12382934 422.6903647 -250.22502335 420.82252117 -246.32421875 416.3125 C-242.43252522 411.25980004 -240.85291194 407.85707508 -240.8125 401.375 C-240.79123047 399.83199219 -240.79123047 399.83199219 -240.76953125 398.2578125 C-241.00418631 395.19536512 -241.70815428 393.01751139 -243 390.25 C-249.6681661 390.25 -255.18633156 392.57004457 -260 397.25 Z M245 390.25 C242.19539311 396.38647987 241.83918502 403.07245629 243.65234375 409.59765625 C246.35176728 415.61053528 250.9092684 419.7046342 256.75 422.625 C259.09256017 423.38382193 259.09256017 423.38382193 262 423.25 C260.55676531 418.51210835 258.62773267 414.26141849 256.375 409.875 C256.05015625 409.23433594 255.7253125 408.59367187 255.390625 407.93359375 C254.59742593 406.37052499 253.79922969 404.80999378 253 403.25 C253.68707031 404.29800781 254.37414062 405.34601563 255.08203125 406.42578125 C255.99200238 407.80480967 256.90216888 409.18370919 257.8125 410.5625 C258.49022461 411.59793945 258.49022461 411.59793945 259.18164062 412.65429688 C259.62314453 413.32138672 260.06464844 413.98847656 260.51953125 414.67578125 C260.92276611 415.28848877 261.32600098 415.90119629 261.74145508 416.5324707 C263.02711809 418.2870079 264.42445162 419.75453032 266 421.25 C268.19917487 413.81394108 268.1905943 408.38116894 265 401.25 C261.23428311 395.27679389 255.76410079 392.01454803 249 390.25 C247.68 390.25 246.36 390.25 245 390.25 Z M-300 405.25 C-299.74390764 412.29253996 -297.74344007 416.98618254 -293 422.25 C-287.31721606 427.07924327 -281.90369187 427.78147644 -274.6015625 427.62109375 C-271.76952016 427.40809048 -271.76952016 427.40809048 -269 425.25 C-274.94 421.29 -280.88 417.33 -287 413.25 C-280.4 416.22 -273.8 419.19 -267 422.25 C-268.18564611 415.13612334 -270.40611133 411.31537563 -275.859375 406.6640625 C-283.94889443 401.06611506 -291.19313613 401.56485838 -300 405.25 Z M274.51171875 409.5 C272.02076862 412.38358052 270.06552517 415.57550511 269 419.25 C269.33 420.24 269.66 421.23 270 422.25 C279.405 417.795 279.405 417.795 289 413.25 C280.09 419.19 280.09 419.19 271 425.25 C275.73867683 428.40911789 280.46375605 428.00433008 286 427.25 C292.28927779 424.89368656 296.93345799 421.25825267 300.171875 415.3515625 C301.5041445 411.97061443 301.80602749 408.87082017 302 405.25 C300.58603098 404.74242138 299.16868271 404.24425075 297.75 403.75 C296.96109375 403.4715625 296.1721875 403.193125 295.359375 402.90625 C287.71771023 400.78075384 280.06650274 404.32071423 274.51171875 409.5 Z M-248 421.25 C-253.11391491 426.36391491 -256.04764661 431.99129436 -256.375 439.25 C-256.21809083 443.64345678 -254.71980001 447.23713332 -253 451.25 C-252.34 451.25 -251.68 451.25 -251 451.25 C-248.03 444.32 -245.06 437.39 -242 430.25 C-245.33333333 442.47222222 -245.33333333 442.47222222 -247.44921875 448.375 C-248.14092082 450.40402674 -248.14092082 450.40402674 -248 453.25 C-240.55856645 451.17332087 -236.97037931 447.65770319 -233.015625 441.25 C-230.32055461 435.94278446 -230.10278502 429.66990384 -231.6015625 423.95703125 C-232.7052094 420.8969194 -233.68151551 418.56848449 -236 416.25 C-241.25978243 416.25 -243.88604868 418.1440487 -248 421.25 Z M238 416.25 C233.1954783 422.28997014 232.3074248 427.73061216 233 435.25 C234.97255075 443.37226778 239.17080741 448.02455171 246.1953125 452.33203125 C247.95965004 453.40112553 247.95965004 453.40112553 250 453.25 C248.56315923 446.50790101 246.84944991 439.89120651 245 433.25 C247.64 439.19 250.28 445.13 253 451.25 C253.66 451.25 254.32 451.25 255 451.25 C258.21315073 443.7526483 259.15792219 437.99588475 256.5 430.1875 C253.71414101 423.73027685 248.53163467 418.90347659 242 416.25 C240.68 416.25 239.36 416.25 238 416.25 Z M-291 439.25 C-292.40014995 441.06588347 -292.40014995 441.06588347 -293 443.25 C-291.61884471 449.81725802 -286.30377545 454.59822018 -281 458.25 C-276.08845434 460.88820167 -271.59575582 461.84954527 -266 461.25 C-263.23786297 460.40236007 -260.67001054 459.37421496 -258 458.25 C-258 457.59 -258 456.93 -258 456.25 C-264.6 453.28 -271.2 450.31 -278 447.25 C-269.875 449.6875 -269.875 449.6875 -267.35107422 450.45092773 C-263.25123514 451.66835788 -259.2479018 452.65963665 -255 453.25 C-258.19199299 445.66901664 -262.42017898 440.53991051 -269.875 436.8125 C-277.524221 435.43564022 -283.9986531 435.74932655 -291 439.25 Z M262.0625 444.1875 C259.75508435 447.04506336 258.00736975 449.66824088 257 453.25 C264.79122171 451.63802309 272.36458127 449.47390837 280 447.25 C273.4 450.22 266.8 453.19 260 456.25 C260 456.91 260 457.57 260 458.25 C267.21233665 461.28677333 272.41038647 462.34730414 280 459.6875 C285.88708976 457.12477904 290.43094407 453.76916831 293.09375 447.796875 C293.83081202 445.62663683 294.46933912 443.47877569 295 441.25 C284.15326823 433.60798444 271.29490363 434.09671173 262.0625 444.1875 Z M-233.87890625 447.0859375 C-239.77100785 453.50697515 -241.47870095 458.72333894 -241.32421875 467.421875 C-240.82546299 471.77246741 -239.40611006 475.58852817 -237 479.25 C-236.01 479.91 -235.02 480.57 -234 481.25 C-231.03 470.36 -231.03 470.36 -228 459.25 C-229 466.8125 -229 466.8125 -229.31640625 469.15063477 C-229.88245092 473.55713526 -230.09340053 477.80763751 -230 482.25 C-223.25154236 478.94193253 -219.91186553 475.25581349 -216.6875 468.5 C-214.895215 460.02737998 -215.4454854 452.7169253 -220 445.25 C-221.93604373 442.72196574 -221.93604373 442.72196574 -224 441.25 C-228.02808667 441.25 -231.12967464 444.39957813 -233.87890625 447.0859375 Z M226 441.25 C219.7158046 447.92942781 217.4943167 453.15901854 217.68359375 462.43359375 C218.46861971 469.42129393 221.60175698 474.77340823 227 479.25 C228.65649438 480.2667616 230.32182733 481.26943166 232 482.25 C231.85652682 480.10400757 231.71008875 477.95821331 231.5625 475.8125 C231.48128906 474.61753906 231.40007813 473.42257812 231.31640625 472.19140625 C230.96943423 467.86924868 230.47883797 463.55954173 230 459.25 C231.98 466.51 233.96 473.77 236 481.25 C241.66593189 475.58406811 243.02458853 472.71492492 243.4375 465 C243.27255885 457.85901855 240.85635626 452.3552269 236.02734375 447.10546875 C232.815148 444.15745359 230.36519756 442.03748553 226 441.25 Z M-208 465.25 C-213.93694871 468.95602137 -218.49636202 474.39130584 -220.57421875 481.10546875 C-222.16642495 489.12492935 -221.4577377 496.04903472 -217.4453125 503.1796875 C-215.63889028 505.76726527 -213.66883348 507.57244753 -211 509.25 C-210.02842455 506.33527365 -209.71746042 503.97402243 -209.46484375 500.92578125 C-209.38613037 499.99934814 -209.30741699 499.07291504 -209.22631836 498.1184082 C-209.1310083 496.9449585 -209.03569824 495.77150879 -208.9375 494.5625 C-208.628125 490.829375 -208.31875 487.09625 -208 483.25 C-207.67 492.16 -207.34 501.07 -207 510.25 C-200.10052879 504.33616753 -195.63098305 499.81843011 -194.76171875 490.76953125 C-194.49738298 481.12823169 -197.24134678 474.77450449 -203.53515625 467.5625 C-205.08154692 466.00195405 -205.08154692 466.00195405 -208 465.25 Z M209 465.25 C202.61636079 469.9839347 199.49619962 474.76140115 197 482.25 C196.22140312 489.92109384 197.06659813 496.54275403 201 503.25 C203.12967038 505.84466392 205.36740939 508.16327463 208 510.25 C208.33 510.25 208.66 510.25 209 510.25 C209.33 501.34 209.66 492.43 210 483.25 C210.875 494.5625 210.875 494.5625 211.13623047 498.1184082 C211.2505542 499.50805786 211.2505542 499.50805786 211.3671875 500.92578125 C211.44050293 501.87364502 211.51381836 502.82150879 211.58935547 503.7980957 C211.86942462 506.497917 211.86942462 506.497917 214 509.25 C220.71729496 502.09792866 223.58787063 496.1499047 223.27734375 486.17578125 C222.5195887 478.18199908 218.89310094 472.64884086 213 467.25 C210.88246036 466.03617788 210.88246036 466.03617788 209 465.25 Z M-279 477.25 C-276.91039929 484.73773587 -273.37966994 488.30570882 -266.90234375 492.234375 C-261.32663718 495.21113826 -255.14174126 494.90308108 -249 494.25 C-245.41052135 492.94721968 -242.22392243 491.28769363 -239 489.25 C-239 488.59 -239 487.93 -239 487.25 C-246.59 485.27 -254.18 483.29 -262 481.25 C-250.12 482.735 -250.12 482.735 -238 484.25 C-240.52143255 477.94641862 -244.06904348 474.45102674 -249.98828125 471.13671875 C-259.68616799 467.03600913 -272.20376254 468.60024323 -279 477.25 Z M242.27734375 478.46875 C240.68814296 480.45402871 240.68814296 480.45402871 240 484.25 C247.92 483.26 255.84 482.27 264 481.25 C252.615 484.22 252.615 484.22 241 487.25 C241 487.91 241 488.57 241 489.25 C248.55519938 494.02529532 255.10334686 495.47869378 264 494.25 C271.97670024 491.83903594 276.70442242 486.09110503 281 479.25 C279.614012 475.89933828 278.2243823 474.41628149 275.125 472.5625 C274.44695313 472.14613281 273.76890625 471.72976563 273.0703125 471.30078125 C262.20433581 465.78578553 250.25246931 470.21214943 242.27734375 478.46875 Z M-186 488.25 C-192.83170547 495.28759249 -196.02083342 500.62047251 -196.5625 510.5 C-196.3567997 518.55036166 -193.53358749 525.3506167 -188.11328125 531.33203125 C-185.00574586 534.29760996 -185.00574586 534.29760996 -181 535.25 C-181.06582275 534.37674072 -181.13164551 533.50348145 -181.19946289 532.60375977 C-181.44035707 529.37440006 -181.67651522 526.14473961 -181.90942383 522.91479492 C-182.01135447 521.51491492 -182.11519131 520.11517239 -182.22094727 518.71557617 C-182.37232338 516.7078883 -182.51635601 514.69965096 -182.66015625 512.69140625 C-182.74918213 511.48170166 -182.83820801 510.27199707 -182.92993164 509.02563477 C-182.9530542 508.10967529 -182.97617676 507.19371582 -183 506.25 C-182.67 505.92 -182.34 505.59 -182 505.25 C-181.96261719 505.8584375 -181.92523438 506.466875 -181.88671875 507.09375 C-181.43868043 513.06759429 -180.62901042 518.92243869 -179.5625 524.8125 C-179.44028076 525.51503906 -179.31806152 526.21757813 -179.19213867 526.94140625 C-178.46741972 531.01717638 -178.46741972 531.01717638 -176 534.25 C-169.49714183 526.37704278 -167.05332976 519.50559428 -168 509.25 C-169.2480762 501.30029728 -173.93045043 495.37087994 -180 490.25 C-183.1580552 488.94560897 -183.1580552 488.94560897 -186 488.25 Z M178.15625 493.98046875 C172.4391996 500.0487786 169.94746153 505.91759409 169.625 514.25 C169.91690651 522.42338227 172.40510261 528.35267572 178 534.25 C180.38708157 531.86291843 180.48523329 530.6929121 181.0703125 527.41796875 C181.24433594 526.45439453 181.41835938 525.49082031 181.59765625 524.49804688 C181.85869141 522.98307617 181.85869141 522.98307617 182.125 521.4375 C182.30675781 520.43912109 182.48851562 519.44074219 182.67578125 518.41210938 C183.4651405 513.95786787 184.10497082 509.78565643 184 505.25 C184.33 505.58 184.66 505.91 185 506.25 C184.94573943 508.39943689 184.81796355 510.54708351 184.66015625 512.69140625 C184.56669922 513.99658203 184.47324219 515.30175781 184.37695312 516.64648438 C184.27224908 518.03516482 184.16742986 519.42383659 184.0625 520.8125 C183.9611036 522.2050429 183.86018583 523.59762074 183.75976562 524.99023438 C183.51123202 528.41053011 183.25775646 531.83038892 183 535.25 C190.0949145 531.82626391 193.48394121 527.67226714 196.828125 520.61328125 C199.33773256 513.41070754 199.24742831 505.14594412 196.125 498.10546875 C193.90357305 494.44165694 191.17536545 491.12695761 188 488.25 C184.0068882 488.25 180.93877711 491.368902 178.15625 493.98046875 Z M-256.1875 509.3125 C-258.1631638 511.96766265 -258.1631638 511.96766265 -258.0625 514.3125 C-254.49707351 520.81416007 -249.09387215 524.6467494 -242.0390625 526.8671875 C-233.20118488 528.5264059 -226.54818826 527.02648277 -219 522.25 C-217.65380022 521.26738922 -216.31623254 520.27240387 -215 519.25 C-215.495 517.765 -215.495 517.765 -216 516.25 C-223.59 515.59 -231.18 514.93 -239 514.25 C-226.625 513.755 -226.625 513.755 -214 513.25 C-216.63786848 508.85355254 -217.45620331 507.55125251 -221.4375 505 C-222.19933594 504.49984375 -222.96117187 503.9996875 -223.74609375 503.484375 C-234.25613545 497.72844228 -248.21293664 500.72618932 -256.1875 509.3125 Z M217 510.25 C216.67 511.24 216.34 512.23 216 513.25 C224.25 513.58 232.5 513.91 241 514.25 C229.615 515.24 229.615 515.24 218 516.25 C217.67 517.24 217.34 518.23 217 519.25 C218.39176632 520.21423026 219.7886223 521.17111602 221.1875 522.125 C221.96480469 522.65867187 222.74210938 523.19234375 223.54296875 523.7421875 C229.63632073 527.48151002 234.96696984 528.01364 242 527.25 C249.56143847 525.24589382 255.60620895 521.84068658 260 515.25 C260.07725343 512.39162297 259.52238313 510.83418621 257.61328125 508.69921875 C250.51899512 502.27450569 244.62484456 500.70833761 235.15234375 500.96875 C227.6697783 501.63633948 222.04422598 504.63555717 217 510.25 Z M-160.4140625 509.5703125 C-160.81367188 510.16585938 -161.21328125 510.76140625 -161.625 511.375 C-162.02976563 511.95507812 -162.43453125 512.53515625 -162.8515625 513.1328125 C-167.00259452 520.78539533 -167.38561089 529.8432606 -165.2421875 538.20703125 C-161.92650297 546.91396662 -156.96678415 551.61371309 -149 556.25 C-147.515 556.745 -147.515 556.745 -146 557.25 C-147.63246338 547.49817929 -149.82498426 537.89256976 -152 528.25 C-148.7 537.16 -145.4 546.07 -142 555.25 C-136.80974946 550.05974946 -134.95303022 544.58594854 -134.625 537.25 C-135.0827772 528.14938919 -138.48275765 520.60976252 -145 514.25 C-152.33502116 508.32533624 -152.33502116 508.32533624 -160.4140625 509.5703125 Z M144.8984375 516.3359375 C139.34392456 523.07226171 136.37132649 530.11505002 136.7109375 538.9140625 C137.57104971 545.86469904 138.99017511 550.24017511 144 555.25 C147.3 546.34 150.6 537.43 154 528.25 C153.38125 530.993125 152.7625 533.73625 152.125 536.5625 C150.58708259 543.43215453 149.16255803 550.30524544 148 557.25 C153.24049741 554.9223349 157.15468435 552.62938727 161 548.25 C161.70125 547.486875 162.4025 546.72375 163.125 545.9375 C168.50415583 538.22737664 168.96697738 530.44679571 168 521.25 C167.05170457 517.96350555 165.76542042 515.17096833 164 512.25 C163.505 511.404375 163.01 510.55875 162.5 509.6875 C157.3931847 504.79346867 148.63986209 512.62233019 144.8984375 516.3359375 Z M-127 524.25 C-127.6509259 525.49735567 -128.29551669 526.74801832 -128.9375 528 C-129.47697266 529.04414062 -129.47697266 529.04414062 -130.02734375 530.109375 C-133.27663997 537.26043657 -132.86978878 545.42917589 -130.5625 552.8125 C-126.79297961 562.05774473 -120.15498829 568.32352416 -111.26171875 572.60546875 C-108.71938445 573.53339615 -108.71938445 573.53339615 -105 572.25 C-108.96 563.01 -112.92 553.77 -117 544.25 C-111.375 553.25 -111.375 553.25 -109.10546875 557.1875 C-108.62529297 558.01894531 -108.14511719 558.85039063 -107.65039062 559.70703125 C-107.16763672 560.54621094 -106.68488281 561.38539063 -106.1875 562.25 C-105.43436523 563.55517578 -105.43436523 563.55517578 -104.66601562 564.88671875 C-103.44273072 567.00707926 -102.22075117 569.12818008 -101 571.25 C-96.95576958 567.20576958 -96.68715341 561.99436172 -96.625 556.5 C-96.81668625 546.3725766 -99.80595425 539.54504324 -106.796875 532.23046875 C-113.00842994 526.64667734 -118.73294752 524.64366917 -127 524.25 Z M106.98046875 533.95703125 C99.47879443 542.64240171 98.2655013 552.14682798 99 563.25 C99.7320269 566.19087549 100.68231932 568.50483191 102 571.25 C104.8785392 568.70697265 106.50451362 565.83358548 108.35546875 562.48828125 C109.28842773 560.81088867 109.28842773 560.81088867 110.24023438 559.09960938 C110.88943287 557.92063346 111.53852001 556.74159621 112.1875 555.5625 C112.84784274 554.37148711 113.50864511 553.18072893 114.16992188 551.99023438 C115.78448964 549.07929833 117.39430879 546.16583894 119 543.25 C115 553.25 111 563.25 107 573.25 C115.31273931 572.89626641 121.16383114 568.44098623 126.8125 562.5625 C132.39054671 555.73912194 134.71773842 547.79441843 134.40234375 539.0390625 C133.73313492 534.40008088 132.43384912 527.68384912 129 524.25 C120.30495651 523.65034183 113.11000427 528.17465527 106.98046875 533.95703125 Z M-228.50390625 542.1640625 C-230.17188119 544.27240171 -230.17188119 544.27240171 -231 547.25 C-224.54680186 554.08279803 -218.29349165 558.11465285 -208.75 558.625 C-200.62532606 558.4031659 -193.39614031 555.22607426 -187.33984375 549.91015625 C-185.56837076 547.8816921 -185.56837076 547.8816921 -184 543.25 C-192.58 543.58 -201.16 543.91 -210 544.25 C-197.13 541.775 -197.13 541.775 -184 539.25 C-190.91974394 532.33025606 -195.03562036 530.15141227 -204.625 529.875 C-215.51232226 529.99923293 -221.58400869 534.00498811 -228.50390625 542.1640625 Z M186 538.25 C186 538.58 186 538.91 186 539.25 C194.58 540.9 203.16 542.55 212 544.25 C199.13 543.755 199.13 543.755 186 543.25 C188.54602593 549.61506482 191.45621523 552.5128506 197.58984375 555.51953125 C206.12284498 558.90640271 213.20898345 559.44462874 221.85546875 556.234375 C226.81931835 553.95588666 230.74788842 551.37436982 233 546.25 C228.13114951 538.98360949 222.53483831 532.9746787 214 530.25 C202.74888971 529.21495162 194.32320045 530.34295957 186 538.25 Z M-91 535.25 C-94.66457056 543.40857068 -95.02795383 552.56914205 -92.0078125 560.9765625 C-87.9680383 570.08954152 -82.00578218 577.25543808 -72.89453125 581.5234375 C-68.51152393 583.2043434 -64.7008987 583.3404019 -60 583.25 C-64.99997324 573.48211978 -70.96965531 564.40281855 -77 555.25 C-72.56234524 559.48517621 -68.73454894 564.11353541 -64.875 568.875 C-63.64469917 570.3892164 -62.41298139 571.90228289 -61.1796875 573.4140625 C-60.64069824 574.07873535 -60.10170898 574.7434082 -59.54638672 575.42822266 C-58.1038388 577.12766891 -56.60048931 578.69995763 -55 580.25 C-51.85191871 572.57655185 -52.38215824 565.49481352 -54.9609375 557.734375 C-59.16165817 547.69054663 -65.96262359 541.18935739 -75.88671875 537.01171875 C-79.62126654 535.66562481 -82.77178239 535.1289968 -86.75 535.1875 C-87.94882812 535.20103516 -87.94882812 535.20103516 -89.171875 535.21484375 C-90.07679688 535.23224609 -90.07679688 535.23224609 -91 535.25 Z M63.28125 547.16796875 C56.81365235 555.3634295 54.21423548 563.83405177 55 574.25 C55.88460028 577.66471924 55.88460028 577.66471924 57 580.25 C61.27307931 576.1689692 64.94295441 571.74016673 68.625 567.125 C69.76143364 565.70445795 70.89939964 564.28514013 72.0390625 562.8671875 C72.53615723 562.24440918 73.03325195 561.62163086 73.54541016 560.97998047 C74.95238959 559.30662427 76.43053989 557.77050554 78 556.25 C77.69296143 556.74814209 77.38592285 557.24628418 77.06958008 557.75952148 C75.6485382 560.06761372 74.23051061 562.37754433 72.8125 564.6875 C72.32974609 565.47060547 71.84699219 566.25371094 71.34960938 567.06054688 C68.08729062 572.38097277 64.98565675 577.76960288 62 583.25 C69.22650286 583.87839155 75.38719466 581.86510095 81.27734375 577.6015625 C90.0073661 570.15584512 95.32514488 561.68568902 96.25 550.125 C95.91495901 544.93186459 94.50761603 540.21256942 93 535.25 C81.36576747 534.48709951 71.12292234 538.41737529 63.28125 547.16796875 Z M-50.87890625 541.37109375 C-53.9833439 546.57400144 -52.56245541 554.63525191 -51.34375 560.30078125 C-47.84366613 570.96698511 -40.94865083 579.03543728 -31 584.25 C-24.85950536 586.45086606 -18.53184462 587.95998311 -12 587.25 C-11.34 586.59 -10.68 585.93 -10 585.25 C-10.41773682 584.80720703 -10.83547363 584.36441406 -11.26586914 583.90820312 C-13.19955151 581.85685083 -15.13103149 579.80343683 -17.0625 577.75 C-17.71927734 577.05390625 -18.37605469 576.3578125 -19.05273438 575.640625 C-22.38374393 572.09629957 -25.68807867 568.52915056 -28.93359375 564.90625 C-29.78328735 563.95975586 -29.78328735 563.95975586 -30.65014648 562.99414062 C-32 561.25 -32 561.25 -33 558.25 C-32.27296875 558.99443359 -32.27296875 558.99443359 -31.53125 559.75390625 C-27.53997742 563.7989075 -23.47086472 567.66874789 -19.1640625 571.375 C-15.0533021 574.93666966 -11.03530424 578.60334186 -7 582.25 C-4.66015237 580.32553704 -4.66015237 580.32553704 -4.625 576.9375 C-4.9767252 565.55815519 -9.69998687 556.20297851 -17.84375 548.5078125 C-26.30034984 541.54151509 -35.2802764 539.80451358 -46.03125 539.81640625 C-48.93142009 540.0464823 -48.93142009 540.0464823 -50.87890625 541.37109375 Z M14.25 554.3125 C8.82081036 561.66737475 5.96783793 571.13256838 7 580.25 C7.66 580.91 8.32 581.57 9 582.25 C9.61875 581.61384766 9.61875 581.61384766 10.25 580.96484375 C13.96855834 577.18818294 17.79284178 573.61404034 21.80859375 570.15625 C25.22393374 567.18533036 28.55611489 564.12289817 31.8984375 561.0703125 C34 559.25 34 559.25 36 558.25 C31.48222871 563.45052129 26.90396456 568.59257794 22.2890625 573.70703125 C18.84059238 577.53801086 15.41920871 581.39290898 12 585.25 C13.83168357 587.51024177 13.83168357 587.51024177 16.546875 587.47265625 C27.78823928 586.91058804 37.77255021 583.17907492 45.625 574.875 C51.61358153 567.37324369 54.13009335 559.69010197 54.25 550.1875 C54.28867187 548.34478516 54.28867187 548.34478516 54.328125 546.46484375 C54.23358098 543.34980626 54.23358098 543.34980626 52.890625 541.34375 C40.09153332 533.9393168 22.51853547 544.74762634 14.25 554.3125 Z M-187.0234375 562.21875 C-191.62364101 566.94623187 -194.98306579 571.66303979 -196 578.25 C-188.9580646 583.91416543 -181.20544171 587.23629733 -172 586.25 C-162.09944334 584.29272356 -154.82222203 579.46960757 -149 571.25 C-148.29402577 569.26353459 -147.62116702 567.26459574 -147 565.25 C-148.35532837 565.5759314 -148.35532837 565.5759314 -149.73803711 565.90844727 C-153.07843065 566.7088418 -156.41997431 567.50402504 -159.76245117 568.2956543 C-161.21119326 568.63991145 -162.65943939 568.98626261 -164.10717773 569.3347168 C-166.18347604 569.83407968 -168.26141862 570.32598178 -170.33984375 570.81640625 C-171.59144287 571.11490479 -172.84304199 571.41340332 -174.13256836 571.72094727 C-175.0788208 571.89553467 -176.02507324 572.07012207 -177 572.25 C-177.33 571.92 -177.66 571.59 -178 571.25 C-176.74316406 571.00507812 -175.48632812 570.76015625 -174.19140625 570.5078125 C-168.55503339 569.2552852 -163.29975899 567.23706582 -157.9375 565.125 C-156.97650391 564.75246094 -156.01550781 564.37992188 -155.02539062 563.99609375 C-152.68129617 563.08644515 -150.33964819 562.17101046 -148 561.25 C-151.41969521 558.2461298 -154.14919418 556.60486098 -158.5625 555.5 C-159.49191406 555.25765625 -160.42132813 555.0153125 -161.37890625 554.765625 C-170.62798362 552.94613437 -180.01588239 556.20499362 -187.0234375 562.21875 Z M159.4375 556.0625 C158.30183594 556.39894531 157.16617187 556.73539063 155.99609375 557.08203125 C153.11252643 558.20613377 152.02666321 559.04694133 150 561.25 C153.78795106 562.6804204 157.57825448 564.1043979 161.37084961 565.52246094 C162.66057458 566.00572265 163.94964438 566.49073669 165.23803711 566.97753906 C167.09054958 567.67713915 168.94563569 568.36991233 170.80078125 569.0625 C171.91622314 569.48144531 173.03166504 569.90039062 174.1809082 570.33203125 C176.98129882 571.40481207 176.98129882 571.40481207 180 571.25 C179.67 571.58 179.34 571.91 179 572.25 C176.76679324 571.83796432 174.54879068 571.34322623 172.33984375 570.81640625 C171.67537735 570.65961899 171.01091095 570.50283173 170.3263092 570.34129333 C168.19536934 569.83714671 166.06646452 569.32491759 163.9375 568.8125 C162.49687119 568.47017076 161.05611744 568.12836684 159.61523438 567.78710938 C156.07535065 566.94750673 152.53724897 566.10064293 149 565.25 C151.61634062 573.4901388 156.43954293 578.97269643 163.9609375 583.28515625 C172.1486575 587.15942223 180.0702177 586.94842465 188.5546875 584.25 C192.1958049 582.76098074 194.94175101 580.70989593 198 578.25 C196.5611014 570.73575177 192.68572686 565.10856704 186.6328125 560.4140625 C177.77113677 554.75473688 169.6036062 552.97450187 159.4375 556.0625 Z M-146 584.25 C-149.88629299 589.55263088 -154.2781629 595.97158972 -153.8359375 602.7734375 C-153.23181038 605.40434871 -153.23181038 605.40434871 -150.91796875 606.61328125 C-141.03402701 610.04932966 -132.02644996 610.95371307 -122.31640625 606.51171875 C-114.27580783 602.13210106 -107.68373802 596.2771188 -105 587.25 C-105 585.93 -105 584.61 -105 583.25 C-108.77597634 583.87456228 -111.95978834 584.97392726 -115.44921875 586.53515625 C-116.46177734 586.98310547 -117.47433594 587.43105469 -118.51757812 587.89257812 C-119.56365234 588.36115234 -120.60972656 588.82972656 -121.6875 589.3125 C-123.77327485 590.24417152 -125.86044667 591.17272395 -127.94921875 592.09765625 C-128.87049561 592.51023682 -129.79177246 592.92281738 -130.7409668 593.34790039 C-133 594.25 -133 594.25 -135 594.25 C-134.36497559 593.90743164 -133.72995117 593.56486328 -133.07568359 593.21191406 C-130.17381972 591.64428306 -127.27439954 590.07218386 -124.375 588.5 C-123.37597656 587.96117187 -122.37695312 587.42234375 -121.34765625 586.8671875 C-116.40942214 584.18549745 -111.59859371 581.48314097 -107 578.25 C-110.90393701 574.34606299 -115.92629256 573.9405629 -121.25 573.875 C-130.75895172 574.04808672 -139.24380943 577.43581637 -146 584.25 Z M109 577.25 C111.54302735 580.1285392 114.41641452 581.75451362 117.76171875 583.60546875 C118.87998047 584.22744141 119.99824219 584.84941406 121.15039062 585.49023438 C122.32936654 586.13943287 123.50840379 586.78852001 124.6875 587.4375 C125.87851289 588.09784274 127.06927107 588.75864511 128.25976562 589.41992188 C131.17070167 591.03448964 134.08416106 592.64430879 137 594.25 C128.55956269 591.16823431 120.22542335 588.07187538 112.13671875 584.1328125 C109.92320696 583.05907286 109.92320696 583.05907286 107 583.25 C107.49556938 588.32958616 109.2469914 592.0360085 112 596.25 C112.53625 597.095625 113.0725 597.94125 113.625 598.8125 C120.17472214 605.53458325 128.51714979 609.26945617 137.8125 609.5625 C144.66800842 609.45165223 150.28607994 608.05928004 156 604.25 C154.79268531 594.46658788 151.37271796 586.70789117 143.6875 580.3125 C133.24480421 572.94527369 120.63265663 571.77580865 109 577.25 Z M-96.3125 597.0625 C-102.79671734 603.98501434 -105.64567895 611.71058708 -106 621.25 C-105.38878322 623.54720079 -105.38878322 623.54720079 -104 625.25 C-94.79597689 628.47948179 -85.98555952 628.00811137 -77 624.25 C-67.68205356 619.29044786 -61.21250094 612.39208411 -58 602.25 C-57.45301845 599.2209173 -57.19561103 596.33087366 -57 593.25 C-61.01130824 594.69987045 -64.37841584 596.63297639 -67.95703125 598.9453125 C-68.77877083 599.47377274 -68.77877083 599.47377274 -69.61711121 600.01290894 C-71.35152639 601.12960566 -73.08203928 602.25218749 -74.8125 603.375 C-75.99388701 604.13711203 -77.1755252 604.89883485 -78.35742188 605.66015625 C-81.24077458 607.51962453 -84.12150582 609.38302295 -87 611.25 C-84.33999048 608.54755706 -81.72499815 605.89695808 -78.73046875 603.56640625 C-78.15506348 603.11628174 -77.5796582 602.66615723 -76.98681641 602.20239258 C-76.39304199 601.74372803 -75.79926758 601.28506348 -75.1875 600.8125 C-74.26590088 600.09453247 -74.26590088 600.09453247 -73.32568359 599.36206055 C-68.9221048 595.93956894 -64.48324053 592.56759799 -60 589.25 C-69.54413855 579.70586145 -88.56323034 589.75809582 -96.3125 597.0625 Z M62 588.25 C65.67721378 592.07927901 69.5488308 595.38604887 73.75 598.625 C74.36182129 599.10106689 74.97364258 599.57713379 75.60400391 600.06762695 C77.40043098 601.46466431 79.20011898 602.85741744 81 604.25 C82.7918833 605.64555522 84.58358984 607.04133748 86.375 608.4375 C87.58317298 609.37520664 88.79147656 610.31274507 90 611.25 C82.30952903 607.14864991 75.09327712 602.45693234 67.84570312 597.62695312 C66.99041016 597.06298828 66.13511719 596.49902344 65.25390625 595.91796875 C64.48377197 595.40516357 63.7136377 594.8923584 62.92016602 594.36401367 C61.08166434 593.08272498 61.08166434 593.08272498 59 593.25 C59.33320968 603.24629035 62.95756026 611.83300763 70.3125 618.75 C78.45616879 625.35557283 87.56114346 628.25858517 98 627.25 C101.08522226 626.44718876 104.03848922 625.42620286 107 624.25 C108.77701069 617.59229555 106.77314972 611.08103881 103.9296875 604.9375 C98.70197305 596.07461988 91.85246119 590.3742673 82 587.25 C74.89287687 585.87703303 68.86899341 586.00436754 62 588.25 Z M-45.62890625 606.07421875 C-52.22690596 614.52359748 -52.69635116 623.83151531 -52 634.25 C-51.67 635.24 -51.34 636.23 -51 637.25 C-39.96478671 638.91160331 -29.98941995 638.0857674 -20.625 631.5 C-12.0668366 624.27792118 -6.82300174 616.4357971 -5 605.25 C-4.93733488 603.81371543 -4.91313653 602.3749445 -4.9375 600.9375 C-4.958125 599.720625 -4.97875 598.50375 -5 597.25 C-8.57933154 597.25 -8.95082548 597.78105563 -11.5 600.125 C-12.551875 601.07826172 -12.551875 601.07826172 -13.625 602.05078125 C-14.40875 602.77652344 -15.1925 603.50226562 -16 604.25 C-22.13156854 609.90922387 -28.20460255 615.39739346 -35 620.25 C-34.14277344 619.3321875 -33.28554688 618.414375 -32.40234375 617.46875 C-20.54176727 604.90517824 -20.54176727 604.90517824 -10 591.25 C-25.7661371 590.34764557 -35.09786102 594.28045827 -45.62890625 606.07421875 Z M12 591.25 C16.25389992 597.32699988 21.06779924 602.68210244 26.15307617 608.06103516 C29.89464296 612.02309013 33.48990339 616.08136499 37 620.25 C32.20886052 616.81564968 27.89383788 613.27722602 23.78515625 609.046875 C18.94928015 604.17925354 13.81690388 599.88556492 8 596.25 C6.61857444 597.41377902 6.61857444 597.41377902 6.75 600.625 C6.9393573 611.21007305 10.91720863 619.7777227 18.0390625 627.4453125 C24.32322801 633.46301162 31.35425793 637.01672921 40 638.25 C42.27401002 638.1673572 44.54633382 638.01851511 46.8125 637.8125 C48.55466797 637.65974609 48.55466797 637.65974609 50.33203125 637.50390625 C51.21246094 637.42011719 52.09289062 637.33632813 53 637.25 C55.68979101 629.18062697 54.69345285 619.62335473 51.4609375 611.8515625 C46.24198359 602.5579173 37.86135969 594.90122968 27.62109375 591.7421875 C22.45630327 590.77234607 17.22976633 591.03175627 12 591.25 Z " fill="#4B1D94" transform="translate(399,61.75)"/>
<path d="M0 0 C1.23600952 0.00182281 2.47201904 0.00364563 3.7454834 0.00552368 C21.85037064 0.05047985 39.59077255 0.4552031 57.5 3.3125 C59.22694092 3.57788574 59.22694092 3.57788574 60.98876953 3.84863281 C131.57259134 14.90749706 198.88476127 43.93035923 253.80126953 89.90185547 C256.1701611 91.86900918 258.58970393 93.77143997 261 95.6875 C275.14526207 107.2763894 288.6710372 120.37635354 300.5 134.3125 C301.41310574 135.36281171 302.32726175 136.41221082 303.2421875 137.4609375 C309.96439185 145.19065736 316.42148567 153.06390352 322.5 161.3125 C322.95842285 161.93431152 323.4168457 162.55612305 323.88916016 163.19677734 C370.13772862 226.37967781 400.37942048 305.84922433 400.703125 384.71484375 C400.71013931 385.86281937 400.71715363 387.01079498 400.72438049 388.19355774 C400.7417927 391.87907883 400.74823299 395.56443928 400.75 399.25 C400.75101212 401.13773132 400.75101212 401.13773132 400.75204468 403.06359863 C400.73644915 421.34622513 400.38545458 439.22678322 397.5 457.3125 C397.32307617 458.46379395 397.14615234 459.61508789 396.96386719 460.80126953 C391.29428123 496.98772015 381.15002812 532.70089541 365.60986328 565.93115234 C364.56696866 568.16881053 363.55791488 570.41840003 362.55859375 572.67578125 C351.13968998 598.1565221 335.86908115 622.47365531 318.5 644.3125 C318.01998535 644.91964844 317.5399707 645.52679687 317.04541016 646.15234375 C310.6058063 654.27657806 303.98349247 662.14715964 296.90625 669.72265625 C294.92128739 671.85906893 293.01068511 674.02692515 291.125 676.25 C283.60871182 684.90731506 275.24744324 692.91564944 266.5 700.3125 C265.06720703 701.57900391 265.06720703 701.57900391 263.60546875 702.87109375 C242.00078443 721.89577606 218.10006094 738.11905126 192.90478516 751.98681641 C190.72367301 753.18919599 188.55461235 754.41074121 186.38671875 755.63671875 C130.37147741 786.83262177 64.65923345 800.81985777 1 800.625 C-0.23600952 800.62317719 -1.47201904 800.62135437 -2.7454834 800.61947632 C-20.85037064 800.57452015 -38.59077255 800.1697969 -56.5 797.3125 C-57.65129395 797.13557617 -58.80258789 796.95865234 -59.98876953 796.77636719 C-96.17522015 791.10678123 -131.88839541 780.96252812 -165.11865234 765.42236328 C-167.35631053 764.37946866 -169.60590003 763.37041488 -171.86328125 762.37109375 C-197.3440221 750.95218998 -221.66115531 735.68158115 -243.5 718.3125 C-244.10714844 717.83248535 -244.71429688 717.3524707 -245.33984375 716.85791016 C-253.46407806 710.4183063 -261.33465964 703.79599247 -268.91015625 696.71875 C-271.04656893 694.73378739 -273.21442515 692.82318511 -275.4375 690.9375 C-284.09354895 683.42231105 -292.10886634 675.06310222 -299.5 666.3125 C-300.80130859 664.8275 -300.80130859 664.8275 -302.12890625 663.3125 C-321.10083148 641.62262446 -337.36419967 617.9402473 -351.20654297 592.66894531 C-352.39347732 590.5065651 -353.60205455 588.35799117 -354.81640625 586.2109375 C-375.18211475 549.66103848 -387.77130204 508.19479265 -394.75 467.125 C-394.87542175 466.39289307 -395.00084351 465.66078613 -395.13006592 464.90649414 C-398.74790116 443.54197829 -399.87879726 422.47154257 -399.8125 400.8125 C-399.81067719 399.57649048 -399.80885437 398.34048096 -399.80697632 397.0670166 C-399.76202015 378.96212936 -399.3572969 361.22172745 -396.5 343.3125 C-396.23461426 341.58555908 -396.23461426 341.58555908 -395.96386719 339.82373047 C-390.29428123 303.63727985 -380.15002812 267.92410459 -364.60986328 234.69384766 C-363.56696866 232.45618947 -362.55791488 230.20659997 -361.55859375 227.94921875 C-350.13968998 202.4684779 -334.86908115 178.15134469 -317.5 156.3125 C-316.77997803 155.40177734 -316.77997803 155.40177734 -316.04541016 154.47265625 C-309.6058063 146.34842194 -302.98349247 138.47784036 -295.90625 130.90234375 C-293.92128739 128.76593107 -292.01068511 126.59807485 -290.125 124.375 C-282.60981105 115.71895105 -274.25060222 107.70363366 -265.5 100.3125 C-264.51 99.44496094 -263.52 98.57742187 -262.5 97.68359375 C-240.81012446 78.71166852 -217.1277473 62.44830033 -191.85644531 48.60595703 C-189.6940651 47.41902268 -187.54549117 46.21044545 -185.3984375 44.99609375 C-148.84853848 24.63038525 -107.38229265 12.04119796 -66.3125 5.0625 C-65.58039307 4.93707825 -64.84828613 4.81165649 -64.09399414 4.68243408 C-42.72947829 1.06459884 -21.65904257 -0.06629726 0 0 Z M-260.79296875 151.69921875 C-263.75797092 154.84873721 -266.64206416 158.06586053 -269.5 161.3125 C-269.94085938 161.80862793 -270.38171875 162.30475586 -270.8359375 162.81591797 C-284.13292632 177.84879327 -296.08756124 194.16193583 -306.5 211.3125 C-306.96970215 212.08577637 -307.4394043 212.85905273 -307.92333984 213.65576172 C-335.78375874 259.99683218 -353.15309785 311.470667 -358.5 365.3125 C-358.5942627 366.23804688 -358.68852539 367.16359375 -358.78564453 368.1171875 C-359.71827637 378.50126723 -359.74347054 388.8945847 -359.75 399.3125 C-359.75067474 400.28437256 -359.75134949 401.25624512 -359.75204468 402.25756836 C-359.73390638 418.78206554 -358.94594335 434.94496296 -356.5 451.3125 C-356.32839355 452.47056152 -356.15678711 453.62862305 -355.97998047 454.82177734 C-353.35016554 471.98020345 -349.46278106 488.68364249 -344.5 505.3125 C-344.09442871 506.6739917 -344.09442871 506.6739917 -343.68066406 508.06298828 C-330.94969141 550.00351814 -309.70075954 589.05640479 -282.5 623.3125 C-281.76136719 624.24578125 -281.02273438 625.1790625 -280.26171875 626.140625 C-275.45309645 632.11937386 -270.3907546 637.80765204 -265.16796875 643.421875 C-262.83310178 645.9515991 -260.57054953 648.52716778 -258.3125 651.125 C-248.70832403 661.81546517 -237.79466153 671.45595786 -226.5 680.3125 C-225.17538001 681.37840781 -223.85119658 682.44485827 -222.52734375 683.51171875 C-168.91955787 726.36084864 -102.69513889 752.54020578 -34.5 759.3125 C-33.11167969 759.45389404 -33.11167969 759.45389404 -31.6953125 759.59814453 C-21.31123277 760.53077637 -10.9179153 760.55597054 -0.5 760.5625 C0.95780884 760.56351212 0.95780884 760.56351212 2.44506836 760.56454468 C18.96956554 760.54640638 35.13246296 759.75844335 51.5 757.3125 C53.23709229 757.05509033 53.23709229 757.05509033 55.00927734 756.79248047 C72.16770345 754.16266554 88.87114249 750.27528106 105.5 745.3125 C106.8614917 744.90692871 106.8614917 744.90692871 108.25048828 744.49316406 C150.19101814 731.76219141 189.24390479 710.51325954 223.5 683.3125 C224.43328125 682.57386719 225.3665625 681.83523438 226.328125 681.07421875 C232.78925626 675.87762318 238.91429266 670.3612332 244.97949219 664.71533203 C246.48640572 663.32504219 248.00925246 661.95486717 249.5390625 660.58984375 C256.65291352 654.22167942 263.18914238 647.47323753 269.5 640.3125 C269.96341797 639.79381348 270.42683594 639.27512695 270.90429688 638.74072266 C284.57229002 623.41813363 296.84479681 606.86292697 307.5 589.3125 C308.20455322 588.15258545 308.20455322 588.15258545 308.92333984 586.96923828 C336.78158133 540.63178956 354.15254531 489.15989691 359.5 435.3125 C359.64139404 433.92417969 359.64139404 433.92417969 359.78564453 432.5078125 C360.71827637 422.12373277 360.74347054 411.7304153 360.75 401.3125 C360.75067474 400.34062744 360.75134949 399.36875488 360.75204468 398.36743164 C360.73390638 381.84293446 359.94594335 365.68003704 357.5 349.3125 C357.24259033 347.57540771 357.24259033 347.57540771 356.97998047 345.80322266 C354.35016554 328.64479655 350.46278106 311.94135751 345.5 295.3125 C345.09442871 293.9510083 345.09442871 293.9510083 344.68066406 292.56201172 C331.94969141 250.62148186 310.70075954 211.56859521 283.5 177.3125 C282.39205078 175.91257813 282.39205078 175.91257813 281.26171875 174.484375 C276.45309645 168.50562614 271.3907546 162.81734796 266.16796875 157.203125 C263.83310178 154.6734009 261.57054953 152.09783222 259.3125 149.5 C249.70832403 138.80953483 238.79466153 129.16904214 227.5 120.3125 C226.17538001 119.24659219 224.85119658 118.18014173 223.52734375 117.11328125 C169.92047519 74.26488458 103.69327945 48.08399263 35.5 41.3125 C34.11059204 41.17110596 34.11059204 41.17110596 32.69311523 41.02685547 C-65.91422433 32.17555032 -163.53994971 65.28782036 -260.79296875 151.69921875 Z " fill="#4B1D94" transform="translate(399.5,-0.3125)"/>
<path d="M0 0 C31.40223263 -0.40259273 31.40223263 -0.40259273 40 6 C43.83136117 11.10848156 44.4203092 15.69536205 44 22 C42.83238506 27.5381369 40.49713387 31.03986586 36.3046875 34.7734375 C28.78834612 38.77365986 20.21461527 38.24820543 11.9375 38.125 C6.0284375 38.063125 6.0284375 38.063125 0 38 C0 25.46 0 12.92 0 0 Z " fill="#4B1D94" transform="translate(209,302)"/>
<path d="M0 0 C6.1565625 -0.0928125 6.1565625 -0.0928125 12.4375 -0.1875 C13.71294678 -0.21481201 14.98839355 -0.24212402 16.30249023 -0.27026367 C24.54276584 -0.33001772 31.61752824 0.04033721 38 5.625 C40.87672982 10.47948157 41.62030793 14.65033715 40.58984375 20.21484375 C39.44722485 23.88901349 38.26516922 25.76008499 35.375 28.375 C27.48115323 32.17574104 19.56612735 32.26542412 10.9375 32.125 C7.328125 32.08375 3.71875 32.0425 0 32 C0 21.44 0 10.88 0 0 Z " fill="#4B1D95" transform="translate(209,248)"/>
<path d="M0 0 C11 0 11 0 14.5 1.5 C19.15229124 6.15229124 20.15745682 10.9655905 20.375 17.4375 C20.15318895 24.09183158 19.2536016 29.69005836 14.5 34.5625 C11 36 11 36 0 36 C0 24.12 0 12.24 0 0 Z " fill="#4B1D94" transform="translate(273,406)"/>
<path d="M0 0 C13.12903226 0 13.12903226 0 17 3 C20.97711485 9.09824277 20.75101019 15.91779923 20 23 C19.24322849 26.24402719 18.31959218 28.58117393 16 31 C10.64610794 34.0386955 6.19400898 34 0 34 C0 22.78 0 11.56 0 0 Z " fill="#4B1C94" transform="translate(341,406)"/>
<path d="" fill="#492492" transform="translate(0,0)"/>
<path d="" fill="#492492" transform="translate(0,0)"/>
<path d="" fill="#4B1E96" transform="translate(0,0)"/>
<path d="" fill="#4B1E96" transform="translate(0,0)"/>
<path d="" fill="#4A1B94" transform="translate(0,0)"/>
<path d="" fill="#4A1B94" transform="translate(0,0)"/>
</svg>
