<svg xmlns="http://www.w3.org/2000/svg" xmlns:xlink="http://www.w3.org/1999/xlink" width="464" zoomAndPan="magnify" viewBox="0 0 348 240.749995" height="321" preserveAspectRatio="xMidYMid meet" version="1.0"><defs><g/><clipPath id="83553ac48b"><path d="M 154 28 L 283 28 L 283 230 L 154 230 Z M 154 28 " clip-rule="nonzero"/></clipPath><clipPath id="b57ea699f0"><path d="M 347.25 137.054688 L 274.875 239.957031 L 99.199219 116.402344 L 171.574219 13.496094 Z M 347.25 137.054688 " clip-rule="nonzero"/></clipPath><clipPath id="cf99ed5cc6"><path d="M 274.945312 239.855469 L 347.320312 136.953125 L 171.644531 13.398438 L 99.269531 116.300781 Z M 274.945312 239.855469 " clip-rule="nonzero"/></clipPath></defs><g clip-path="url(#83553ac48b)"><g clip-path="url(#b57ea699f0)"><g clip-path="url(#cf99ed5cc6)"><path fill="#4c1d95" d="M 154.816406 37.496094 L 155.332031 38.066406 C 164.890625 29.476562 183.289062 25.28125 201.105469 36.371094 C 215.480469 45.320312 221.324219 57.332031 226.484375 67.929688 C 227.058594 69.117188 227.632812 70.292969 228.210938 71.449219 C 219.359375 72.441406 209.5 75.496094 200.015625 80.214844 C 189.480469 85.460938 180.507812 92.15625 174.75 99.066406 C 171.789062 102.621094 167.894531 109.5625 166.664062 117.4375 C 165.632812 124.027344 166.222656 133.457031 174.875 140.976562 C 181.085938 146.375 188.019531 148.980469 196.074219 148.941406 C 203.085938 148.910156 210.066406 146.875 216.226562 145.078125 C 224.046875 142.796875 230.796875 140.828125 236.128906 142.933594 C 246.601562 147.070312 243.289062 156.996094 239.089844 169.566406 C 233.925781 185.039062 227.492188 204.292969 246.304688 219.257812 C 251.132812 223.097656 256.734375 225.910156 262.949219 227.617188 C 268.867188 229.242188 275.351562 229.871094 282.222656 229.484375 L 282.179688 228.71875 C 268.277344 229.496094 256.039062 226.015625 246.78125 218.652344 C 228.394531 204.027344 234.730469 185.054688 239.820312 169.808594 C 243.976562 157.367188 247.5625 146.621094 236.414062 142.21875 C 230.835938 140.015625 223.964844 142.019531 216.011719 144.339844 C 203.34375 148.03125 188.988281 152.21875 175.378906 140.398438 C 160.449219 127.425781 168.90625 107.277344 175.339844 99.558594 C 186.820312 85.777344 209.570312 74.214844 228.578125 72.179688 C 231.347656 77.664062 234.289062 82.691406 238.570312 86.457031 C 245.699219 92.730469 252.402344 92.605469 255.980469 90.59375 C 257.824219 89.554688 259.085938 87.78125 259.355469 85.84375 C 259.574219 84.28125 259.242188 81.820312 256.414062 78.96875 C 253.535156 76.070312 249.898438 73.9375 245.601562 72.636719 C 241.625 71.429688 237.078125 70.925781 232.085938 71.144531 C 231.082031 71.1875 230.0625 71.261719 229.027344 71.363281 C 228.40625 70.125 227.792969 68.867188 227.175781 67.59375 C 221.972656 56.902344 216.074219 44.78125 201.511719 35.71875 C 193.078125 30.46875 183.777344 28.203125 174.613281 29.171875 C 167.03125 29.96875 159.8125 33.003906 154.816406 37.496094 Z M 257.652344 88.085938 C 257.132812 88.820312 256.433594 89.453125 255.601562 89.921875 C 252.246094 91.8125 245.90625 91.886719 239.078125 85.878906 C 234.964844 82.265625 232.09375 77.410156 229.398438 72.097656 C 230.316406 72.015625 231.222656 71.953125 232.121094 71.914062 C 242.28125 71.46875 250.492188 74.097656 255.867188 79.511719 C 257.929688 81.589844 258.871094 83.742188 258.59375 85.738281 C 258.480469 86.574219 258.148438 87.375 257.652344 88.085938 Z M 257.652344 88.085938 " fill-opacity="1" fill-rule="nonzero"/></g></g></g><g fill="#4c1d95" fill-opacity="1"><g transform="translate(21.588669, 45.153757)"><g><path d="M 17.398438 -4.835938 C 16.59375 -4.90625 15.714844 -4.945312 14.871094 -4.90625 C 12.34375 -4.761719 9.816406 -4.140625 7.398438 -3.40625 C 9.230469 -8.058594 10.144531 -13.003906 11.71875 -17.765625 C 12.488281 -20.070312 13.332031 -22.636719 14.832031 -24.578125 C 15.164062 -25.015625 15.96875 -26.003906 16.664062 -25.820312 C 17.25 -25.640625 16.957031 -24.136719 16.847656 -23.734375 C 16.996094 -24.246094 17.617188 -26.335938 16.117188 -25.785156 C 14.503906 -25.199219 13.550781 -22.855469 12.929688 -21.425781 C 13.480469 -22.746094 14.101562 -24.210938 15.125 -25.234375 C 15.566406 -25.640625 16.628906 -26.445312 17.105469 -25.75 C 17.542969 -25.089844 16.996094 -23.585938 16.8125 -22.964844 C 16.445312 -21.757812 15.96875 -20.546875 15.421875 -19.414062 C 15.421875 -19.484375 15.894531 -20.65625 15.859375 -20.65625 C 15.714844 -20.695312 14.429688 -18.019531 14.429688 -17.984375 L 14.46875 -17.984375 C 14.429688 -17.910156 14.359375 -17.875 14.359375 -17.875 C 14.066406 -17.324219 14.652344 -17.066406 15.125 -17.03125 C 15.859375 -16.957031 16.664062 -17.324219 17.25 -17.765625 C 18.789062 -18.9375 20.109375 -21.683594 20 -23.625 C 19.886719 -25.199219 19.300781 -26.335938 17.765625 -27.175781 C 16.921875 -27.652344 15.859375 -28.019531 14.832031 -27.945312 C 13.367188 -27.875 12.234375 -26.921875 11.425781 -25.75 C 10.804688 -24.796875 10.402344 -23.769531 10.035156 -22.746094 L 9.523438 -21.207031 C 9.375 -20.804688 8.972656 -20.144531 9.046875 -19.742188 C 9.046875 -19.667969 9.304688 -20.21875 9.339844 -20.253906 C 9.121094 -19.558594 8.9375 -18.828125 8.71875 -18.09375 C 8.679688 -18.128906 8.828125 -18.644531 8.789062 -18.644531 C 8.605469 -18.644531 7.984375 -16.300781 7.910156 -16.117188 C 7.546875 -14.796875 7.140625 -13.441406 6.996094 -12.050781 C 6.847656 -10.769531 6.667969 -9.597656 6.335938 -8.351562 C 6.191406 -7.65625 5.96875 -6.996094 5.785156 -6.300781 C 5.675781 -5.824219 5.089844 -4.503906 5.273438 -4.027344 C 5.3125 -3.992188 5.347656 -3.992188 5.382812 -4.027344 C 5.273438 -3.699219 5.238281 -3.40625 5.128906 -3.113281 C 5.128906 -3.113281 5.3125 -3.882812 5.273438 -3.882812 C 5.089844 -3.773438 5.054688 -2.894531 5.054688 -2.929688 C 4.835938 -2.34375 4.140625 -2.34375 3.589844 -2.085938 C 3.113281 -1.90625 2.710938 -1.613281 2.34375 -1.246094 C 1.574219 -0.476562 0.585938 0.878906 0.953125 2.085938 C 1.207031 2.964844 2.199219 3.1875 3.003906 3.078125 C 3.371094 3.003906 4.503906 2.636719 4.433594 2.160156 C 4.394531 2.085938 3.847656 2.453125 3.664062 2.527344 C 3.917969 2.34375 4.210938 2.085938 4.433594 1.867188 C 4.394531 1.976562 5.128906 1.171875 5.199219 1.0625 C 5.605469 0.511719 6.078125 0.292969 6.667969 0 C 7.65625 -0.550781 8.679688 -1.0625 9.742188 -1.429688 C 12.011719 -2.234375 14.503906 -2.308594 16.664062 -3.40625 C 17.214844 -3.664062 18.679688 -4.6875 17.398438 -4.835938 Z M 9.667969 -20.765625 C 10.183594 -22.269531 10.839844 -23.660156 11.792969 -24.941406 C 12.5625 -26.003906 13.441406 -26.664062 14.613281 -26.921875 C 11.683594 -26.1875 10.660156 -22.160156 9.523438 -19.667969 C 9.15625 -18.789062 8.828125 -17.910156 8.535156 -16.957031 C 8.863281 -18.238281 9.265625 -19.484375 9.667969 -20.765625 Z M 11.609375 -17.910156 L 11.609375 -17.945312 L 11.609375 -17.875 L 10.769531 -15.347656 C 11.023438 -16.226562 11.316406 -17.066406 11.609375 -17.945312 Z M 3.625 2.5625 C 3.625 2.5625 3.625 2.527344 3.664062 2.527344 Z M 3.625 2.5625 "/></g></g></g><g fill="#4c1d95" fill-opacity="1"><g transform="translate(39.864063, 45.153757)"><g><path d="M 17.324219 -8.9375 C 17.214844 -9.632812 15.53125 -7.691406 15.457031 -7.617188 C 14.394531 -6.484375 13.367188 -5.238281 12.125 -4.25 C 11.539062 -3.808594 11.28125 -3.554688 11.316406 -4.433594 C 11.355469 -5.199219 11.648438 -6.007812 11.867188 -6.703125 C 11.976562 -7.070312 12.710938 -8.460938 12.488281 -8.71875 C 12.453125 -8.753906 12.378906 -8.644531 12.308594 -8.570312 C 12.820312 -9.597656 14.066406 -11.355469 12.417969 -11.832031 C 10.546875 -12.34375 9.597656 -10.328125 8.789062 -9.121094 C 8.019531 -8.019531 7.289062 -6.960938 6.410156 -5.96875 C 5.75 -5.199219 4.726562 -3.734375 3.664062 -3.441406 C 2.671875 -3.113281 3.332031 -4.726562 3.480469 -5.273438 C 3.589844 -5.566406 4.90625 -8.972656 4.980469 -8.9375 C 4.90625 -8.9375 4.835938 -8.898438 4.761719 -8.789062 C 5.164062 -9.667969 5.605469 -10.546875 6.078125 -11.390625 C 5.96875 -11.171875 5.859375 -10.804688 5.859375 -10.804688 C 6.042969 -10.769531 6.921875 -12.5625 6.847656 -12.5625 C 6.777344 -12.527344 6.703125 -12.453125 6.628906 -12.34375 C 6.921875 -12.855469 7.289062 -13.113281 6.628906 -13.625 C 5.96875 -14.136719 4.796875 -14.246094 4.140625 -13.660156 C 3.332031 -13.003906 2.820312 -11.832031 2.417969 -10.914062 C 2.160156 -10.402344 1.722656 -10.109375 1.464844 -9.523438 C 0.953125 -8.386719 0.660156 -7.253906 0.367188 -6.078125 C 0.0742188 -4.945312 -0.109375 -3.773438 0.0742188 -2.601562 C 0.183594 -2.085938 0.367188 -1.5 0.769531 -1.136719 C 0.878906 -1.0625 1.941406 -0.660156 1.867188 -0.914062 C 1.792969 -0.914062 1.722656 -0.914062 1.683594 -0.953125 C 2.085938 -0.953125 2.492188 -1.136719 2.855469 -1.355469 C 2.894531 -1.320312 2.5625 -1.171875 2.5625 -1.136719 C 2.929688 -0.660156 5.714844 -3.480469 5.96875 -3.808594 C 6.886719 -4.980469 7.800781 -6.117188 8.753906 -7.253906 C 8.277344 -5.96875 7.472656 -4.210938 8.242188 -2.820312 C 8.679688 -2.085938 9.523438 -1.683594 10.328125 -1.757812 C 12.050781 -1.867188 13.589844 -3.734375 14.652344 -4.871094 C 15.347656 -5.640625 16.042969 -6.445312 16.554688 -7.324219 C 16.773438 -7.691406 17.359375 -8.496094 17.324219 -8.9375 Z M 11.757812 -8.203125 C 11.683594 -7.984375 11.648438 -7.691406 11.539062 -7.507812 C 11.539062 -7.472656 11.5 -7.433594 11.464844 -7.398438 C 11.5 -7.433594 11.5 -7.472656 11.5 -7.507812 C 11.207031 -8.425781 12.308594 -9.597656 12.671875 -10.511719 C 12.378906 -9.707031 12.011719 -8.972656 11.757812 -8.203125 Z M 3.039062 -3.480469 C 2.820312 -4.542969 3.589844 -6.007812 3.992188 -6.996094 C 3.480469 -5.566406 2.964844 -3.808594 3.039062 -3.480469 Z M 8.753906 -7.070312 C 8.753906 -7.214844 8.789062 -7.324219 8.898438 -7.398438 C 8.828125 -7.289062 8.789062 -7.179688 8.753906 -7.070312 Z M 8.753906 -7.070312 "/></g></g></g><g fill="#4c1d95" fill-opacity="1"><g transform="translate(54.513678, 45.153757)"><g><path d="M 16.226562 -8.71875 C 16.1875 -9.011719 15.894531 -9.304688 15.601562 -9.191406 C 15.238281 -9.082031 14.613281 -7.875 14.394531 -7.546875 C 13.84375 -6.777344 13.257812 -6.007812 12.671875 -5.238281 C 12.527344 -5.054688 11.390625 -3.40625 11.390625 -3.40625 C 11.5 -3.441406 11.574219 -3.515625 11.648438 -3.554688 C 10.730469 -2.453125 9.304688 -1.28125 8.132812 -0.367188 C 7.765625 -0.0351562 6.886719 0.953125 6.261719 0.621094 C 5.675781 0.367188 5.566406 -0.953125 5.492188 -1.5 C 5.421875 -2.199219 5.605469 -2.34375 6.007812 -2.855469 C 6.261719 -3.222656 6.445312 -3.625 6.667969 -4.027344 C 6.847656 -4.359375 9.046875 -7.289062 9.890625 -8.167969 C 9.375 -7.691406 8.460938 -6.703125 8.3125 -6.554688 C 9.121094 -7.507812 10.035156 -8.679688 11.207031 -9.191406 C 11.207031 -9.191406 10.878906 -8.972656 10.878906 -8.9375 C 10.914062 -8.898438 11.757812 -9.121094 11.71875 -9.265625 C 11.648438 -9.304688 11.609375 -9.304688 11.574219 -9.304688 C 11.792969 -9.375 11.941406 -9.15625 12.160156 -9.375 C 12.527344 -9.78125 11.941406 -10.253906 11.574219 -10.292969 C 11.464844 -10.328125 11.355469 -10.292969 11.246094 -10.292969 C 10.621094 -10.253906 10.367188 -9.816406 9.960938 -9.597656 C 9.523438 -9.375 9.304688 -9.449219 8.863281 -8.972656 C 8.570312 -8.679688 6.484375 -5.933594 6.554688 -5.859375 C 6.628906 -5.859375 6.667969 -5.898438 6.703125 -5.933594 L 6.335938 -5.421875 C 6.300781 -5.492188 6.445312 -5.566406 6.375 -5.605469 C 6.226562 -5.675781 5.421875 -4.613281 5.382812 -4.578125 C 5.382812 -4.835938 5.492188 -7.582031 5.492188 -7.582031 C 5.273438 -7.582031 5.457031 -4.6875 5.273438 -4.394531 C 5.273438 -6.152344 5.382812 -7.910156 5.566406 -9.667969 C 5.566406 -9.667969 5.53125 -9.046875 5.566406 -9.046875 C 5.714844 -9.046875 5.824219 -10.4375 5.75 -10.4375 C 5.675781 -10.402344 5.640625 -10.328125 5.640625 -10.292969 C 5.675781 -10.585938 5.933594 -10.695312 5.824219 -11.0625 C 5.675781 -11.464844 5.238281 -11.648438 4.871094 -11.683594 C 4.359375 -11.757812 3.847656 -11.574219 3.441406 -11.316406 C 2.746094 -10.953125 2.636719 -10.546875 2.378906 -9.925781 C 2.199219 -9.414062 2.015625 -9.046875 1.976562 -8.386719 C 1.941406 -7.65625 2.015625 -6.886719 2.050781 -6.117188 C 2.050781 -5.785156 2.453125 -2.015625 2.601562 -2.050781 C 2.636719 -2.125 2.636719 -2.199219 2.636719 -2.269531 L 2.855469 -1.355469 C 2.785156 -1.355469 2.785156 -1.574219 2.710938 -1.574219 C 2.671875 -1.539062 2.785156 -1.0625 2.785156 -0.988281 C 2.710938 -0.695312 2.527344 -0.550781 2.308594 -0.292969 C 1.90625 0.183594 1.574219 0.695312 1.171875 1.136719 C 0.804688 1.464844 0.441406 1.792969 0 2.015625 C -0.21875 2.125 -0.585938 2.199219 -0.734375 2.417969 C -1.320312 3.222656 -0.109375 3.625 0.511719 3.371094 C 1.683594 2.929688 2.636719 1.683594 3.332031 0.695312 C 3.808594 1.613281 5.019531 2.417969 6.007812 2.492188 C 6.152344 2.492188 6.226562 2.527344 6.335938 2.492188 C 6.554688 2.492188 6.738281 2.417969 6.921875 2.34375 C 6.960938 2.308594 7.582031 1.867188 7.363281 1.90625 L 7.546875 1.832031 L 7.472656 1.90625 C 7.546875 1.941406 8.351562 1.28125 8.425781 1.207031 C 9.011719 0.914062 9.523438 0.585938 10.035156 0.148438 C 11.023438 -0.769531 11.832031 -1.90625 12.636719 -2.929688 C 13.480469 -3.992188 14.210938 -4.980469 14.871094 -6.117188 C 15.308594 -6.847656 16.261719 -7.726562 16.226562 -8.71875 Z M 5.347656 -2.050781 L 5.347656 -1.792969 C 5.382812 -1.464844 5.421875 -1.136719 5.492188 -0.804688 C 5.382812 -1.207031 5.199219 -1.90625 5.347656 -2.050781 Z M 5.347656 -2.050781 "/></g></g></g><g fill="#4c1d95" fill-opacity="1"><g transform="translate(68.064573, 45.153757)"><g><path d="M 17.324219 -8.9375 C 17.214844 -9.632812 15.53125 -7.691406 15.457031 -7.617188 C 14.394531 -6.484375 13.367188 -5.238281 12.125 -4.25 C 11.539062 -3.808594 11.28125 -3.554688 11.316406 -4.433594 C 11.355469 -5.199219 11.648438 -6.007812 11.867188 -6.703125 C 11.976562 -7.070312 12.710938 -8.460938 12.488281 -8.71875 C 12.453125 -8.753906 12.378906 -8.644531 12.308594 -8.570312 C 12.820312 -9.597656 14.066406 -11.355469 12.417969 -11.832031 C 10.546875 -12.34375 9.597656 -10.328125 8.789062 -9.121094 C 8.019531 -8.019531 7.289062 -6.960938 6.410156 -5.96875 C 5.75 -5.199219 4.726562 -3.734375 3.664062 -3.441406 C 2.671875 -3.113281 3.332031 -4.726562 3.480469 -5.273438 C 3.589844 -5.566406 4.90625 -8.972656 4.980469 -8.9375 C 4.90625 -8.9375 4.835938 -8.898438 4.761719 -8.789062 C 5.164062 -9.667969 5.605469 -10.546875 6.078125 -11.390625 C 5.96875 -11.171875 5.859375 -10.804688 5.859375 -10.804688 C 6.042969 -10.769531 6.921875 -12.5625 6.847656 -12.5625 C 6.777344 -12.527344 6.703125 -12.453125 6.628906 -12.34375 C 6.921875 -12.855469 7.289062 -13.113281 6.628906 -13.625 C 5.96875 -14.136719 4.796875 -14.246094 4.140625 -13.660156 C 3.332031 -13.003906 2.820312 -11.832031 2.417969 -10.914062 C 2.160156 -10.402344 1.722656 -10.109375 1.464844 -9.523438 C 0.953125 -8.386719 0.660156 -7.253906 0.367188 -6.078125 C 0.0742188 -4.945312 -0.109375 -3.773438 0.0742188 -2.601562 C 0.183594 -2.085938 0.367188 -1.5 0.769531 -1.136719 C 0.878906 -1.0625 1.941406 -0.660156 1.867188 -0.914062 C 1.792969 -0.914062 1.722656 -0.914062 1.683594 -0.953125 C 2.085938 -0.953125 2.492188 -1.136719 2.855469 -1.355469 C 2.894531 -1.320312 2.5625 -1.171875 2.5625 -1.136719 C 2.929688 -0.660156 5.714844 -3.480469 5.96875 -3.808594 C 6.886719 -4.980469 7.800781 -6.117188 8.753906 -7.253906 C 8.277344 -5.96875 7.472656 -4.210938 8.242188 -2.820312 C 8.679688 -2.085938 9.523438 -1.683594 10.328125 -1.757812 C 12.050781 -1.867188 13.589844 -3.734375 14.652344 -4.871094 C 15.347656 -5.640625 16.042969 -6.445312 16.554688 -7.324219 C 16.773438 -7.691406 17.359375 -8.496094 17.324219 -8.9375 Z M 11.757812 -8.203125 C 11.683594 -7.984375 11.648438 -7.691406 11.539062 -7.507812 C 11.539062 -7.472656 11.5 -7.433594 11.464844 -7.398438 C 11.5 -7.433594 11.5 -7.472656 11.5 -7.507812 C 11.207031 -8.425781 12.308594 -9.597656 12.671875 -10.511719 C 12.378906 -9.707031 12.011719 -8.972656 11.757812 -8.203125 Z M 3.039062 -3.480469 C 2.820312 -4.542969 3.589844 -6.007812 3.992188 -6.996094 C 3.480469 -5.566406 2.964844 -3.808594 3.039062 -3.480469 Z M 8.753906 -7.070312 C 8.753906 -7.214844 8.789062 -7.324219 8.898438 -7.398438 C 8.828125 -7.289062 8.789062 -7.179688 8.753906 -7.070312 Z M 8.753906 -7.070312 "/></g></g></g><g fill="#4c1d95" fill-opacity="1"><g transform="translate(82.714187, 45.153757)"><g><path d="M 14.652344 -9.339844 C 14.136719 -8.789062 13.808594 -7.875 13.40625 -7.214844 C 12.78125 -6.152344 12.160156 -5.128906 11.5 -4.101562 C 10.253906 -2.125 9.011719 -0.109375 7.507812 1.683594 C 6.886719 2.453125 5.566406 4.320312 4.320312 4.175781 C 3.40625 4.027344 3.40625 2.453125 3.40625 1.757812 C 3.40625 1.171875 3.441406 0.585938 3.515625 0.0351562 C 3.554688 -0.292969 3.847656 -1.390625 3.664062 -1.683594 L 3.371094 -0.585938 C 3.40625 -1.027344 3.480469 -1.5 3.589844 -1.941406 C 3.554688 -2.015625 3.882812 -3.039062 3.957031 -3.371094 C 4.140625 -4.101562 4.320312 -4.835938 4.542969 -5.566406 C 4.726562 -6.300781 4.90625 -6.996094 5.128906 -7.691406 C 5.3125 -8.351562 5.566406 -8.679688 5.96875 -9.191406 C 7.617188 -11.246094 9.121094 -13.480469 10.511719 -15.714844 C 11.023438 -16.554688 11.355469 -17.289062 11.976562 -17.984375 C 12.894531 -18.9375 13.515625 -20.363281 14.101562 -21.535156 C 15.089844 -23.441406 16.410156 -26.078125 16.1875 -28.3125 L 16.1875 -28.496094 L 16.152344 -28.53125 C 15.933594 -29.960938 14.613281 -31.644531 13.003906 -31.132812 C 12.160156 -30.875 11.539062 -29.996094 11.023438 -29.375 L 10.183594 -28.238281 C 10 -28.019531 9.742188 -27.46875 9.558594 -27.175781 L 9.597656 -27.214844 L 8.425781 -25.199219 L 8.71875 -25.820312 C 8.535156 -25.859375 7.726562 -24.285156 7.617188 -24.101562 C 7.214844 -23.40625 6.847656 -22.707031 6.519531 -22.011719 C 5.785156 -20.546875 5.054688 -19.046875 4.578125 -17.472656 C 4.066406 -15.894531 3.480469 -14.359375 2.929688 -12.78125 C 2.636719 -11.941406 2.34375 -11.0625 2.085938 -10.21875 C 1.867188 -9.523438 1.355469 -8.386719 1.464844 -7.65625 L 1.574219 -7.65625 C 1.464844 -7.398438 1.390625 -7.140625 1.320312 -6.886719 C 1.355469 -7.105469 1.355469 -7.363281 1.390625 -7.433594 C 1.207031 -7.179688 1.246094 -6.300781 1.207031 -6.226562 C 0.734375 -4.25 0.183594 -2.269531 0.0351562 -0.21875 C -0.0742188 1.722656 -0.0742188 4.285156 1.464844 5.714844 C 3.1875 7.289062 5.164062 6.226562 6.59375 4.871094 C 8.277344 3.222656 9.707031 1.28125 11.023438 -0.621094 C 12.234375 -2.378906 13.1875 -4.25 14.285156 -6.007812 C 14.722656 -6.738281 15.199219 -7.472656 15.421875 -8.277344 C 15.566406 -8.863281 15.492188 -10.21875 14.652344 -9.339844 Z M 10.074219 -22.453125 C 10.804688 -24.210938 11.539062 -26.003906 12.5625 -27.652344 C 12.820312 -28.054688 14.46875 -30.253906 14.394531 -28.3125 L 14.394531 -28.277344 C 14.320312 -26.226562 13.003906 -24.0625 12.125 -22.304688 L 10.585938 -19.449219 C 10.074219 -18.570312 9.191406 -17.472656 8.898438 -16.519531 C 9.121094 -17.105469 9.78125 -17.945312 10.109375 -18.496094 C 10.660156 -19.414062 11.132812 -20.328125 11.648438 -21.242188 C 12.488281 -22.855469 13.40625 -24.539062 14.027344 -26.296875 C 12.378906 -21.390625 9.304688 -16.8125 6.59375 -12.453125 C 7.65625 -15.675781 8.71875 -19.191406 10.074219 -22.453125 Z M 8.898438 -25.015625 C 9.265625 -25.710938 9.925781 -26.296875 10.292969 -26.957031 C 9.523438 -25.417969 8.570312 -24.027344 7.765625 -22.5625 C 7.765625 -22.597656 7.765625 -22.671875 7.800781 -22.707031 C 8.132812 -23.515625 8.496094 -24.246094 8.898438 -25.015625 Z M 1.976562 -6.078125 C 1.941406 -6.007812 1.941406 -5.96875 1.941406 -5.96875 C 1.5 -4.945312 1.464844 -3.554688 1.246094 -2.453125 C 1.207031 -2.199219 1.136719 -1.976562 1.136719 -1.722656 L 1.136719 -1.832031 L 1.027344 -0.660156 C 1.097656 -1.976562 1.246094 -3.332031 1.5 -4.613281 L 1.5 -4.578125 C 1.613281 -5.421875 1.792969 -6.191406 1.941406 -6.191406 C 2.015625 -6.226562 2.015625 -6.117188 1.976562 -6.078125 Z M 1.976562 -6.078125 "/></g></g></g><g fill="#4c1d95" fill-opacity="1"><g transform="translate(95.679098, 45.153757)"><g><path d="M 9.597656 -9.011719 C 9.523438 -9.488281 9.011719 -9.339844 8.753906 -9.15625 C 8.425781 -8.9375 6.59375 -6.519531 6.738281 -6.335938 C 6.847656 -6.335938 6.921875 -6.335938 6.996094 -6.410156 C 6.484375 -5.785156 5.53125 -5.089844 4.835938 -4.542969 C 4.433594 -4.210938 3.441406 -3.296875 2.855469 -3.589844 C 1.613281 -4.210938 4.140625 -8.605469 4.027344 -8.644531 C 3.917969 -8.679688 3.003906 -6.628906 2.820312 -6.152344 C 3.261719 -7.433594 3.847656 -8.71875 4.542969 -9.851562 C 4.503906 -9.742188 4.394531 -9.558594 4.46875 -9.558594 C 4.542969 -9.523438 5.089844 -10.292969 4.980469 -10.367188 C 4.945312 -10.367188 4.871094 -10.367188 4.835938 -10.328125 C 4.945312 -10.4375 5.128906 -10.476562 5.128906 -10.695312 C 5.128906 -11.0625 4.285156 -11.425781 3.992188 -11.539062 C 3.296875 -11.832031 2.601562 -11.902344 2.050781 -11.539062 C 1.320312 -11.097656 1.171875 -10.21875 0.878906 -9.449219 C 0.804688 -9.230469 0.109375 -6.628906 0.257812 -6.59375 C 0.328125 -6.628906 0.328125 -6.667969 0.367188 -6.738281 L 0.257812 -6.078125 C 0.21875 -6.078125 0.292969 -6.261719 0.21875 -6.261719 C -0.0742188 -6.261719 0 -4.945312 0.0351562 -4.761719 C 0.183594 -4.101562 0.695312 -3.625 1.097656 -3.078125 C 1.320312 -2.746094 1.539062 -2.417969 1.867188 -2.199219 C 2.308594 -1.867188 2.015625 -2.199219 2.308594 -2.050781 L 2.234375 -2.050781 C 2.199219 -1.832031 3.589844 -1.464844 3.882812 -1.5 C 5.164062 -1.792969 6.078125 -3.371094 6.8125 -4.359375 C 7.507812 -5.238281 8.09375 -6.117188 8.71875 -7.03125 C 9.082031 -7.507812 9.742188 -8.3125 9.597656 -9.011719 Z M 3.1875 -13.625 C 3.261719 -13.515625 3.148438 -13.367188 3.40625 -13.222656 C 3.664062 -13.113281 3.808594 -13.257812 4.027344 -13.332031 C 4.46875 -13.515625 4.796875 -13.992188 5.128906 -14.285156 C 5.238281 -14.359375 5.019531 -14.320312 5.019531 -14.320312 C 5.492188 -14.761719 5.089844 -14.246094 5.53125 -14.503906 C 5.96875 -14.796875 6.042969 -15.273438 6.410156 -15.675781 C 5.96875 -15.492188 5.640625 -15.238281 5.347656 -14.871094 C 4.980469 -14.394531 4.726562 -14.175781 4.320312 -13.917969 C 4.761719 -14.246094 4.980469 -14.578125 5.347656 -15.164062 C 5.457031 -15.273438 5.566406 -15.347656 5.714844 -15.421875 C 5.605469 -15.53125 5.605469 -15.640625 5.75 -15.75 C 5.859375 -15.933594 6.078125 -16.007812 6.191406 -16.1875 C 6.375 -16.445312 6.335938 -16.773438 6.554688 -17.03125 C 6.738281 -17.179688 6.996094 -17.289062 7.140625 -17.433594 C 7.472656 -17.726562 7.839844 -18.277344 7.691406 -18.753906 C 7.546875 -19.191406 7.179688 -19.742188 6.777344 -20 C 6.300781 -20.253906 5.640625 -20.363281 5.128906 -20.144531 C 5.019531 -20.109375 4.578125 -20 4.726562 -19.851562 C 4.761719 -19.777344 4.796875 -19.777344 4.871094 -19.777344 C 4.542969 -19.523438 3.992188 -19.082031 4.761719 -18.789062 C 4.6875 -18.714844 4.761719 -18.386719 4.761719 -18.351562 C 4.726562 -18.09375 4.210938 -16.738281 3.882812 -16.078125 L 4.320312 -16.738281 C 4.066406 -16.1875 3.773438 -15.675781 3.441406 -15.238281 C 3.664062 -15.714844 3.222656 -15.164062 3.222656 -15.054688 C 2.820312 -15.238281 2.929688 -14.101562 2.964844 -13.992188 C 2.964844 -13.953125 3.1875 -13.625 3.1875 -13.625 Z M 2.492188 -4.90625 L 2.492188 -4.871094 L 2.417969 -4.652344 L 2.492188 -4.945312 C 2.527344 -4.980469 2.527344 -4.980469 2.492188 -4.90625 Z M 3.699219 -15.785156 C 3.699219 -15.785156 3.773438 -15.859375 3.847656 -16.007812 Z M 3.332031 -15.089844 C 3.332031 -15.054688 3.332031 -15.054688 3.296875 -15.015625 C 3.296875 -15.015625 3.296875 -15.054688 3.261719 -15.054688 C 3.296875 -15.054688 3.296875 -15.054688 3.332031 -15.089844 Z M 3.332031 -15.089844 "/></g></g></g><g fill="#4c1d95" fill-opacity="1"><g transform="translate(102.60104, 45.153757)"><g><path d="M 17.875 -8.753906 C 17.726562 -10.585938 15.089844 -7.289062 14.945312 -7.179688 C 14.503906 -6.8125 14.101562 -6.484375 13.589844 -6.226562 C 13.074219 -6.007812 12.601562 -5.492188 12.085938 -5.421875 C 11.792969 -5.347656 11.0625 -5.3125 10.769531 -5.457031 C 10.144531 -5.785156 10.804688 -6.921875 10.988281 -7.433594 C 11.023438 -7.507812 10.878906 -7.472656 10.953125 -7.691406 L 11.171875 -7.839844 L 11.832031 -8.535156 C 12.453125 -9.191406 13.296875 -9.488281 13.953125 -10.074219 C 14.175781 -10.253906 14.320312 -10.402344 14.394531 -10.695312 C 14.539062 -11.867188 12.894531 -11.902344 12.195312 -11.425781 C 11.097656 -10.769531 10.402344 -9.707031 9.632812 -8.828125 L 8.425781 -7.582031 C 7.949219 -7.03125 7.289062 -6.554688 6.921875 -5.898438 C 6.777344 -5.675781 6.777344 -5.421875 6.554688 -5.164062 C 6.335938 -4.945312 6.078125 -4.726562 5.898438 -4.433594 C 5.457031 -3.882812 5.054688 -3.296875 4.652344 -2.710938 C 4.6875 -3.078125 4.394531 -5.785156 4.25 -7.289062 C 4.25 -6.847656 4.285156 -6.375 4.285156 -6.300781 L 4.210938 -7.398438 L 4.210938 -7.433594 C 4.140625 -8.058594 4.066406 -8.71875 3.882812 -9.339844 L 3.992188 -9.082031 C 4.027344 -9.046875 3.992188 -9.558594 3.957031 -9.667969 C 3.917969 -9.78125 3.734375 -9.742188 3.773438 -9.632812 C 3.664062 -9.851562 3.847656 -9.925781 3.625 -10.183594 C 3.332031 -10.585938 2.746094 -10.546875 2.34375 -10.402344 C 2.015625 -10.292969 1.722656 -10 1.574219 -9.890625 C 1.207031 -9.667969 0.84375 -9.597656 0.695312 -9.046875 C 0.585938 -8.605469 1.246094 -6.519531 1.136719 -6.335938 L 1.171875 -6.375 C 1.207031 -6.226562 1.207031 -6.078125 1.207031 -5.96875 C 1.171875 -5.96875 1.171875 -6.042969 1.171875 -6.078125 C 1.171875 -6.078125 0.988281 -5.640625 0.988281 -5.566406 C 0.878906 -5.054688 0.988281 -4.761719 1.027344 -4.285156 C 1.097656 -3.882812 1.027344 -3.554688 1.027344 -3.148438 C 1.027344 -2.785156 1.097656 -2.671875 1.136719 -2.5625 C 1.097656 -2.636719 1.171875 -1.976562 1.171875 -1.976562 C 1.136719 -1.613281 0.878906 -1.171875 0.878906 -0.734375 C 0.804688 0.441406 0.734375 2.015625 1.722656 2.746094 C 2.417969 3.261719 3.40625 3.40625 3.957031 2.5625 C 4.175781 2.199219 4.25 1.757812 4.285156 1.320312 C 4.503906 0.183594 4.90625 -0.621094 5.53125 -1.613281 C 6.628906 -3.40625 8.167969 -4.726562 9.375 -6.410156 C 9.265625 -2.746094 13.882812 -3.992188 15.457031 -5.785156 C 15.714844 -6.042969 15.894531 -6.375 16.152344 -6.628906 C 16.664062 -7.070312 17.140625 -7.546875 17.542969 -8.09375 C 17.691406 -8.277344 17.945312 -8.496094 17.875 -8.753906 Z M 3.992188 -7.105469 C 3.957031 -6.226562 3.917969 -5.347656 3.808594 -4.503906 C 3.847656 -5.199219 3.734375 -6.007812 3.773438 -6.738281 C 3.808594 -7.363281 3.808594 -7.910156 3.734375 -8.535156 C 3.699219 -8.828125 3.664062 -9.121094 3.554688 -9.375 C 3.515625 -9.523438 3.296875 -9.742188 3.296875 -9.890625 C 3.296875 -10 3.625 -9.523438 3.664062 -9.488281 C 3.773438 -9.304688 3.808594 -9.046875 3.847656 -8.828125 C 3.957031 -8.277344 4.027344 -7.691406 3.992188 -7.105469 Z M 3.773438 -3.917969 C 3.734375 -3.917969 3.699219 -3.957031 3.734375 -4.066406 C 3.808594 -4.066406 3.808594 -4.027344 3.773438 -3.917969 Z M 4.320312 -4.835938 L 4.320312 -5.382812 C 4.359375 -5.199219 4.359375 -5.019531 4.320312 -4.835938 Z M 4.210938 -7.765625 L 4.210938 -8.3125 C 4.175781 -8.3125 4.210938 -8.09375 4.210938 -7.765625 Z M 4.25 -7.324219 C 4.210938 -7.363281 4.210938 -7.363281 4.210938 -7.398438 L 4.210938 -7.472656 C 4.210938 -7.398438 4.25 -7.363281 4.25 -7.324219 Z M 4.25 -7.324219 "/></g></g></g><g fill="#4c1d95" fill-opacity="1"><g transform="translate(117.800017, 45.153757)"><g><path d="M 9.597656 -9.011719 C 9.523438 -9.488281 9.011719 -9.339844 8.753906 -9.15625 C 8.425781 -8.9375 6.59375 -6.519531 6.738281 -6.335938 C 6.847656 -6.335938 6.921875 -6.335938 6.996094 -6.410156 C 6.484375 -5.785156 5.53125 -5.089844 4.835938 -4.542969 C 4.433594 -4.210938 3.441406 -3.296875 2.855469 -3.589844 C 1.613281 -4.210938 4.140625 -8.605469 4.027344 -8.644531 C 3.917969 -8.679688 3.003906 -6.628906 2.820312 -6.152344 C 3.261719 -7.433594 3.847656 -8.71875 4.542969 -9.851562 C 4.503906 -9.742188 4.394531 -9.558594 4.46875 -9.558594 C 4.542969 -9.523438 5.089844 -10.292969 4.980469 -10.367188 C 4.945312 -10.367188 4.871094 -10.367188 4.835938 -10.328125 C 4.945312 -10.4375 5.128906 -10.476562 5.128906 -10.695312 C 5.128906 -11.0625 4.285156 -11.425781 3.992188 -11.539062 C 3.296875 -11.832031 2.601562 -11.902344 2.050781 -11.539062 C 1.320312 -11.097656 1.171875 -10.21875 0.878906 -9.449219 C 0.804688 -9.230469 0.109375 -6.628906 0.257812 -6.59375 C 0.328125 -6.628906 0.328125 -6.667969 0.367188 -6.738281 L 0.257812 -6.078125 C 0.21875 -6.078125 0.292969 -6.261719 0.21875 -6.261719 C -0.0742188 -6.261719 0 -4.945312 0.0351562 -4.761719 C 0.183594 -4.101562 0.695312 -3.625 1.097656 -3.078125 C 1.320312 -2.746094 1.539062 -2.417969 1.867188 -2.199219 C 2.308594 -1.867188 2.015625 -2.199219 2.308594 -2.050781 L 2.234375 -2.050781 C 2.199219 -1.832031 3.589844 -1.464844 3.882812 -1.5 C 5.164062 -1.792969 6.078125 -3.371094 6.8125 -4.359375 C 7.507812 -5.238281 8.09375 -6.117188 8.71875 -7.03125 C 9.082031 -7.507812 9.742188 -8.3125 9.597656 -9.011719 Z M 3.1875 -13.625 C 3.261719 -13.515625 3.148438 -13.367188 3.40625 -13.222656 C 3.664062 -13.113281 3.808594 -13.257812 4.027344 -13.332031 C 4.46875 -13.515625 4.796875 -13.992188 5.128906 -14.285156 C 5.238281 -14.359375 5.019531 -14.320312 5.019531 -14.320312 C 5.492188 -14.761719 5.089844 -14.246094 5.53125 -14.503906 C 5.96875 -14.796875 6.042969 -15.273438 6.410156 -15.675781 C 5.96875 -15.492188 5.640625 -15.238281 5.347656 -14.871094 C 4.980469 -14.394531 4.726562 -14.175781 4.320312 -13.917969 C 4.761719 -14.246094 4.980469 -14.578125 5.347656 -15.164062 C 5.457031 -15.273438 5.566406 -15.347656 5.714844 -15.421875 C 5.605469 -15.53125 5.605469 -15.640625 5.75 -15.75 C 5.859375 -15.933594 6.078125 -16.007812 6.191406 -16.1875 C 6.375 -16.445312 6.335938 -16.773438 6.554688 -17.03125 C 6.738281 -17.179688 6.996094 -17.289062 7.140625 -17.433594 C 7.472656 -17.726562 7.839844 -18.277344 7.691406 -18.753906 C 7.546875 -19.191406 7.179688 -19.742188 6.777344 -20 C 6.300781 -20.253906 5.640625 -20.363281 5.128906 -20.144531 C 5.019531 -20.109375 4.578125 -20 4.726562 -19.851562 C 4.761719 -19.777344 4.796875 -19.777344 4.871094 -19.777344 C 4.542969 -19.523438 3.992188 -19.082031 4.761719 -18.789062 C 4.6875 -18.714844 4.761719 -18.386719 4.761719 -18.351562 C 4.726562 -18.09375 4.210938 -16.738281 3.882812 -16.078125 L 4.320312 -16.738281 C 4.066406 -16.1875 3.773438 -15.675781 3.441406 -15.238281 C 3.664062 -15.714844 3.222656 -15.164062 3.222656 -15.054688 C 2.820312 -15.238281 2.929688 -14.101562 2.964844 -13.992188 C 2.964844 -13.953125 3.1875 -13.625 3.1875 -13.625 Z M 2.492188 -4.90625 L 2.492188 -4.871094 L 2.417969 -4.652344 L 2.492188 -4.945312 C 2.527344 -4.980469 2.527344 -4.980469 2.492188 -4.90625 Z M 3.699219 -15.785156 C 3.699219 -15.785156 3.773438 -15.859375 3.847656 -16.007812 Z M 3.332031 -15.089844 C 3.332031 -15.054688 3.332031 -15.054688 3.296875 -15.015625 C 3.296875 -15.015625 3.296875 -15.054688 3.261719 -15.054688 C 3.296875 -15.054688 3.296875 -15.054688 3.332031 -15.089844 Z M 3.332031 -15.089844 "/></g></g></g><g fill="#4c1d95" fill-opacity="1"><g transform="translate(124.721954, 45.153757)"><g><path d="M 15.164062 -8.71875 C 14.980469 -9.597656 14.46875 -9.011719 14.246094 -8.679688 C 13.734375 -8.058594 12.929688 -7.472656 12.308594 -6.886719 C 11.464844 -6.152344 10.621094 -5.382812 9.742188 -4.6875 C 9.304688 -4.320312 8.753906 -3.808594 8.203125 -3.625 C 8.132812 -3.589844 7.875 -3.554688 7.875 -3.515625 L 7.839844 -3.554688 C 7.839844 -3.554688 7.800781 -4.140625 7.839844 -4.175781 C 7.875 -4.652344 8.019531 -5.128906 8.167969 -5.566406 C 8.203125 -5.640625 8.605469 -6.886719 8.535156 -6.886719 L 8.351562 -6.667969 C 8.570312 -7.105469 8.863281 -7.546875 9.121094 -8.019531 C 8.535156 -7.472656 8.132812 -6.847656 7.839844 -6.078125 C 7.691406 -5.714844 7.289062 -5.054688 7.214844 -4.503906 C 7.289062 -5.3125 7.839844 -6.375 8.09375 -6.847656 C 8.460938 -7.617188 8.863281 -8.496094 9.339844 -9.230469 C 10.21875 -10.546875 12.125 -11.757812 11.539062 -13.589844 C 11.023438 -15.308594 9.667969 -15.347656 8.605469 -14.359375 C 8.09375 -13.882812 3.734375 -8.3125 3.847656 -8.242188 C 3.847656 -8.242188 4.210938 -8.679688 4.6875 -9.304688 L 2.527344 -6.152344 C 2.492188 -6.152344 2.894531 -6.777344 2.855469 -6.8125 C 2.820312 -6.847656 2.5625 -6.59375 2.527344 -6.445312 C 2.601562 -7.214844 2.855469 -7.984375 2.929688 -8.753906 C 2.964844 -9.046875 2.929688 -9.265625 3.003906 -9.558594 C 3.148438 -10.035156 3.296875 -10.546875 3.515625 -10.953125 C 3.664062 -11.246094 3.957031 -11.5 4.027344 -11.792969 C 4.175781 -12.269531 4.140625 -12.453125 4.46875 -12.855469 C 4.761719 -13.222656 5.199219 -13.589844 5.457031 -13.917969 C 6.078125 -14.832031 5.019531 -15.457031 4.433594 -15.566406 C 3.957031 -15.640625 3.480469 -15.675781 3.039062 -15.421875 C 2.5625 -15.125 2.671875 -14.871094 2.5625 -14.46875 C 2.453125 -13.953125 2.085938 -13.367188 1.90625 -12.894531 C 1.613281 -12.125 1.355469 -11.355469 1.097656 -10.585938 C 0.804688 -9.816406 0.511719 -9.082031 0.292969 -8.3125 C 0.109375 -7.691406 0.148438 -7.105469 0.0742188 -6.519531 C 0 -5.859375 -0.109375 -5.421875 0.21875 -4.835938 C 0.585938 -4.210938 1.574219 -3.261719 2.234375 -4.066406 L 2.378906 -3.773438 C 3.003906 -5.128906 3.957031 -6.335938 4.726562 -7.65625 C 5.054688 -8.242188 5.640625 -8.644531 6.117188 -9.265625 C 6.777344 -10.144531 7.363281 -11.023438 8.09375 -11.867188 C 7.984375 -11.683594 7.507812 -10.839844 7.546875 -10.804688 C 7.617188 -10.839844 7.65625 -10.914062 7.726562 -10.988281 L 7.214844 -9.960938 C 7.179688 -10 7.363281 -10.253906 7.289062 -10.253906 C 7.03125 -10.328125 6.261719 -8.277344 6.191406 -8.09375 C 5.933594 -7.289062 5.898438 -6.554688 5.824219 -5.714844 C 5.785156 -5.3125 5.714844 -4.90625 5.714844 -4.503906 C 5.714844 -4.101562 5.75 -3.699219 5.933594 -3.296875 C 6.042969 -3.078125 6.191406 -2.785156 6.375 -2.601562 C 6.410156 -2.601562 6.8125 -2.234375 6.628906 -2.527344 L 6.847656 -2.308594 L 6.738281 -2.378906 C 6.703125 -2.199219 8.058594 -1.464844 8.277344 -1.390625 C 9.304688 -1.0625 10.402344 -2.234375 11.0625 -2.929688 C 11.941406 -3.882812 12.671875 -4.980469 13.480469 -6.007812 C 13.917969 -6.59375 15.308594 -7.839844 15.164062 -8.71875 Z M 15.164062 -8.71875 "/></g></g></g><g fill="#4c1d95" fill-opacity="1"><g transform="translate(137.210758, 45.153757)"><g><path d="M 18.679688 -8.789062 C 18.535156 -9.851562 17.472656 -8.789062 17.140625 -8.496094 C 16.519531 -8.019531 15.859375 -7.617188 15.238281 -7.140625 C 14.394531 -6.554688 13.589844 -5.898438 12.78125 -5.238281 C 12.453125 -4.980469 10.4375 -3.113281 10.253906 -3.222656 C 10.839844 -5.054688 11.867188 -6.886719 12.855469 -8.605469 C 13.773438 -10.144531 11.902344 -11.464844 10.402344 -10.804688 C 9.960938 -10.621094 9.488281 -9.816406 9.191406 -9.414062 C 8.496094 -8.425781 7.839844 -7.363281 7.140625 -6.375 L 6.152344 -4.871094 C 6.042969 -4.726562 5.347656 -3.699219 5.457031 -3.699219 C 5.492188 -3.699219 5.53125 -3.734375 5.566406 -3.773438 C 4.835938 -2.785156 3.773438 -1.539062 2.820312 -0.84375 C 1.5 0.183594 2.269531 -2.894531 2.453125 -3.40625 C 3.003906 -5.054688 3.917969 -6.628906 4.90625 -8.058594 C 5.054688 -8.277344 7.070312 -10.839844 7.726562 -11.464844 C 7.070312 -10.914062 5.089844 -8.460938 4.761719 -8.058594 C 5.933594 -9.742188 7.800781 -12.417969 10 -12.78125 L 9.523438 -12.601562 C 9.960938 -12.671875 10.953125 -12.636719 10.953125 -12.636719 L 10.839844 -12.746094 C 11.023438 -12.636719 11.132812 -12.488281 11.355469 -12.488281 C 12.269531 -12.527344 12.050781 -13.992188 11.648438 -14.429688 C 11.097656 -15.164062 9.78125 -15.457031 8.898438 -15.238281 C 8.644531 -15.164062 8.535156 -15.015625 8.242188 -14.980469 C 7.910156 -14.90625 7.65625 -14.980469 7.253906 -14.761719 C 6.519531 -14.394531 5.898438 -13.882812 5.3125 -13.296875 C 4.945312 -12.964844 1.429688 -9.191406 1.683594 -9.046875 C 1.757812 -9.046875 1.832031 -9.121094 1.867188 -9.15625 L 1.246094 -8.242188 C 1.207031 -8.277344 1.390625 -8.535156 1.355469 -8.535156 C 1.207031 -8.605469 0.476562 -7.398438 0.441406 -7.289062 C 0.0742188 -6.703125 -0.21875 -6.042969 -0.328125 -5.347656 C -0.476562 -4.578125 -0.511719 -3.734375 -0.511719 -2.964844 C -0.511719 -2.453125 -0.476562 -1.941406 -0.328125 -1.464844 C -0.292969 -1.390625 0.148438 -0.550781 0.0742188 -0.914062 L 0.183594 -0.660156 C 0.148438 -0.660156 0.109375 -0.695312 0.0742188 -0.734375 C -0.0742188 -0.476562 1.320312 0.769531 1.574219 0.878906 C 2.125 1.136719 2.636719 0.988281 3.1875 0.660156 C 4.394531 -0.0742188 5.238281 -1.464844 6.078125 -2.636719 C 6.996094 -3.882812 8.019531 -5.164062 8.789062 -6.554688 L 7.984375 -3.699219 C 7.65625 -2.636719 7.472656 -1.0625 6.8125 -0.21875 C 6.117188 0.621094 5.089844 1.355469 4.320312 2.085938 C 3.515625 2.820312 2.710938 3.554688 1.976562 4.394531 C 0.914062 5.605469 -0.0742188 6.921875 -0.988281 8.242188 C -2.050781 9.78125 -2.785156 11.425781 -2.050781 13.222656 C -1.390625 14.796875 0.109375 16.261719 1.941406 15.824219 C 3.515625 15.421875 4.101562 14.101562 4.796875 12.855469 C 6.996094 9.046875 8.09375 4.652344 9.339844 0.441406 C 9.523438 -0.183594 9.632812 -0.804688 10.074219 -1.28125 C 10.511719 -1.722656 11.0625 -2.125 11.574219 -2.527344 C 12.601562 -3.441406 13.660156 -4.285156 14.761719 -5.164062 L 17.726562 -7.433594 C 18.203125 -7.800781 18.828125 -8.09375 18.679688 -8.789062 Z M 5.714844 3.664062 C 5.714844 3.625 5.53125 4.140625 5.566406 4.066406 C 4.796875 6.300781 4.066406 8.535156 3.039062 10.660156 C 2.527344 11.71875 0.109375 16.117188 -0.769531 12.894531 C -1.355469 10.839844 0.621094 8.496094 1.757812 6.996094 C 3.148438 5.199219 4.578125 3.589844 6.226562 2.050781 C 6.078125 2.601562 5.898438 3.148438 5.714844 3.664062 Z M 5.566406 6.226562 C 5.347656 7.03125 5.089844 7.839844 4.761719 8.605469 C 4.433594 9.230469 3.992188 9.78125 3.664062 10.367188 C 4.320312 8.9375 5.019531 7.582031 5.566406 6.117188 Z M 3.734375 -7.324219 C 3.515625 -6.921875 3.1875 -6.554688 2.894531 -6.152344 C 3.1875 -6.8125 3.480469 -7.398438 4.027344 -7.984375 C 4.140625 -8.09375 4.320312 -8.277344 4.433594 -8.460938 Z M 3.699219 -6.375 L 3.371094 -5.898438 C 3.589844 -6.300781 3.847656 -6.703125 4.140625 -7.105469 Z M 3.699219 -6.375 "/></g></g></g></svg>