<?xml version="1.0" encoding="UTF-8"?>
<!DOCTYPE svg PUBLIC "-//W3C//DTD SVG 1.1//EN" "http://www.w3.org/Graphics/SVG/1.1/DTD/svg11.dtd">
<svg xmlns="http://www.w3.org/2000/svg" version="1.1" width="800px" height="766px" style="shape-rendering:geometricPrecision; text-rendering:geometricPrecision; image-rendering:optimizeQuality; fill-rule:evenodd; clip-rule:evenodd" xmlns:xlink="http://www.w3.org/1999/xlink">
<g><path style="opacity:0.979" fill="#4c1c95" d="M 388.5,-0.5 C 395.833,-0.5 403.167,-0.5 410.5,-0.5C 441.021,8.20917 456.188,28.5425 456,60.5C 450.658,92.8433 431.658,110.177 399,112.5C 367.777,109.945 349.11,93.2787 343,62.5C 341.856,29.5071 357.023,8.50707 388.5,-0.5 Z M 392.5,22.5 C 412.465,20.9828 425.632,29.6494 432,48.5C 433.834,74.6643 421.667,88.1643 395.5,89C 371.929,83.0188 362.762,68.1854 368,44.5C 372.926,33.4004 381.092,26.0671 392.5,22.5 Z"/></g>
<g><path style="opacity:0.96" fill="#4b1c95" d="M 395.5,128.5 C 408.497,128.469 413.33,134.803 410,147.5C 404.963,153.99 398.796,155.156 391.5,151C 387.407,146.02 386.574,140.52 389,134.5C 390.494,131.686 392.66,129.686 395.5,128.5 Z"/></g>
<g><path style="opacity:0.957" fill="#4c1c95" d="M 398.5,171.5 C 406.962,172.296 411.295,176.963 411.5,185.5C 410.482,197.034 404.482,201.201 393.5,198C 387.203,191.717 386.036,184.551 390,176.5C 392.398,173.892 395.231,172.225 398.5,171.5 Z"/></g>
<g><path style="opacity:0.966" fill="#4c1c95" d="M 396.5,217.5 C 403.885,216.6 408.718,219.6 411,226.5C 413.278,239.886 407.778,245.719 394.5,244C 389.413,240.781 387.079,236.115 387.5,230C 388.056,223.961 391.056,219.794 396.5,217.5 Z"/></g>
<g><path style="opacity:0.976" fill="#4c1c95" d="M 301.5,239.5 C 317.492,238.414 329.992,244.414 339,257.5C 359.607,301.714 379.94,346.047 400,390.5C 400,400.82 394.834,404.986 384.5,403C 382.714,402.215 381.214,401.049 380,399.5C 359.59,355.016 338.924,310.682 318,266.5C 308.326,259.167 299.993,260.5 293,270.5C 290.852,275.984 291.185,281.317 294,286.5C 321.274,344.713 348.274,403.047 375,461.5C 376.022,473.146 370.855,477.646 359.5,475C 357.714,474.215 356.214,473.049 355,471.5C 326.726,410.619 298.726,349.619 271,288.5C 265.988,262.496 276.155,246.163 301.5,239.5 Z"/></g>
<g><path style="opacity:0.98" fill="#4c1c95" d="M -0.5,317.5 C -0.5,310.5 -0.5,303.5 -0.5,296.5C 8.85261,264.009 30.5193,248.842 64.5,251C 86.7538,255.532 101.92,268.366 110,289.5C 117.212,321.904 106.046,345.404 76.5,360C 47.4787,369.056 24.3121,361.223 7,336.5C 3.58334,330.396 1.08334,324.063 -0.5,317.5 Z M 50.5,273.5 C 71.6842,272.857 84.5176,282.857 89,303.5C 89.3754,322.798 80.2088,334.965 61.5,340C 34.7981,340.299 21.9647,327.132 23,300.5C 26.7826,285.883 35.9493,276.883 50.5,273.5 Z"/></g>
<g><path style="opacity:0.978" fill="#4c1c95" d="M 799.5,297.5 C 799.5,303.833 799.5,310.167 799.5,316.5C 790.439,350.026 768.439,365.526 733.5,363C 703.997,356.017 688.331,337.351 686.5,307C 688.272,276.116 704.272,257.449 734.5,251C 768.926,248.955 790.592,264.455 799.5,297.5 Z M 737.5,273.5 C 763.641,273.474 776.474,286.474 776,312.5C 770.702,332.122 757.868,341.289 737.5,340C 721.923,336.677 712.757,327.177 710,311.5C 709.327,291.678 718.494,279.011 737.5,273.5 Z"/></g>
<g><path style="opacity:0.958" fill="#4c1c94" d="M 394.5,263.5 C 409.307,263.063 414.474,270.063 410,284.5C 405.832,290.486 400.332,291.986 393.5,289C 391.622,287.457 390.122,285.624 389,283.5C 388.333,278.833 388.333,274.167 389,269.5C 390.36,266.977 392.193,264.977 394.5,263.5 Z"/></g>
<g><path style="opacity:0.959" fill="#4c1c95" d="M 135.5,318.5 C 147.715,317.223 153.548,322.556 153,334.5C 146.301,344.43 138.634,345.096 130,336.5C 126.707,328.726 128.54,322.726 135.5,318.5 Z"/></g>
<g><path style="opacity:0.96" fill="#4b1d95" d="M 654.5,318.5 C 666.319,317.485 671.486,322.818 670,334.5C 667.215,339.554 662.882,342.22 657,342.5C 647.904,340.99 644.237,335.657 646,326.5C 647.747,322.584 650.58,319.917 654.5,318.5 Z"/></g>
<g><path style="opacity:0.974" fill="#4c1c95" d="M 441.5,347.5 C 437.836,339.973 439.169,333.473 445.5,328C 461.5,316.667 477.5,316.667 493.5,328C 500.813,335.287 505.813,343.953 508.5,354C 506.011,363.911 500.011,366.911 490.5,363C 487.036,358.578 484.203,353.744 482,348.5C 473.957,339.545 465.79,339.378 457.5,348C 452.045,351.386 446.712,351.22 441.5,347.5 Z"/></g>
<g><path style="opacity:0.973" fill="#4c1c95" d="M 529.5,322.5 C 543.348,322.507 554.182,328.173 562,339.5C 583.72,385.33 605.053,431.33 626,477.5C 627.313,481.42 628.313,485.42 629,489.5C 629.294,507.173 629.294,524.839 629,542.5C 630.017,546.703 631.184,550.87 632.5,555C 630.742,563.885 625.409,567.219 616.5,565C 613.272,563.437 611.105,560.937 610,557.5C 608.384,553.653 607.384,549.653 607,545.5C 606.54,532.497 606.707,519.497 607.5,506.5C 607.57,500.436 607.07,494.436 606,488.5C 585.315,441.104 563.482,394.271 540.5,348C 533.745,343.593 527.411,344.26 521.5,350C 509.499,351.664 504.666,346.497 507,334.5C 512.971,327.433 520.471,323.433 529.5,322.5 Z"/></g>
<g><path style="opacity:0.953" fill="#4c1c95" d="M 177.5,331.5 C 183.611,331.26 189.111,332.927 194,336.5C 199.61,347.188 196.61,353.854 185,356.5C 171.67,354.817 167.337,347.817 172,335.5C 173.812,334.023 175.645,332.69 177.5,331.5 Z"/></g>
<g><path style="opacity:0.964" fill="#4c1c95" d="M 614.5,331.5 C 627.004,331.511 631.504,337.511 628,349.5C 621.015,356.964 613.348,357.964 605,352.5C 600.067,341.705 603.234,334.705 614.5,331.5 Z"/></g>
<g><path style="opacity:0.973" fill="#4c1c95" d="M 441.5,347.5 C 446.372,355.081 450.039,363.248 452.5,372C 451.13,381.363 445.796,384.696 436.5,382C 435.069,381.535 433.903,380.701 433,379.5C 430.049,372.423 426.215,365.923 421.5,360C 414.085,356.302 407.085,356.969 400.5,362C 387.615,362.397 383.448,356.563 388,344.5C 398.736,335.596 410.903,333.096 424.5,337C 430.832,339.496 436.499,342.996 441.5,347.5 Z"/></g>
<g><path style="opacity:0.968" fill="#4c1d95" d="M 221.5,345.5 C 231.561,344.678 237.894,349.011 240.5,358.5C 239.495,365.505 235.495,369.505 228.5,370.5C 222.494,369.751 217.66,367.085 214,362.5C 211.6,354.636 214.1,348.97 221.5,345.5 Z"/></g>
<g><path style="opacity:0.977" fill="#4c1c95" d="M 315.5,423.5 C 320.267,423.191 324.934,423.691 329.5,425C 335.338,430.375 336.005,436.375 331.5,443C 326.34,444.91 321.007,446.244 315.5,447C 306.851,451.944 304.351,459.111 308,468.5C 323.333,488.5 338.667,508.5 354,528.5C 360.608,534.441 367.775,539.608 375.5,544C 401.648,557.24 427.981,570.24 454.5,583C 471.501,591.167 482.501,604.333 487.5,622.5C 485.329,631.919 479.662,635.085 470.5,632C 468.667,630.833 467.167,629.333 466,627.5C 461.648,615.813 453.814,607.313 442.5,602C 416.679,589.589 391.012,576.923 365.5,564C 353.907,558.081 343.74,550.247 335,540.5C 320.575,521.319 305.909,502.319 291,483.5C 283.56,470.703 282.56,457.37 288,443.5C 294.329,432.768 303.496,426.102 315.5,423.5 Z"/></g>
<g><path style="opacity:0.965" fill="#4c1c94" d="M 291.5,547.5 C 305.604,547.096 310.104,553.429 305,566.5C 299.932,573.868 293.432,575.368 285.5,571C 281.55,566.7 280.716,561.867 283,556.5C 285.39,552.947 288.224,549.947 291.5,547.5 Z"/></g>
<g><path style="opacity:0.957" fill="#4c1d95" d="M 266.5,583.5 C 275.032,583.028 280.032,587.028 281.5,595.5C 278.834,608.326 271.501,612.492 259.5,608C 254.353,601.999 254.187,595.832 259,589.5C 261.114,586.879 263.614,584.879 266.5,583.5 Z"/></g>
<g><path style="opacity:0.952" fill="#4c1c95" d="M 239.5,620.5 C 253.525,620.872 257.692,627.538 252,640.5C 244.216,647.625 237.216,646.958 231,638.5C 229.3,630.237 232.133,624.237 239.5,620.5 Z"/></g>
<g><path style="opacity:0.953" fill="#4c1c95" d="M 555.5,620.5 C 563.274,619.468 568.774,622.468 572,629.5C 573.693,640.807 568.859,645.973 557.5,645C 550.001,641.501 547.167,635.667 549,627.5C 550.694,624.642 552.861,622.309 555.5,620.5 Z"/></g>
<g><path style="opacity:0.978" fill="#4c1c95" d="M 202.5,765.5 C 194.5,765.5 186.5,765.5 178.5,765.5C 151.059,757.039 136.059,738.373 133.5,709.5C 136.836,674.831 155.836,655.831 190.5,652.5C 221.591,654.761 240.424,671.094 247,701.5C 248.777,734.533 233.944,755.866 202.5,765.5 Z M 189.5,675.5 C 215.083,678.685 226.249,693.018 223,718.5C 215.92,736.46 202.753,744.293 183.5,742C 164.495,735.654 155.995,722.487 158,702.5C 162.889,686.767 173.389,677.767 189.5,675.5 Z"/></g>
<g><path style="opacity:0.978" fill="#4c1c95" d="M 625.5,765.5 C 617.5,765.5 609.5,765.5 601.5,765.5C 570.568,756.042 555.734,735.042 557,702.5C 563.111,671.56 581.945,654.893 613.5,652.5C 648.156,655.823 667.156,674.823 670.5,709.5C 667.932,738.38 652.932,757.046 625.5,765.5 Z M 612.5,675.5 C 636.365,678.859 647.531,692.526 646,716.5C 637.878,738.811 622.378,746.645 599.5,740C 582.74,730.398 576.907,716.231 582,697.5C 588.166,684.485 598.333,677.152 612.5,675.5 Z"/></g>
</svg>
