<?xml version="1.0" encoding="UTF-8"?>
<!DOCTYPE svg PUBLIC "-//W3C//DTD SVG 1.1//EN" "http://www.w3.org/Graphics/SVG/1.1/DTD/svg11.dtd">
<svg xmlns="http://www.w3.org/2000/svg" version="1.1" width="800px" height="745px" style="shape-rendering:geometricPrecision; text-rendering:geometricPrecision; image-rendering:optimizeQuality; fill-rule:evenodd; clip-rule:evenodd" xmlns:xlink="http://www.w3.org/1999/xlink">
<g><path style="opacity:0.966" fill="#4c1d95" d="M 254.5,-0.5 C 256.167,-0.5 257.833,-0.5 259.5,-0.5C 257.757,3.00134 256.09,6.50134 254.5,10C 257.776,8.76348 260.609,6.59681 263,3.5C 264.331,17.0057 259.164,27.1724 247.5,34C 249.833,34.6667 252.167,34.6667 254.5,34C 261.638,24.3991 270.971,21.3991 282.5,25C 284.305,25.972 285.972,27.1387 287.5,28.5C 284.579,30.0894 281.579,31.5894 278.5,33C 281.753,34.0365 285.086,34.7031 288.5,35C 282.358,42.8718 274.358,45.8718 264.5,44C 260.742,42.1663 257.075,40.4996 253.5,39C 261.687,46.0672 265.02,54.9006 263.5,65.5C 261.81,62.9763 259.643,60.9763 257,59.5C 256.833,60 256.667,60.5 256.5,61C 258.155,64.1134 259.321,67.2801 260,70.5C 245.341,65.5711 237.675,55.2377 237,39.5C 230.171,40.8347 223.337,42.3347 216.5,44C 228.405,49.033 234.405,57.8663 234.5,70.5C 231.466,67.8224 228.133,65.989 224.5,65C 226.587,68.5082 228.92,71.8416 231.5,75C 225.547,76.1264 220.214,74.7931 215.5,71C 208.478,65.1241 204.478,57.6241 203.5,48.5C 195.865,50.4812 188.532,53.3146 181.5,57C 194.528,60.3583 202.362,68.525 205,81.5C 201.689,79.5074 198.189,78.3408 194.5,78C 196.645,81.3124 199.312,84.1457 202.5,86.5C 190.599,89.4795 181.099,85.8128 174,75.5C 172.113,71.7266 170.28,68.0599 168.5,64.5C 161.414,68.7528 154.747,73.5861 148.5,79C 162.204,79.5791 171.538,86.0791 176.5,98.5C 172.521,97.5349 168.521,97.0349 164.5,97C 167.833,99.6667 171.167,102.333 174.5,105C 157.237,110.962 144.737,105.462 137,88.5C 131.167,95 125.333,101.5 119.5,108C 132.442,106.309 142.442,110.809 149.5,121.5C 135.255,121.546 134.421,123.879 147,128.5C 148.257,128.85 148.591,129.517 148,130.5C 135.079,138.052 123.079,136.718 112,126.5C 111,124.833 110,123.167 109,121.5C 104.375,128.582 99.8749,135.749 95.5,143C 107.52,140.341 117.853,143.341 126.5,152C 122.133,153.207 117.8,154.541 113.5,156C 117.549,158.098 121.882,159.431 126.5,160C 117.368,170.033 106.368,172.699 93.5,168C 90.7336,166.533 88.2336,164.7 86,162.5C 81.8277,169.345 78.3277,176.511 75.5,184C 79.9551,183.339 84.4551,182.506 89,181.5C 95.6508,181.99 101.484,184.324 106.5,188.5C 102.01,190.384 97.6768,192.55 93.5,195C 98.0826,196.145 102.749,196.811 107.5,197C 96.9187,211.468 83.252,215.301 66.5,208.5C 64.3381,216.139 62.5048,223.805 61,231.5C 68.8586,226.762 77.3586,225.262 86.5,227C 88.2205,227.739 89.8872,228.573 91.5,229.5C 87.3805,232.446 83.3805,235.612 79.5,239C 84.2241,239.224 88.8908,238.724 93.5,237.5C 90.0311,248.678 82.5311,255.678 71,258.5C 65.5195,260.001 60.1861,259.667 55,257.5C 52.4703,266.343 51.1369,275.343 51,284.5C 59.7629,274.851 70.2629,271.851 82.5,275.5C 78.3418,278.826 74.6751,282.659 71.5,287C 76.4444,286.631 81.1111,285.131 85.5,282.5C 85.5295,286.608 84.3628,290.608 82,294.5C 73.6006,306.866 61.9339,312.866 47,312.5C 46.1111,323.495 45.7778,334.495 46,345.5C 52.8289,330.257 64.3289,323.091 80.5,324C 67.1847,339.563 68.518,341.73 84.5,330.5C 83.8184,348.698 74.8184,360.865 57.5,367C 53.8484,367.499 50.1817,367.665 46.5,367.5C 47.2902,380.366 49.2902,393.032 52.5,405.5C 56.2348,391.512 64.5682,381.346 77.5,375C 80.1944,373.81 82.8611,373.644 85.5,374.5C 74.8628,392.99 76.6961,394.657 91,379.5C 92.0475,404.251 80.8809,420.251 57.5,427.5C 60.786,439.86 64.9526,451.86 70,463.5C 71.6068,444.589 80.9401,431.255 98,423.5C 98.1667,423.833 98.3333,424.167 98.5,424.5C 95.8835,430.63 94.3835,436.963 94,443.5C 98.0522,438.954 101.886,434.287 105.5,429.5C 109.43,453.967 100.763,472.301 79.5,484.5C 84.476,495.119 89.976,505.452 96,515.5C 96.1047,496.949 103.771,482.615 119,472.5C 117.843,479.409 117.509,486.409 118,493.5C 121.255,487.992 124.255,482.325 127,476.5C 132.138,487.166 132.804,498.166 129,509.5C 126.072,521.037 119.905,530.371 110.5,537.5C 116.808,546.308 123.308,554.975 130,563.5C 129.753,550.151 133.086,537.817 140,526.5C 141.978,523.355 144.478,520.688 147.5,518.5C 148.331,525.811 148.831,533.144 149,540.5C 152.444,534.175 155.11,527.508 157,520.5C 165.218,536.359 166.218,552.693 160,569.5C 157.674,575.487 154.174,580.654 149.5,585C 156.697,592.531 164.197,599.698 172,606.5C 171.437,594.154 173.103,582.154 177,570.5C 179.018,566.449 181.518,562.783 184.5,559.5C 185.463,566.946 186.963,574.279 189,581.5C 191.362,574.359 193.195,567.025 194.5,559.5C 202.405,569.929 206.405,581.762 206.5,595C 205.91,606.193 202.91,616.693 197.5,626.5C 205.615,633.164 214.282,638.664 223.5,643C 218.38,625.868 219.88,609.368 228,593.5C 230.355,600.899 233.021,608.232 236,615.5C 237.138,607.643 237.971,599.643 238.5,591.5C 247.993,600.416 253.826,611.416 256,624.5C 257.439,635.804 256.273,646.804 252.5,657.5C 252.833,658.167 253.167,658.833 253.5,659.5C 261.995,663.773 270.661,666.773 279.5,668.5C 272.385,652.216 272.052,635.883 278.5,619.5C 281.811,626.789 285.644,633.789 290,640.5C 290.603,632.159 289.769,623.993 287.5,616C 288,615.833 288.5,615.667 289,615.5C 304.416,625.967 312.749,640.634 314,659.5C 314.444,665.845 314.277,672.178 313.5,678.5C 337.764,683.413 362.098,683.746 386.5,679.5C 388.45,686.371 388.95,693.371 388,700.5C 360.698,703.932 333.532,702.932 306.5,697.5C 302.074,724.093 286.574,739.426 260,743.5C 256.361,743.518 252.861,742.852 249.5,741.5C 254.872,736.13 259.872,730.463 264.5,724.5C 262.534,723.628 260.534,723.795 258.5,725C 253.713,726.893 249.047,729.06 244.5,731.5C 248.325,711.152 260.325,697.652 280.5,691C 268.079,686.135 255.745,680.968 243.5,675.5C 232.306,702.597 212.639,712.264 184.5,704.5C 183.167,703.833 183.167,703.167 184.5,702.5C 190.377,699.058 195.71,694.891 200.5,690C 193.404,690.023 186.404,690.689 179.5,692C 187.035,674.787 200.035,664.787 218.5,662C 207.72,655.545 197.22,648.712 187,641.5C 171.321,663.712 151.487,668.545 127.5,656C 126.167,655.333 126.167,654.667 127.5,654C 150.625,645.142 149.625,641.808 124.5,644C 133.196,629.149 146.196,621.816 163.5,622C 154.333,614.167 145.833,605.667 138,596.5C 123.326,611.772 106.493,614.606 87.5,605C 84.5372,603.039 81.8706,600.706 79.5,598C 85.9693,596.465 92.3026,594.465 98.5,592C 92.3824,589.475 86.0491,587.642 79.5,586.5C 89.3427,575.712 101.676,570.878 116.5,572C 109.614,563.448 103.114,554.614 97,545.5C 84.8655,554.185 72.0321,555.352 58.5,549C 52.3567,545.357 47.3567,540.524 43.5,534.5C 43.8333,534.167 44.1667,533.833 44.5,533.5C 45.7722,534.046 47.1055,534.379 48.5,534.5C 53.0078,534.135 57.3411,533.302 61.5,532C 56.1243,528.761 50.4576,526.095 44.5,524C 54.774,515.466 66.274,513.299 79,517.5C 74.8313,508.158 70.3313,498.825 65.5,489.5C 45.1221,495.205 29.6221,488.872 19,470.5C 18.5172,469.552 18.3505,468.552 18.5,467.5C 24.1271,468.662 29.7938,469.162 35.5,469C 31.0328,464.6 26.0328,460.934 20.5,458C 30.5211,452.571 40.8544,452.071 51.5,456.5C 51.8333,456.167 52.1667,455.833 52.5,455.5C 49.4299,447.29 46.7632,438.957 44.5,430.5C 22.5708,430.157 9.07078,419.49 4,398.5C 8.78461,401.06 13.7846,403.06 19,404.5C 19.6667,403.833 19.6667,403.167 19,402.5C 14.9844,398.652 11.1511,394.652 7.5,390.5C 18.0974,387.27 27.9307,388.936 37,395.5C 36.0404,386.567 35.2071,377.567 34.5,368.5C 16.2297,365.56 4.563,355.227 -0.5,337.5C -0.5,335.5 -0.5,333.5 -0.5,331.5C 4.02722,334.018 8.52722,336.684 13,339.5C 13.3152,338.092 12.9819,336.759 12,335.5C 9.5,331.833 7,328.167 4.5,324.5C 16.6671,323.286 26.5005,327.62 34,337.5C 34.7577,327.816 35.591,318.149 36.5,308.5C 20.5225,305.696 10.3558,296.363 6,280.5C 4.70954,275.89 4.37621,271.223 5,266.5C 19.6676,280.906 21.5009,279.24 10.5,261.5C 13.8944,260.777 17.2277,261.277 20.5,263C 29.1952,268.026 35.3619,275.193 39,284.5C 41.1593,273.877 42.9926,263.211 44.5,252.5C 32.1731,248.927 24.0064,240.927 20,228.5C 17.6553,221.138 17.4887,213.804 19.5,206.5C 22.4763,210.644 25.643,214.644 29,218.5C 28,212.833 27,207.167 26,201.5C 39.0205,207.843 47.0205,218.176 50,232.5C 52.664,222.341 55.8307,212.341 59.5,202.5C 40.7957,190.561 34.6291,173.894 41,152.5C 43.4159,157.001 46.0825,161.334 49,165.5C 49.116,160.803 48.616,156.136 47.5,151.5C 47.8333,150.833 48.1667,150.167 48.5,149.5C 54.5801,153.08 59.0801,158.08 62,164.5C 64.4539,170.36 66.1206,176.36 67,182.5C 70.4921,173.349 74.6588,164.516 79.5,156C 67.4459,145.991 62.6126,133.157 65,117.5C 65.5911,113.118 67.0911,109.118 69.5,105.5C 71.0378,110.28 72.8712,114.946 75,119.5C 75.3333,114.167 75.6667,108.833 76,103.5C 85.2922,112.43 89.9589,123.43 90,136.5C 94.4618,129.074 99.2952,121.908 104.5,115C 99.957,110.415 97.1237,104.915 96,98.5C 93.6413,86.7166 95.9746,76.0499 103,66.5C 103.872,71.1947 104.872,75.8614 106,80.5C 107.651,76.0199 108.818,71.3532 109.5,66.5C 116.975,75.8815 119.809,86.5481 118,98.5C 123,93.5 128,88.5 133,83.5C 130.922,76.8976 129.422,70.0642 128.5,63C 128.854,52.5892 132.687,43.7558 140,36.5C 139.354,54.8027 141.354,55.136 146,37.5C 149.782,43.2257 151.615,49.559 151.5,56.5C 151.171,60.9401 150.671,65.2734 150,69.5C 155.746,65.3765 161.58,61.3765 167.5,57.5C 161.741,41.4581 165.074,27.6248 177.5,16C 178.6,15.5683 179.267,16.0683 179.5,17.5C 178.485,21.1311 178.319,24.7978 179,28.5C 181.19,24.9241 183.19,21.2574 185,17.5C 188.643,28.0234 188.143,38.3568 183.5,48.5C 183.833,48.8333 184.167,49.1667 184.5,49.5C 190.231,46.8685 196.064,44.5352 202,42.5C 199.166,29.1731 202.333,17.5064 211.5,7.5C 213.642,5.09549 216.309,3.76216 219.5,3.5C 214.306,17.8423 215.806,18.8423 224,6.5C 227.257,18.3096 224.757,28.8096 216.5,38C 223.842,37.2598 231.175,36.0931 238.5,34.5C 236.007,19.1588 241.34,7.49212 254.5,-0.5 Z"/></g>
<g><path style="opacity:0.967" fill="#4c1d95" d="M 539.5,-0.5 C 541.167,-0.5 542.833,-0.5 544.5,-0.5C 557.911,7.37303 563.244,19.0397 560.5,34.5C 567.804,36.2178 575.137,37.3844 582.5,38C 574.243,28.8096 571.743,18.3096 575,6.5C 583.194,18.8423 584.694,17.8423 579.5,3.5C 589.496,7.34791 595.33,14.6812 597,25.5C 597.516,31.2182 597.516,36.8849 597,42.5C 602.936,44.5352 608.769,46.8685 614.5,49.5C 614.833,49.1667 615.167,48.8333 615.5,48.5C 610.857,38.3568 610.357,28.0234 614,17.5C 616.184,21.04 618.184,24.7066 620,28.5C 620.622,24.9714 620.455,21.4714 619.5,18C 619.833,17.1667 620.167,16.3333 620.5,15.5C 633.739,26.8904 637.406,40.8904 631.5,57.5C 637.42,61.3765 643.254,65.3765 649,69.5C 647.124,61.5771 647.124,53.5771 649,45.5C 649.806,42.5544 651.139,39.8877 653,37.5C 657.646,55.136 659.646,54.8027 659,36.5C 666.313,43.7558 670.146,52.5892 670.5,63C 669.578,70.0642 668.078,76.8976 666,83.5C 671,88.5 676,93.5 681,98.5C 680.07,88.7512 681.736,79.4179 686,70.5C 687.353,69.3147 688.52,67.9814 689.5,66.5C 690.182,71.3532 691.349,76.0199 693,80.5C 694.128,75.8614 695.128,71.1947 696,66.5C 707.629,83.0434 707.129,99.21 694.5,115C 699.705,121.908 704.538,129.074 709,136.5C 709.35,126.758 712.016,117.758 717,109.5C 718.684,107.649 720.517,105.982 722.5,104.5C 723.329,109.467 723.829,114.467 724,119.5C 726.114,114.94 727.947,110.274 729.5,105.5C 736.4,119.672 735.9,133.672 728,147.5C 725.5,150.667 722.667,153.5 719.5,156C 724.341,164.516 728.508,173.349 732,182.5C 733.003,168.485 739.169,157.485 750.5,149.5C 750.833,150.167 751.167,150.833 751.5,151.5C 750.229,156.115 749.729,160.781 750,165.5C 752.917,161.334 755.584,157.001 758,152.5C 764.322,173.925 758.155,190.592 739.5,202.5C 742.967,212.068 746.134,221.734 749,231.5C 752.238,217.69 760.238,207.69 773,201.5C 772,207.167 771,212.833 770,218.5C 773.357,214.644 776.524,210.644 779.5,206.5C 782.952,223.47 777.952,237.637 764.5,249C 761.395,250.868 758.062,252.035 754.5,252.5C 756.006,263.199 757.839,273.866 760,284.5C 764.891,272.107 773.724,264.107 786.5,260.5C 787.167,260.833 787.833,261.167 788.5,261.5C 777.499,279.24 779.332,280.906 794,266.5C 794.943,282.779 788.777,295.612 775.5,305C 771.693,306.881 767.693,308.047 763.5,308.5C 763.409,318.196 763.909,327.863 765,337.5C 772.5,327.62 782.333,323.286 794.5,324.5C 792.527,327.64 790.36,330.64 788,333.5C 786.699,335.402 786.032,337.402 786,339.5C 790.473,336.684 794.973,334.018 799.5,331.5C 799.5,333.5 799.5,335.5 799.5,337.5C 794.417,355.249 782.75,365.582 764.5,368.5C 763.947,377.594 763.114,386.594 762,395.5C 771.034,388.948 780.867,387.281 791.5,390.5C 787.849,394.652 784.016,398.652 780,402.5C 779.333,403.167 779.333,403.833 780,404.5C 785.215,403.06 790.215,401.06 795,398.5C 789.902,419.499 776.402,430.165 754.5,430.5C 751.665,439.292 749.332,447.959 747.5,456.5C 758.146,452.071 768.479,452.571 778.5,458C 772.967,460.934 767.967,464.6 763.5,469C 768.403,469.422 773.236,468.922 778,467.5C 778.833,467.833 779.667,468.167 780.5,468.5C 770.533,488.318 754.866,495.318 733.5,489.5C 729.104,498.626 724.437,507.626 719.5,516.5C 719.667,516.833 719.833,517.167 720,517.5C 731.541,513.837 742.374,515.337 752.5,522C 753.451,522.718 753.617,523.551 753,524.5C 747.557,526.426 742.39,528.926 737.5,532C 743.495,533.682 749.495,534.515 755.5,534.5C 743.748,551.522 728.081,556.688 708.5,550C 706.238,548.953 704.071,547.787 702,546.5C 695.525,554.981 689.025,563.481 682.5,572C 697.288,570.869 709.622,575.702 719.5,586.5C 712.951,587.642 706.618,589.475 700.5,592C 706.697,594.465 713.031,596.465 719.5,598C 704.058,612.301 687.058,614.301 668.5,604C 666,601.5 663.5,599 661,596.5C 653.167,605.667 644.667,614.167 635.5,622C 652.804,621.816 665.804,629.149 674.5,644C 649.375,641.808 648.375,645.142 671.5,654C 672.833,654.667 672.833,655.333 671.5,656C 647.5,668.542 627.666,663.709 612,641.5C 601.773,648.701 591.273,655.534 580.5,662C 599.284,664.624 611.951,674.791 618.5,692.5C 611.934,690.689 605.267,689.856 598.5,690C 603.735,695.071 609.401,699.571 615.5,703.5C 594.021,712.002 576.188,707.002 562,688.5C 559.829,684.158 557.662,679.824 555.5,675.5C 543.255,680.968 530.921,686.135 518.5,691C 538.743,697.713 550.743,711.213 554.5,731.5C 548.622,728.152 542.455,725.486 536,723.5C 535.5,723.833 535,724.167 534.5,724.5C 539.128,730.463 544.128,736.13 549.5,741.5C 524.158,745.239 506.325,735.239 496,711.5C 494.516,706.899 493.35,702.232 492.5,697.5C 464.949,703.125 437.283,703.958 409.5,700C 410.465,693.208 411.465,686.375 412.5,679.5C 436.901,683.779 461.235,683.445 485.5,678.5C 482.715,659.645 486.548,642.312 497,626.5C 500.758,622.069 505.092,618.402 510,615.5C 510.5,615.667 511,615.833 511.5,616C 509.076,623.976 508.243,632.143 509,640.5C 513.356,633.789 517.189,626.789 520.5,619.5C 522.16,622.647 523.327,625.98 524,629.5C 525.702,642.75 524.202,655.584 519.5,668C 519.833,668.5 520.167,669 520.5,669.5C 528.946,666.443 537.279,663.11 545.5,659.5C 545.833,658.833 546.167,658.167 546.5,657.5C 540.083,638.5 541.583,620.167 551,602.5C 553.704,598.42 556.871,594.753 560.5,591.5C 560.692,599.53 561.526,607.53 563,615.5C 565.68,608.122 568.347,600.789 571,593.5C 576.232,602.594 578.732,612.427 578.5,623C 578.463,630.03 577.63,636.863 576,643.5C 584.908,638.422 593.408,632.755 601.5,626.5C 588.961,603.461 589.961,581.127 604.5,559.5C 605.771,567.037 607.604,574.37 610,581.5C 612.037,574.279 613.537,566.946 614.5,559.5C 620.916,566.553 624.749,574.886 626,584.5C 626.333,591.833 626.667,599.167 627,606.5C 634.803,599.698 642.303,592.531 649.5,585C 639.615,574.358 634.615,561.691 634.5,547C 634.753,537.484 637.253,528.65 642,520.5C 643.89,527.508 646.556,534.175 650,540.5C 650.169,533.144 650.669,525.811 651.5,518.5C 658.535,524.717 663.368,532.384 666,541.5C 667.769,548.724 668.769,556.057 669,563.5C 675.692,554.975 682.192,546.308 688.5,537.5C 669.463,520.881 663.963,500.548 672,476.5C 674.826,482.822 678.159,488.822 682,494.5C 681.624,487.123 680.958,479.79 680,472.5C 695.181,482.638 702.848,496.971 703,515.5C 709.009,505.484 714.509,495.151 719.5,484.5C 698.233,472.294 689.567,453.961 693.5,429.5C 697.114,434.287 700.948,438.954 705,443.5C 704.617,436.963 703.117,430.63 700.5,424.5C 700.833,424.167 701.167,423.833 701.5,423.5C 718.269,431.462 727.436,444.795 729,463.5C 733.87,451.924 738.037,440.09 741.5,428C 725.253,423.425 714.419,412.925 709,396.5C 707.544,390.903 707.211,385.237 708,379.5C 722.304,394.657 724.137,392.99 713.5,374.5C 719.784,373.952 725.45,375.786 730.5,380C 738.08,387.082 743.413,395.582 746.5,405.5C 749.643,393.024 751.643,380.357 752.5,367.5C 736.909,367.953 725.409,361.286 718,347.5C 715.058,342.084 713.891,336.418 714.5,330.5C 730.482,341.73 731.815,339.563 718.5,324C 734.671,323.091 746.171,330.257 753,345.5C 753.252,334.451 752.752,323.451 751.5,312.5C 731.401,312.403 718.401,302.736 712.5,283.5C 712.833,283.167 713.167,282.833 713.5,282.5C 717.889,285.131 722.556,286.631 727.5,287C 724.325,282.659 720.658,278.826 716.5,275.5C 728.737,271.851 739.237,274.851 748,284.5C 748.067,275.302 746.734,266.302 744,257.5C 725.845,261.34 712.679,254.84 704.5,238C 709.465,238.591 714.465,238.924 719.5,239C 715.62,235.612 711.62,232.446 707.5,229.5C 709.113,228.573 710.779,227.739 712.5,227C 721.62,225.335 730.12,226.835 738,231.5C 736.506,223.831 734.673,216.165 732.5,208.5C 715.748,215.301 702.081,211.468 691.5,197C 696.251,196.811 700.917,196.145 705.5,195C 701.294,192.398 696.961,190.064 692.5,188C 697.727,184.257 703.561,182.09 710,181.5C 714.545,182.506 719.045,183.339 723.5,184C 720.672,176.511 717.172,169.345 713,162.5C 703.979,170.37 693.813,172.203 682.5,168C 678.565,166.063 675.232,163.396 672.5,160C 677.118,159.431 681.451,158.098 685.5,156C 681.128,154.558 676.795,153.225 672.5,152C 681.147,143.341 691.48,140.341 703.5,143C 699.393,135.896 694.893,129.062 690,122.5C 679.225,136.279 666.225,138.945 651,130.5C 650.833,130.167 650.667,129.833 650.5,129.5C 654.318,127.758 657.984,125.758 661.5,123.5C 657.5,122.833 653.5,122.167 649.5,121.5C 656.558,110.809 666.558,106.309 679.5,108C 673.667,101.5 667.833,95 662,88.5C 654.299,105.443 641.799,110.943 624.5,105C 627.833,102.333 631.167,99.6667 634.5,97C 630.479,97.0349 626.479,97.5349 622.5,98.5C 625.219,89.9456 630.886,84.1122 639.5,81C 643.114,80.0551 646.781,79.3884 650.5,79C 644.253,73.5861 637.586,68.7528 630.5,64.5C 628.003,70.9781 624.336,76.8115 619.5,82C 613.147,87.2131 605.98,89.0464 598,87.5C 597.5,87.1667 597,86.8333 596.5,86.5C 607.866,77.0338 607.032,75.3671 594,81.5C 596.638,68.525 604.472,60.3583 617.5,57C 610.468,53.3146 603.135,50.4812 595.5,48.5C 594.012,59.8155 588.345,68.3155 578.5,74C 574.903,75.2765 571.236,75.6099 567.5,75C 570.08,71.8416 572.413,68.5082 574.5,65C 570.867,65.989 567.534,67.8224 564.5,70.5C 564.63,57.8403 570.63,49.007 582.5,44C 575.663,42.3347 568.829,40.8347 562,39.5C 561.325,55.2377 553.659,65.5711 539,70.5C 539.679,67.2801 540.845,64.1134 542.5,61C 542.333,60.5 542.167,60 542,59.5C 539.372,61.1255 537.039,63.1255 535,65.5C 533.897,54.8679 537.397,46.0345 545.5,39C 541.925,40.4996 538.258,42.1663 534.5,44C 524.642,45.8718 516.642,42.8718 510.5,35C 513.877,34.5483 517.211,33.8816 520.5,33C 517.421,31.5894 514.421,30.0894 511.5,28.5C 519.765,22.4326 528.431,21.9326 537.5,27C 540.5,28.6667 542.833,31 544.5,34C 546.833,34.6667 549.167,34.6667 551.5,34C 539.83,27.161 534.664,16.9944 536,3.5C 544.689,12.7641 545.855,11.4307 539.5,-0.5 Z"/></g>
<g><path style="opacity:0.984" fill="#4c1d94" d="M 396.5,88.5 C 398.39,88.2965 399.89,88.9632 401,90.5C 406.786,101.908 412.953,113.075 419.5,124C 432.834,126.567 446.168,129.067 459.5,131.5C 459.657,132.873 459.49,134.207 459,135.5C 449.38,144.742 440.213,154.409 431.5,164.5C 433.489,176.257 435.156,188.091 436.5,200C 436.456,201.764 436.122,203.431 435.5,205C 422.936,199.975 410.436,194.475 398,188.5C 386.318,193.591 374.818,199.091 363.5,205C 360.082,205.649 358.749,204.149 359.5,200.5C 361.254,188.136 362.754,175.802 364,163.5C 354.649,153.65 345.482,143.65 336.5,133.5C 337.09,132.201 338.09,131.368 339.5,131C 352.238,128.822 364.905,126.322 377.5,123.5C 383.592,111.647 389.925,99.9799 396.5,88.5 Z"/></g>
<g><path style="opacity:0.974" fill="#4c1d95" d="M 265.5,152.5 C 266.822,152.33 267.989,152.663 269,153.5C 273.04,161.081 277.207,168.581 281.5,176C 289.761,177.988 298.095,179.655 306.5,181C 307.428,181.388 308.095,182.055 308.5,183C 303.421,190.085 297.587,196.585 291,202.5C 291.218,212.198 292.051,221.865 293.5,231.5C 284.543,228.276 275.709,224.609 267,220.5C 258.291,224.609 249.457,228.276 240.5,231.5C 241.949,221.865 242.782,212.198 243,202.5C 236.413,196.585 230.579,190.085 225.5,183C 225.905,182.055 226.572,181.388 227.5,181C 235.905,179.655 244.239,177.988 252.5,176C 256.972,168.22 261.306,160.387 265.5,152.5 Z"/></g>
<g><path style="opacity:0.976" fill="#4c1d95" d="M 527.5,152.5 C 528.822,152.33 529.989,152.663 531,153.5C 535.04,161.081 539.207,168.581 543.5,176C 551.761,177.988 560.095,179.655 568.5,181C 569.428,181.388 570.095,182.055 570.5,183C 565.421,190.085 559.587,196.585 553,202.5C 553.417,212.178 554.251,221.845 555.5,231.5C 554.127,231.657 552.793,231.49 551.5,231C 544.18,227.09 536.68,223.59 529,220.5C 521.56,224.137 514.06,227.637 506.5,231C 504.393,231.854 503.059,231.188 502.5,229C 503.793,220.816 505.127,212.65 506.5,204.5C 500.885,197.383 494.718,190.716 488,184.5C 487.517,183.552 487.351,182.552 487.5,181.5C 497.001,180.134 506.334,178.134 515.5,175.5C 519.781,167.937 523.781,160.271 527.5,152.5 Z"/></g>
<g><path style="opacity:0.977" fill="#4c1c95" d="M 148.5,299.5 C 163.219,298.254 177.219,300.754 190.5,307C 200.893,318.313 203.059,331.146 197,345.5C 191.257,353.46 183.423,357.96 173.5,359C 166.547,360.163 159.547,360.663 152.5,360.5C 152.5,370.167 152.5,379.833 152.5,389.5C 145.5,389.5 138.5,389.5 131.5,389.5C 131.5,360.167 131.5,330.833 131.5,301.5C 137.349,301.184 143.016,300.518 148.5,299.5 Z M 152.5,317.5 C 158.898,317.243 165.231,317.743 171.5,319C 178.49,323.082 180.323,328.915 177,336.5C 175.269,338.617 173.102,340.117 170.5,341C 164.565,342.239 158.565,342.739 152.5,342.5C 152.5,334.167 152.5,325.833 152.5,317.5 Z"/></g>
<g><path style="opacity:0.976" fill="#4c1c95" d="M 221.5,299.5 C 234.596,298.585 247.263,300.418 259.5,305C 270.685,312.529 274.852,323.029 272,336.5C 269.687,344.816 264.52,350.649 256.5,354C 265.391,364.722 272.391,376.555 277.5,389.5C 269.826,389.666 262.159,389.5 254.5,389C 248.793,378.413 242.459,368.247 235.5,358.5C 232.232,357.513 228.898,357.18 225.5,357.5C 225.5,368.167 225.5,378.833 225.5,389.5C 218.5,389.5 211.5,389.5 204.5,389.5C 204.333,360.498 204.5,331.498 205,302.5C 210.544,301.172 216.044,300.172 221.5,299.5 Z M 225.5,317.5 C 231.565,317.261 237.565,317.761 243.5,319C 251.541,322.793 253.375,328.626 249,336.5C 247.581,337.46 246.081,338.293 244.5,339C 238.258,340.37 231.925,340.87 225.5,340.5C 225.5,332.833 225.5,325.167 225.5,317.5 Z"/></g>
<g><path style="opacity:0.955" fill="#4c1c94" d="M 280.5,300.5 C 300.833,300.5 321.167,300.5 341.5,300.5C 341.5,306.5 341.5,312.5 341.5,318.5C 328.167,318.5 314.833,318.5 301.5,318.5C 301.5,323.833 301.5,329.167 301.5,334.5C 313.5,334.5 325.5,334.5 337.5,334.5C 337.5,340.167 337.5,345.833 337.5,351.5C 325.5,351.5 313.5,351.5 301.5,351.5C 301.5,358.5 301.5,365.5 301.5,372.5C 315.833,372.5 330.167,372.5 344.5,372.5C 344.5,378.167 344.5,383.833 344.5,389.5C 323.167,389.5 301.833,389.5 280.5,389.5C 280.5,359.833 280.5,330.167 280.5,300.5 Z"/></g>
<g><path style="opacity:0.967" fill="#4b1c94" d="M 353.5,300.5 C 360.422,300.188 367.256,300.521 374,301.5C 382.489,318.144 390.156,335.144 397,352.5C 403.776,335 411.61,318 420.5,301.5C 427.056,300.19 433.556,300.19 440,301.5C 442.854,330.361 445.354,359.194 447.5,388C 440.677,389.46 433.677,389.96 426.5,389.5C 426.011,371.114 424.845,352.781 423,334.5C 416.833,348.833 410.667,363.167 404.5,377.5C 399.208,378.495 393.875,378.828 388.5,378.5C 382.905,363.304 376.738,348.304 370,333.5C 368.122,352.119 367.289,370.786 367.5,389.5C 360.5,389.5 353.5,389.5 346.5,389.5C 347.934,359.758 350.267,330.092 353.5,300.5 Z"/></g>
<g><path style="opacity:0.976" fill="#4b1c95" d="M 454.5,300.5 C 461.5,300.5 468.5,300.5 475.5,300.5C 475.5,330.167 475.5,359.833 475.5,389.5C 468.5,389.5 461.5,389.5 454.5,389.5C 454.5,359.833 454.5,330.167 454.5,300.5 Z"/></g>
<g><path style="opacity:0.954" fill="#4b1c92" d="M 484.5,300.5 C 491.5,300.5 498.5,300.5 505.5,300.5C 505.07,321.873 505.57,343.206 507,364.5C 509.511,370.76 514.178,373.76 521,373.5C 528.541,373.235 533.541,369.569 536,362.5C 536.5,341.836 536.667,321.169 536.5,300.5C 543.755,300.187 550.921,300.52 558,301.5C 558.929,322.537 558.596,343.537 557,364.5C 552.613,383.384 540.613,392.384 521,391.5C 500.806,392.43 488.806,383.097 485,363.5C 484.5,342.503 484.333,321.503 484.5,300.5 Z"/></g>
<g><path style="opacity:0.968" fill="#4c1d95" d="M 571.5,300.5 C 578.2,300.17 584.866,300.503 591.5,301.5C 599.623,318.077 607.456,334.743 615,351.5C 622.086,334.58 629.753,317.913 638,301.5C 644.41,300.522 650.91,300.189 657.5,300.5C 660.638,330.102 662.972,359.768 664.5,389.5C 657.5,389.5 650.5,389.5 643.5,389.5C 643.59,370.792 642.757,352.126 641,333.5C 634.87,348.215 628.536,362.881 622,377.5C 616.886,378.804 611.719,378.804 606.5,377.5C 600.333,363.167 594.167,348.833 588,334.5C 586.086,352.768 584.919,371.102 584.5,389.5C 577.833,389.5 571.167,389.5 564.5,389.5C 565.383,359.704 567.716,330.037 571.5,300.5 Z"/></g>
<g><path style="opacity:0.961" fill="#4c1d95" d="M 228.5,442.5 C 255.568,440.244 269.901,452.577 271.5,479.5C 271.96,497.27 263.96,509.27 247.5,515.5C 249.149,517.995 251.483,519.495 254.5,520C 258.819,520.76 263.152,521.427 267.5,522C 266.141,525.746 264.974,529.579 264,533.5C 253.388,534.595 243.721,531.928 235,525.5C 233.04,522.415 231.207,519.248 229.5,516C 210.471,511.509 200.805,499.342 200.5,479.5C 200.925,460.112 210.259,447.779 228.5,442.5 Z M 230.5,457.5 C 246.385,456.046 254.385,463.38 254.5,479.5C 253.162,497.688 243.829,504.188 226.5,499C 222.619,496.072 220.119,492.239 219,487.5C 215.713,474.497 219.546,464.497 230.5,457.5 Z"/></g>
<g><path style="opacity:0.947" fill="#4c1d95" d="M 275.5,443.5 C 281.167,443.5 286.833,443.5 292.5,443.5C 292.333,459.503 292.5,475.503 293,491.5C 296.762,501.765 303.595,504.265 313.5,499C 315.604,496.958 316.771,494.458 317,491.5C 317.5,475.503 317.667,459.503 317.5,443.5C 323.167,443.5 328.833,443.5 334.5,443.5C 334.667,459.837 334.5,476.17 334,492.5C 331.339,508.819 321.672,516.819 305,516.5C 288.343,516.836 278.676,508.836 276,492.5C 275.5,476.17 275.333,459.837 275.5,443.5 Z"/></g>
<g><path style="opacity:0.959" fill="#4c1d95" d="M 360.5,443.5 C 365.875,443.172 371.208,443.505 376.5,444.5C 387.401,467.535 396.735,491.202 404.5,515.5C 398.463,515.829 392.463,515.496 386.5,514.5C 384.833,509.833 383.167,505.167 381.5,500.5C 372.525,499.502 363.525,499.168 354.5,499.5C 353.334,504.83 351.668,509.997 349.5,515C 343.843,515.499 338.176,515.666 332.5,515.5C 340.166,490.838 349.499,466.838 360.5,443.5 Z M 367.5,462.5 C 371.3,470.045 374.633,477.878 377.5,486C 371.167,486.667 364.833,486.667 358.5,486C 361.996,478.343 364.996,470.51 367.5,462.5 Z"/></g>
<g><path style="opacity:0.931" fill="#4c1c94" d="M 405.5,443.5 C 411.167,443.5 416.833,443.5 422.5,443.5C 422.5,462.5 422.5,481.5 422.5,500.5C 432.833,500.5 443.167,500.5 453.5,500.5C 453.5,505.5 453.5,510.5 453.5,515.5C 437.5,515.5 421.5,515.5 405.5,515.5C 405.5,491.5 405.5,467.5 405.5,443.5 Z"/></g>
<g><path style="opacity:0.918" fill="#4c1c95" d="M 455.5,443.5 C 461.167,443.5 466.833,443.5 472.5,443.5C 472.5,467.5 472.5,491.5 472.5,515.5C 466.833,515.5 461.167,515.5 455.5,515.5C 455.5,491.5 455.5,467.5 455.5,443.5 Z"/></g>
<g><path style="opacity:0.96" fill="#4c1d95" d="M 474.5,443.5 C 499.836,443.333 525.169,443.5 550.5,444C 554.461,451.422 558.294,458.922 562,466.5C 562.941,468.061 564.108,469.395 565.5,470.5C 571.117,462.108 576.117,453.274 580.5,444C 586.528,443.17 592.528,443.336 598.5,444.5C 590.839,459.159 582.673,473.492 574,487.5C 573.5,496.827 573.334,506.161 573.5,515.5C 567.833,515.5 562.167,515.5 556.5,515.5C 556.666,506.161 556.5,496.827 556,487.5C 548.162,475.161 540.828,462.494 534,449.5C 533.502,452.482 533.335,455.482 533.5,458.5C 526.5,458.5 519.5,458.5 512.5,458.5C 512.5,477.5 512.5,496.5 512.5,515.5C 506.833,515.5 501.167,515.5 495.5,515.5C 495.5,496.5 495.5,477.5 495.5,458.5C 488.5,458.5 481.5,458.5 474.5,458.5C 474.5,453.5 474.5,448.5 474.5,443.5 Z"/></g>
</svg>
