<?xml version="1.0" encoding="UTF-8"?>
<!DOCTYPE svg PUBLIC "-//W3C//DTD SVG 1.1//EN" "http://www.w3.org/Graphics/SVG/1.1/DTD/svg11.dtd">
<svg xmlns="http://www.w3.org/2000/svg" version="1.1" width="800px" height="663px" style="shape-rendering:geometricPrecision; text-rendering:geometricPrecision; image-rendering:optimizeQuality; fill-rule:evenodd; clip-rule:evenodd" xmlns:xlink="http://www.w3.org/1999/xlink">
<g><path style="opacity:0.949" fill="#4c1c94" d="M 398.5,-0.5 C 399.5,-0.5 400.5,-0.5 401.5,-0.5C 409.495,8.32823 417.995,16.6616 427,24.5C 436.845,17.5793 446.845,10.9126 457,4.5C 464.818,14.1093 472.651,23.776 480.5,33.5C 491.09,28.6376 501.756,23.9709 512.5,19.5C 513.167,19.8333 513.833,20.1667 514.5,20.5C 519.5,30.5 524.5,40.5 529.5,50.5C 530.333,50.8333 531.167,51.1667 532,51.5C 543.032,48.9603 554.032,46.2936 565,43.5C 565.5,43.8333 566,44.1667 566.5,44.5C 569.844,56.2069 573.344,67.8735 577,79.5C 589.106,78.3477 601.273,77.3477 613.5,76.5C 615.125,88.7942 616.459,101.128 617.5,113.5C 629.824,114.899 642.157,116.232 654.5,117.5C 653.666,129.834 653.166,142.167 653,154.5C 664.344,158.337 675.844,161.67 687.5,164.5C 685.381,176.142 682.714,187.642 679.5,199C 719.571,199.173 759.571,199.673 799.5,200.5C 799.5,203.167 799.5,205.833 799.5,208.5C 786.33,249.347 773.33,290.347 760.5,331.5C 773.137,376.397 786.137,421.064 799.5,465.5C 799.5,468.5 799.5,471.5 799.5,474.5C 760.567,475.161 721.567,475.828 682.5,476.5C 684.8,483.7 686.467,491.033 687.5,498.5C 675.839,501.29 664.339,504.623 653,508.5C 653.166,520.833 653.666,533.166 654.5,545.5C 642.128,546.541 629.794,547.875 617.5,549.5C 616.364,561.862 615.031,574.196 613.5,586.5C 601.086,585.119 588.753,584.452 576.5,584.5C 573.008,596.135 569.675,607.802 566.5,619.5C 554.546,616.887 542.713,613.887 531,610.5C 525.245,621.01 519.745,631.677 514.5,642.5C 513.833,642.833 513.167,643.167 512.5,643.5C 501.838,638.836 491.172,634.17 480.5,629.5C 472.433,639.058 464.6,648.724 457,658.5C 446.845,652.087 436.845,645.421 427,638.5C 418.355,645.978 410.189,653.978 402.5,662.5C 400.5,662.5 398.5,662.5 396.5,662.5C 395.918,661.069 395.085,659.736 394,658.5C 386.697,652.198 379.697,645.532 373,638.5C 362.969,645.363 352.802,652.03 342.5,658.5C 334.453,649.121 326.786,639.455 319.5,629.5C 309.167,634 298.833,638.5 288.5,643C 287.5,643.667 286.5,643.667 285.5,643C 279.872,632.245 274.372,621.411 269,610.5C 257.257,613.98 245.423,616.813 233.5,619C 229.828,607.318 226.161,595.651 222.5,584C 210.209,584.539 197.876,585.373 185.5,586.5C 184.777,573.979 183.11,561.645 180.5,549.5C 168.571,547.656 156.571,546.323 144.5,545.5C 145.335,533.471 146.335,521.471 147.5,509.5C 147.291,508.914 146.957,508.414 146.5,508C 134.902,504.727 123.402,501.227 112,497.5C 113.421,490.232 114.921,482.898 116.5,475.5C 78.1652,475.667 39.8319,475.5 1.5,475C 0.955796,474.283 0.28913,473.783 -0.5,473.5C -0.5,471.167 -0.5,468.833 -0.5,466.5C 11.1173,421.772 22.1173,376.772 32.5,331.5C 22.0959,289.875 11.0959,248.542 -0.5,207.5C -0.5,205.5 -0.5,203.5 -0.5,201.5C 0.28913,201.217 0.955796,200.717 1.5,200C 40.8319,199.5 80.1653,199.333 119.5,199.5C 116.832,187.827 114.166,176.16 111.5,164.5C 123.821,161.755 135.821,158.088 147.5,153.5C 146.412,141.523 145.412,129.523 144.5,117.5C 156.852,116.313 169.185,114.979 181.5,113.5C 183.125,101.206 184.459,88.8724 185.5,76.5C 198.141,77.5817 210.807,78.2483 223.5,78.5C 226.29,66.8392 229.623,55.3392 233.5,44C 245.429,46.6483 257.429,48.9817 269.5,51C 274.833,40.6667 280.167,30.3333 285.5,20C 287.553,19.6753 289.553,20.0087 291.5,21C 300.715,25.4412 310.049,29.6078 319.5,33.5C 326.803,23.6951 334.303,14.0284 342,4.5C 352.592,10.7572 362.925,17.4239 373,24.5C 381.395,15.937 389.895,7.60366 398.5,-0.5 Z M 398.5,12.5 C 408.001,19.7805 417.001,27.7805 425.5,36.5C 435.338,30.4154 445.004,24.082 454.5,17.5C 462.234,26.7244 469.734,36.0577 477,45.5C 487.441,40.696 497.941,36.0294 508.5,31.5C 514.167,42.1667 519.833,52.8333 525.5,63.5C 536.683,60.036 548.016,57.536 559.5,56C 563.01,67.194 566.51,78.3606 570,89.5C 581.785,88.398 593.619,87.398 605.5,86.5C 606.5,98.5007 607.5,110.501 608.5,122.5C 620.234,123.373 631.901,124.707 643.5,126.5C 643.833,127.833 644.167,129.167 644.5,130.5C 643.435,141.144 642.768,151.81 642.5,162.5C 654.016,165.212 665.35,168.546 676.5,172.5C 673.287,183.738 670.787,195.072 669,206.5C 679.434,211.632 689.601,217.132 699.5,223C 695.245,233.677 690.579,244.177 685.5,254.5C 695.026,261.859 704.692,269.026 714.5,276C 707.71,285.747 701.043,295.58 694.5,305.5C 702.868,313.866 710.868,322.533 718.5,331.5C 710.868,340.467 702.868,349.134 694.5,357.5C 701.009,367.43 707.675,377.263 714.5,387C 704.833,394 695.167,401 685.5,408C 690.433,418.534 695.1,429.201 699.5,440C 689.736,445.435 679.736,450.602 669.5,455.5C 668.369,457.074 668.202,458.741 669,460.5C 671.504,470.515 674.004,480.515 676.5,490.5C 665.352,494.438 654.018,497.771 642.5,500.5C 642.945,512.514 643.612,524.514 644.5,536.5C 632.531,538.052 620.531,539.385 608.5,540.5C 607.664,552.525 606.497,564.525 605,576.5C 593.889,575.398 582.722,574.398 571.5,573.5C 570.353,573.818 569.519,574.484 569,575.5C 565.905,586.051 562.739,596.551 559.5,607C 548.086,605.148 536.753,602.648 525.5,599.5C 519.833,610.167 514.167,620.833 508.5,631.5C 498.177,626.421 487.677,621.755 477,617.5C 469.694,626.738 462.36,636.071 455,645.5C 445.323,639.151 435.656,632.818 426,626.5C 416.744,633.751 408.078,641.751 400,650.5C 391.322,642.487 382.655,634.487 374,626.5C 363.928,632.453 354.095,638.787 344.5,645.5C 337.548,635.88 330.215,626.546 322.5,617.5C 311.926,622.038 301.426,626.705 291,631.5C 285.405,620.638 279.571,609.972 273.5,599.5C 262.307,602.798 250.973,605.465 239.5,607.5C 236.498,596.161 233.498,584.827 230.5,573.5C 218.612,574.392 206.779,575.392 195,576.5C 193.04,564.57 191.54,552.57 190.5,540.5C 178.437,539.401 166.437,537.901 154.5,536C 155.608,524.221 156.608,512.388 157.5,500.5C 146.086,497.813 134.753,494.813 123.5,491.5C 125.534,480.031 128.201,468.697 131.5,457.5C 121.028,451.429 110.362,445.595 99.5,440C 104.295,429.574 108.962,419.074 113.5,408.5C 104.167,401.167 94.8333,393.833 85.5,386.5C 92.082,377.004 98.4154,367.338 104.5,357.5C 96.8679,348.533 88.8679,339.866 80.5,331.5C 88.8679,323.134 96.8679,314.467 104.5,305.5C 98.4154,295.662 92.082,285.996 85.5,276.5C 94.3582,269.148 103.525,262.148 113,255.5C 109.119,244.383 104.619,233.383 99.5,222.5C 110.487,217.341 121.153,211.674 131.5,205.5C 128.521,194.919 125.855,184.252 123.5,173.5C 123.833,172.833 124.167,172.167 124.5,171.5C 135.385,168.26 146.219,164.927 157,161.5C 156.644,149.965 155.81,138.465 154.5,127C 166.38,124.809 178.38,123.309 190.5,122.5C 191.615,110.469 192.948,98.4694 194.5,86.5C 206.058,87.3474 217.558,88.3474 229,89.5C 233.123,78.0197 236.789,66.3531 240,54.5C 251.295,57.657 262.628,60.657 274,63.5C 279.652,52.8648 285.319,42.1982 291,31.5C 301.395,36.2785 311.895,40.9451 322.5,45.5C 329.822,36.2056 337.156,26.8723 344.5,17.5C 354.338,23.5846 364.004,29.918 373.5,36.5C 382.487,29.1795 390.82,21.1795 398.5,12.5 Z M 384.5,64.5 C 388.5,64.5 392.5,64.5 396.5,64.5C 396.816,72.7524 396.482,80.919 395.5,89C 376.957,89.0962 358.791,91.5962 341,96.5C 338.207,88.6608 336.04,80.6608 334.5,72.5C 351.106,68.6061 367.773,65.9394 384.5,64.5 Z M 403.5,64.5 C 424.636,64.5877 445.303,67.5877 465.5,73.5C 463.179,81.1164 461.012,88.7831 459,96.5C 441.184,91.7645 423.017,89.2645 404.5,89C 403.518,80.919 403.184,72.7524 403.5,64.5 Z M 325.5,74.5 C 327.293,74.8836 328.293,76.0503 328.5,78C 330.407,84.796 332.074,91.6293 333.5,98.5C 315.395,103.134 298.228,110.134 282,119.5C 277.959,112.583 273.792,105.75 269.5,99C 287.376,88.8922 306.043,80.7255 325.5,74.5 Z M 471.5,74.5 C 492.049,79.8477 511.382,88.0144 529.5,99C 525.626,105.915 521.626,112.749 517.5,119.5C 500.93,110.419 483.596,103.086 465.5,97.5C 467.971,89.949 469.971,82.2823 471.5,74.5 Z M 261.5,102.5 C 262.675,102.281 263.675,102.614 264.5,103.5C 268.419,109.67 272.086,116.003 275.5,122.5C 259.305,132.358 244.472,144.025 231,157.5C 225.167,151.667 219.333,145.833 213.5,140C 228.663,126.273 244.663,113.773 261.5,102.5 Z M 535.5,102.5 C 553.968,112.45 570.635,124.95 585.5,140C 580.167,145.333 574.833,150.667 569.5,156C 568.833,156.667 568.167,156.667 567.5,156C 554.248,143.076 539.581,132.076 523.5,123C 527.385,116.057 531.385,109.224 535.5,102.5 Z M 398.5,104.5 C 487.313,107.96 554.146,147.627 599,223.5C 638.749,303.522 635.082,381.522 588,457.5C 537.141,528.007 467.975,561.174 380.5,557C 305.594,548.819 247.76,513.319 207,450.5C 170.179,387.954 163.512,322.288 187,253.5C 216.007,180.832 268.173,133.665 343.5,112C 361.751,107.762 380.084,105.262 398.5,104.5 Z M 208.5,144.5 C 214.631,150.13 220.631,155.964 226.5,162C 212.766,175.392 200.932,190.225 191,206.5C 184.167,202.333 177.333,198.167 170.5,194C 181.852,176.449 194.519,159.949 208.5,144.5 Z M 589.5,145.5 C 590.239,145.369 590.906,145.536 591.5,146C 605.755,160.58 618.088,176.58 628.5,194C 621.917,198.543 615.083,202.71 608,206.5C 598.029,190.523 586.529,175.69 573.5,162C 579.036,156.631 584.37,151.131 589.5,145.5 Z M 166.5,200.5 C 173.804,204.152 180.804,208.319 187.5,213C 178.904,229.686 171.57,246.852 165.5,264.5C 157.794,262.49 150.128,260.323 142.5,258C 149.004,238.166 157.004,218.999 166.5,200.5 Z M 631.5,200.5 C 642.228,218.304 650.561,237.304 656.5,257.5C 648.724,260.446 640.724,262.779 632.5,264.5C 627.866,246.395 620.866,229.228 611.5,213C 618.063,208.558 624.729,204.391 631.5,200.5 Z M 10.5,208.5 C 39.5019,208.333 68.5019,208.5 97.5,209C 94.1667,210.667 90.8333,212.333 87.5,214C 86.1059,214.956 85.4393,216.289 85.5,218C 89.8762,228.756 94.5428,239.423 99.5,250C 90.8333,256.333 82.1667,262.667 73.5,269C 70.4817,271.073 69.8151,273.74 71.5,277C 77.702,285.701 83.702,294.534 89.5,303.5C 82.5498,311.952 75.0498,319.952 67,327.5C 66.2189,328.729 65.7189,330.062 65.5,331.5C 66.4295,333.606 67.5962,335.606 69,337.5C 76.0147,344.348 82.848,351.348 89.5,358.5C 83.5817,368.005 77.4151,377.338 71,386.5C 70.2446,389.497 71.0779,391.997 73.5,394C 82.4472,399.947 91.1138,406.28 99.5,413C 94.8101,422.732 90.3101,432.565 86,442.5C 85.3333,444.167 85.3333,445.833 86,447.5C 95.93,453.216 106.097,458.549 116.5,463.5C 117.386,464.325 117.719,465.325 117.5,466.5C 81.8333,466.5 46.1667,466.5 10.5,466.5C 21.0078,421.469 31.6745,376.469 42.5,331.5C 31.9884,290.454 21.3218,249.454 10.5,208.5 Z M 240.5,208.5 C 346.501,208.333 452.501,208.5 558.5,209C 591.681,252.539 605.181,301.706 599,356.5C 593.334,398.321 576.501,434.821 548.5,466C 449.165,466.833 349.832,466.667 250.5,465.5C 198.826,404.287 185.993,335.62 212,259.5C 219.468,241.217 228.968,224.217 240.5,208.5 Z M 702.5,209.5 C 730.995,208.502 759.662,208.169 788.5,208.5C 775.94,249.348 763.273,290.181 750.5,331C 763.486,376.117 776.152,421.284 788.5,466.5C 752.833,466.5 717.167,466.5 681.5,466.5C 681.281,465.325 681.614,464.325 682.5,463.5C 692.903,458.549 703.07,453.216 713,447.5C 713.667,445.5 713.667,443.5 713,441.5C 708.736,432.208 704.57,422.875 700.5,413.5C 708.048,406.79 716.048,400.624 724.5,395C 728.644,392.28 729.477,388.78 727,384.5C 721.167,376 715.333,367.5 709.5,359C 716.969,350.53 724.802,342.363 733,334.5C 733.667,332.5 733.667,330.5 733,328.5C 725.531,320.03 717.698,311.863 709.5,304C 717.245,294.669 723.578,284.502 728.5,273.5C 728.43,272.228 728.097,271.062 727.5,270C 718.05,263.711 709.05,256.878 700.5,249.5C 705.121,239.261 709.455,228.928 713.5,218.5C 713.563,216.519 712.896,214.852 711.5,213.5C 708.596,211.88 705.596,210.547 702.5,209.5 Z M 303.5,239.5 C 316.478,238.35 320.144,243.516 314.5,255C 310.974,256.337 307.308,256.837 303.5,256.5C 303.5,250.833 303.5,245.167 303.5,239.5 Z M 657.5,264.5 C 660.013,271.533 661.846,278.866 663,286.5C 665.279,300.073 666.446,313.74 666.5,327.5C 658.5,327.5 650.5,327.5 642.5,327.5C 641.725,308.298 639.391,289.298 635.5,270.5C 643.101,269.102 650.434,267.102 657.5,264.5 Z M 140.5,265.5 C 147.266,266.475 153.932,267.975 160.5,270C 162.286,270.196 163.619,271.029 164.5,272.5C 159.643,290.503 157.309,308.836 157.5,327.5C 149.167,327.5 140.833,327.5 132.5,327.5C 133.05,306.55 135.716,285.884 140.5,265.5 Z M 303.5,274.5 C 317.045,272.197 321.712,277.364 317.5,290C 313.078,292.104 308.412,292.937 303.5,292.5C 303.5,286.5 303.5,280.5 303.5,274.5 Z M 132.5,333.5 C 140.752,333.184 148.919,333.518 157,334.5C 157.171,353.362 159.671,371.862 164.5,390C 156.783,392.012 149.116,394.179 141.5,396.5C 135.64,375.957 132.64,354.957 132.5,333.5 Z M 642.5,333.5 C 650.5,333.5 658.5,333.5 666.5,333.5C 666.463,354.462 663.963,375.129 659,395.5C 658.586,395.957 658.086,396.291 657.5,396.5C 650.241,394.185 642.908,392.185 635.5,390.5C 639.72,371.741 642.053,352.741 642.5,333.5 Z M 281.5,338.5 C 295.786,337.037 301.286,343.371 298,357.5C 297.215,359.286 296.049,360.786 294.5,362C 290.27,363.29 285.936,363.79 281.5,363.5C 281.5,355.167 281.5,346.833 281.5,338.5 Z M 345.5,338.5 C 360.211,337.678 365.044,344.344 360,358.5C 355.872,362.028 351.039,363.362 345.5,362.5C 345.5,354.5 345.5,346.5 345.5,338.5 Z M 164.5,396.5 C 165.117,396.611 165.617,396.944 166,397.5C 171.106,415.543 178.272,432.709 187.5,449C 180.893,453.22 174.06,457.054 167,460.5C 156.226,442.697 148.059,423.697 142.5,403.5C 149.941,401.147 157.274,398.814 164.5,396.5 Z M 633.5,396.5 C 641.022,398.964 648.689,400.964 656.5,402.5C 651.465,423.244 643.631,442.911 633,461.5C 626.01,457.33 619.177,452.997 612.5,448.5C 621.466,431.932 628.466,414.598 633.5,396.5 Z M 373.5,425.5 C 375.857,425.337 378.19,425.503 380.5,426C 383.133,429.799 383.133,433.633 380.5,437.5C 378.253,438.374 375.92,438.708 373.5,438.5C 373.5,434.167 373.5,429.833 373.5,425.5 Z M 401.5,429.5 C 403.278,434.272 404.611,439.272 405.5,444.5C 403.076,444.808 400.743,444.474 398.5,443.5C 400.012,438.94 401.012,434.274 401.5,429.5 Z M 351.5,431.5 C 352.586,431.62 353.253,432.287 353.5,433.5C 354.273,437.096 355.273,440.596 356.5,444C 354.19,444.497 351.857,444.663 349.5,444.5C 350.167,440.167 350.833,435.833 351.5,431.5 Z M 189.5,455.5 C 190.496,455.414 191.329,455.748 192,456.5C 201.351,472.353 212.517,486.853 225.5,500C 219.985,505.682 214.319,511.182 208.5,516.5C 193.57,501.906 180.904,485.573 170.5,467.5C 176.693,463.239 183.026,459.239 189.5,455.5 Z M 607.5,455.5 C 614.897,459.028 622.231,462.862 629.5,467C 618.639,484.89 605.972,501.39 591.5,516.5C 585.681,511.182 580.015,505.682 574.5,500C 587.669,486.68 598.669,471.846 607.5,455.5 Z M 229.5,505.5 C 243.751,517.961 258.751,529.461 274.5,540C 270.547,546.737 266.714,553.57 263,560.5C 245.069,549.577 228.569,536.744 213.5,522C 219.036,516.631 224.37,511.131 229.5,505.5 Z M 568.5,505.5 C 574.909,510.403 580.909,515.903 586.5,522C 571.431,536.744 554.931,549.577 537,560.5C 532.833,553.667 528.667,546.833 524.5,540C 540.525,530.131 555.191,518.631 568.5,505.5 Z M 280.5,543.5 C 297.582,552.206 315.248,559.54 333.5,565.5C 331.179,573.116 329.012,580.783 327,588.5C 306.655,582.741 287.488,574.408 269.5,563.5C 273.179,556.806 276.846,550.14 280.5,543.5 Z M 516.5,543.5 C 517.675,543.281 518.675,543.614 519.5,544.5C 523.04,551.081 526.707,557.581 530.5,564C 512.169,574.111 493.002,582.278 473,588.5C 470.534,581.315 468.368,573.981 466.5,566.5C 466.833,565.833 467.167,565.167 467.5,564.5C 484.746,559.37 501.079,552.37 516.5,543.5 Z M 339.5,566.5 C 358.152,571.529 377.152,573.863 396.5,573.5C 396.5,581.833 396.5,590.167 396.5,598.5C 375.088,598.196 354.088,595.196 333.5,589.5C 335.973,581.943 337.973,574.276 339.5,566.5 Z M 457.5,566.5 C 458.75,566.577 459.583,567.244 460,568.5C 462.15,575.768 463.984,583.101 465.5,590.5C 445.096,595.129 424.429,597.796 403.5,598.5C 403.5,590.167 403.5,581.833 403.5,573.5C 421.971,573.764 439.971,571.431 457.5,566.5 Z"/></g>
<g><path style="opacity:0.962" fill="#4c1c94" d="M 377.5,52.5 C 475.006,47.919 555.173,82.5857 618,156.5C 677.546,235.245 693.546,322.245 666,417.5C 633.766,508.402 571.933,568.902 480.5,599C 385.235,624.742 298.901,607.409 221.5,547C 137.814,472.613 106.314,380.113 127,269.5C 150.358,178.154 204.858,112.987 290.5,74C 318.581,62.5628 347.581,55.3961 377.5,52.5 Z M 384.5,64.5 C 367.773,65.9394 351.106,68.6061 334.5,72.5C 336.04,80.6608 338.207,88.6608 341,96.5C 358.791,91.5962 376.957,89.0962 395.5,89C 396.482,80.919 396.816,72.7524 396.5,64.5C 392.5,64.5 388.5,64.5 384.5,64.5 Z M 403.5,64.5 C 403.184,72.7524 403.518,80.919 404.5,89C 423.017,89.2645 441.184,91.7645 459,96.5C 461.012,88.7831 463.179,81.1164 465.5,73.5C 445.303,67.5877 424.636,64.5877 403.5,64.5 Z M 325.5,74.5 C 306.043,80.7255 287.376,88.8922 269.5,99C 273.792,105.75 277.959,112.583 282,119.5C 298.228,110.134 315.395,103.134 333.5,98.5C 332.074,91.6293 330.407,84.796 328.5,78C 328.293,76.0503 327.293,74.8836 325.5,74.5 Z M 471.5,74.5 C 469.971,82.2823 467.971,89.949 465.5,97.5C 483.596,103.086 500.93,110.419 517.5,119.5C 521.626,112.749 525.626,105.915 529.5,99C 511.382,88.0144 492.049,79.8477 471.5,74.5 Z M 261.5,102.5 C 244.663,113.773 228.663,126.273 213.5,140C 219.333,145.833 225.167,151.667 231,157.5C 244.472,144.025 259.305,132.358 275.5,122.5C 272.086,116.003 268.419,109.67 264.5,103.5C 263.675,102.614 262.675,102.281 261.5,102.5 Z M 535.5,102.5 C 531.385,109.224 527.385,116.057 523.5,123C 539.581,132.076 554.248,143.076 567.5,156C 568.167,156.667 568.833,156.667 569.5,156C 574.833,150.667 580.167,145.333 585.5,140C 570.635,124.95 553.968,112.45 535.5,102.5 Z M 398.5,104.5 C 380.084,105.262 361.751,107.762 343.5,112C 268.173,133.665 216.007,180.832 187,253.5C 163.512,322.288 170.179,387.954 207,450.5C 247.76,513.319 305.594,548.819 380.5,557C 467.975,561.174 537.141,528.007 588,457.5C 635.082,381.522 638.749,303.522 599,223.5C 554.146,147.627 487.313,107.96 398.5,104.5 Z M 208.5,144.5 C 194.519,159.949 181.852,176.449 170.5,194C 177.333,198.167 184.167,202.333 191,206.5C 200.932,190.225 212.766,175.392 226.5,162C 220.631,155.964 214.631,150.13 208.5,144.5 Z M 589.5,145.5 C 584.37,151.131 579.036,156.631 573.5,162C 586.529,175.69 598.029,190.523 608,206.5C 615.083,202.71 621.917,198.543 628.5,194C 618.088,176.58 605.755,160.58 591.5,146C 590.906,145.536 590.239,145.369 589.5,145.5 Z M 166.5,200.5 C 157.004,218.999 149.004,238.166 142.5,258C 150.128,260.323 157.794,262.49 165.5,264.5C 171.57,246.852 178.904,229.686 187.5,213C 180.804,208.319 173.804,204.152 166.5,200.5 Z M 631.5,200.5 C 624.729,204.391 618.063,208.558 611.5,213C 620.866,229.228 627.866,246.395 632.5,264.5C 640.724,262.779 648.724,260.446 656.5,257.5C 650.561,237.304 642.228,218.304 631.5,200.5 Z M 240.5,208.5 C 228.968,224.217 219.468,241.217 212,259.5C 185.993,335.62 198.826,404.287 250.5,465.5C 349.832,466.667 449.165,466.833 548.5,466C 576.501,434.821 593.334,398.321 599,356.5C 605.181,301.706 591.681,252.539 558.5,209C 452.501,208.5 346.501,208.333 240.5,208.5 Z M 303.5,239.5 C 303.5,245.167 303.5,250.833 303.5,256.5C 307.308,256.837 310.974,256.337 314.5,255C 320.144,243.516 316.478,238.35 303.5,239.5 Z M 657.5,264.5 C 650.434,267.102 643.101,269.102 635.5,270.5C 639.391,289.298 641.725,308.298 642.5,327.5C 650.5,327.5 658.5,327.5 666.5,327.5C 666.446,313.74 665.279,300.073 663,286.5C 661.846,278.866 660.013,271.533 657.5,264.5 Z M 140.5,265.5 C 135.716,285.884 133.05,306.55 132.5,327.5C 140.833,327.5 149.167,327.5 157.5,327.5C 157.309,308.836 159.643,290.503 164.5,272.5C 163.619,271.029 162.286,270.196 160.5,270C 153.932,267.975 147.266,266.475 140.5,265.5 Z M 303.5,274.5 C 303.5,280.5 303.5,286.5 303.5,292.5C 308.412,292.937 313.078,292.104 317.5,290C 321.712,277.364 317.045,272.197 303.5,274.5 Z M 132.5,333.5 C 132.64,354.957 135.64,375.957 141.5,396.5C 149.116,394.179 156.783,392.012 164.5,390C 159.671,371.862 157.171,353.362 157,334.5C 148.919,333.518 140.752,333.184 132.5,333.5 Z M 642.5,333.5 C 642.053,352.741 639.72,371.741 635.5,390.5C 642.908,392.185 650.241,394.185 657.5,396.5C 658.086,396.291 658.586,395.957 659,395.5C 663.963,375.129 666.463,354.462 666.5,333.5C 658.5,333.5 650.5,333.5 642.5,333.5 Z M 281.5,338.5 C 281.5,346.833 281.5,355.167 281.5,363.5C 285.936,363.79 290.27,363.29 294.5,362C 296.049,360.786 297.215,359.286 298,357.5C 301.286,343.371 295.786,337.037 281.5,338.5 Z M 345.5,338.5 C 345.5,346.5 345.5,354.5 345.5,362.5C 351.039,363.362 355.872,362.028 360,358.5C 365.044,344.344 360.211,337.678 345.5,338.5 Z M 164.5,396.5 C 157.274,398.814 149.941,401.147 142.5,403.5C 148.059,423.697 156.226,442.697 167,460.5C 174.06,457.054 180.893,453.22 187.5,449C 178.272,432.709 171.106,415.543 166,397.5C 165.617,396.944 165.117,396.611 164.5,396.5 Z M 633.5,396.5 C 628.466,414.598 621.466,431.932 612.5,448.5C 619.177,452.997 626.01,457.33 633,461.5C 643.631,442.911 651.465,423.244 656.5,402.5C 648.689,400.964 641.022,398.964 633.5,396.5 Z M 373.5,425.5 C 373.5,429.833 373.5,434.167 373.5,438.5C 375.92,438.708 378.253,438.374 380.5,437.5C 383.133,433.633 383.133,429.799 380.5,426C 378.19,425.503 375.857,425.337 373.5,425.5 Z M 401.5,429.5 C 401.012,434.274 400.012,438.94 398.5,443.5C 400.743,444.474 403.076,444.808 405.5,444.5C 404.611,439.272 403.278,434.272 401.5,429.5 Z M 351.5,431.5 C 350.833,435.833 350.167,440.167 349.5,444.5C 351.857,444.663 354.19,444.497 356.5,444C 355.273,440.596 354.273,437.096 353.5,433.5C 353.253,432.287 352.586,431.62 351.5,431.5 Z M 189.5,455.5 C 183.026,459.239 176.693,463.239 170.5,467.5C 180.904,485.573 193.57,501.906 208.5,516.5C 214.319,511.182 219.985,505.682 225.5,500C 212.517,486.853 201.351,472.353 192,456.5C 191.329,455.748 190.496,455.414 189.5,455.5 Z M 607.5,455.5 C 598.669,471.846 587.669,486.68 574.5,500C 580.015,505.682 585.681,511.182 591.5,516.5C 605.972,501.39 618.639,484.89 629.5,467C 622.231,462.862 614.897,459.028 607.5,455.5 Z M 229.5,505.5 C 224.37,511.131 219.036,516.631 213.5,522C 228.569,536.744 245.069,549.577 263,560.5C 266.714,553.57 270.547,546.737 274.5,540C 258.751,529.461 243.751,517.961 229.5,505.5 Z M 568.5,505.5 C 555.191,518.631 540.525,530.131 524.5,540C 528.667,546.833 532.833,553.667 537,560.5C 554.931,549.577 571.431,536.744 586.5,522C 580.909,515.903 574.909,510.403 568.5,505.5 Z M 280.5,543.5 C 276.846,550.14 273.179,556.806 269.5,563.5C 287.488,574.408 306.655,582.741 327,588.5C 329.012,580.783 331.179,573.116 333.5,565.5C 315.248,559.54 297.582,552.206 280.5,543.5 Z M 516.5,543.5 C 501.079,552.37 484.746,559.37 467.5,564.5C 467.167,565.167 466.833,565.833 466.5,566.5C 468.368,573.981 470.534,581.315 473,588.5C 493.002,582.278 512.169,574.111 530.5,564C 526.707,557.581 523.04,551.081 519.5,544.5C 518.675,543.614 517.675,543.281 516.5,543.5 Z M 339.5,566.5 C 337.973,574.276 335.973,581.943 333.5,589.5C 354.088,595.196 375.088,598.196 396.5,598.5C 396.5,590.167 396.5,581.833 396.5,573.5C 377.152,573.863 358.152,571.529 339.5,566.5 Z M 457.5,566.5 C 439.971,571.431 421.971,573.764 403.5,573.5C 403.5,581.833 403.5,590.167 403.5,598.5C 424.429,597.796 445.096,595.129 465.5,590.5C 463.984,583.101 462.15,575.768 460,568.5C 459.583,567.244 458.75,566.577 457.5,566.5 Z"/></g>
<g><path style="opacity:0.957" fill="#4c1c94" d="M 402.5,131.5 C 405.276,137.555 407.609,143.888 409.5,150.5C 416.142,151.331 422.809,151.831 429.5,152C 424.167,156 418.833,160 413.5,164C 416.353,170.027 418.02,176.194 418.5,182.5C 413.194,179.028 408.028,175.361 403,171.5C 397.921,175.29 392.755,178.956 387.5,182.5C 387.167,182 386.833,181.5 386.5,181C 388.369,175.725 390.036,170.392 391.5,165C 391.167,164.167 390.833,163.333 390.5,162.5C 385.975,158.808 381.308,155.308 376.5,152C 383.158,151.5 389.825,151.334 396.5,151.5C 398.297,144.774 400.297,138.108 402.5,131.5 Z"/></g>
<g><path style="opacity:0.925" fill="#4c1c94" d="M 339.5,146.5 C 341.717,149.777 343.384,153.444 344.5,157.5C 348.796,158.328 353.129,158.828 357.5,159C 353.995,161.675 350.661,164.509 347.5,167.5C 349.482,171.058 350.149,174.725 349.5,178.5C 346.633,176.238 343.633,174.238 340.5,172.5C 337.205,174.485 333.871,176.485 330.5,178.5C 330.767,174.971 331.767,171.304 333.5,167.5C 330.339,164.509 327.005,161.675 323.5,159C 327.821,158.501 332.154,158.334 336.5,158.5C 337.5,154.5 338.5,150.5 339.5,146.5 Z"/></g>
<g><path style="opacity:0.94" fill="#4c1c94" d="M 458.5,146.5 C 460.438,150.125 462.105,153.959 463.5,158C 467.541,158.173 471.541,158.673 475.5,159.5C 472.759,161.953 469.925,164.286 467,166.5C 467.028,170.284 467.861,173.951 469.5,177.5C 469.167,177.833 468.833,178.167 468.5,178.5C 465.193,176.36 462.026,174.026 459,171.5C 455.909,174.876 452.409,176.876 448.5,177.5C 449.809,174.264 450.809,170.931 451.5,167.5C 448.77,164.618 445.77,161.951 442.5,159.5C 446.459,158.673 450.459,158.173 454.5,158C 456.131,154.272 457.465,150.439 458.5,146.5 Z"/></g>
<g><path style="opacity:0.952" fill="#4c1c94" d="M 235.5,199.5 C 345.169,199.167 454.835,199.5 564.5,200.5C 608.526,258.639 620.693,322.973 601,393.5C 591.179,424.329 575.345,451.495 553.5,475C 450.833,475.667 348.167,475.667 245.5,475C 193.574,415.451 177.741,347.284 198,270.5C 206.333,244.495 218.833,220.829 235.5,199.5 Z M 240.5,208.5 C 228.968,224.217 219.468,241.217 212,259.5C 185.993,335.62 198.826,404.287 250.5,465.5C 349.832,466.667 449.165,466.833 548.5,466C 576.501,434.821 593.334,398.321 599,356.5C 605.181,301.706 591.681,252.539 558.5,209C 452.501,208.5 346.501,208.333 240.5,208.5 Z M 303.5,239.5 C 303.5,245.167 303.5,250.833 303.5,256.5C 307.308,256.837 310.974,256.337 314.5,255C 320.144,243.516 316.478,238.35 303.5,239.5 Z M 303.5,274.5 C 303.5,280.5 303.5,286.5 303.5,292.5C 308.412,292.937 313.078,292.104 317.5,290C 321.712,277.364 317.045,272.197 303.5,274.5 Z M 281.5,338.5 C 281.5,346.833 281.5,355.167 281.5,363.5C 285.936,363.79 290.27,363.29 294.5,362C 296.049,360.786 297.215,359.286 298,357.5C 301.286,343.371 295.786,337.037 281.5,338.5 Z M 345.5,338.5 C 345.5,346.5 345.5,354.5 345.5,362.5C 351.039,363.362 355.872,362.028 360,358.5C 365.044,344.344 360.211,337.678 345.5,338.5 Z M 373.5,425.5 C 373.5,429.833 373.5,434.167 373.5,438.5C 375.92,438.708 378.253,438.374 380.5,437.5C 383.133,433.633 383.133,429.799 380.5,426C 378.19,425.503 375.857,425.337 373.5,425.5 Z M 401.5,429.5 C 401.012,434.274 400.012,438.94 398.5,443.5C 400.743,444.474 403.076,444.808 405.5,444.5C 404.611,439.272 403.278,434.272 401.5,429.5 Z M 351.5,431.5 C 350.833,435.833 350.167,440.167 349.5,444.5C 351.857,444.663 354.19,444.497 356.5,444C 355.273,440.596 354.273,437.096 353.5,433.5C 353.253,432.287 352.586,431.62 351.5,431.5 Z"/></g>
<g><path style="opacity:0.973" fill="#4c1c94" d="M 427.5,219.5 C 445.67,219.174 455.336,228.007 456.5,246C 449.842,246.5 443.175,246.666 436.5,246.5C 436.334,239.191 432.667,236.691 425.5,239C 421.643,243.833 422.31,248.166 427.5,252C 437.947,256.8 446.78,263.633 454,272.5C 460.24,285.647 458.073,297.147 447.5,307C 435.5,313 423.5,313 411.5,307C 404.779,300.687 401.446,292.854 401.5,283.5C 408.167,283.5 414.833,283.5 421.5,283.5C 420.886,289.722 423.72,293.055 430,293.5C 436.565,292.729 438.898,289.062 437,282.5C 436.044,281.421 435.211,280.255 434.5,279C 426.404,273.869 418.571,268.369 411,262.5C 401.865,251.292 401.198,239.625 409,227.5C 414.386,222.769 420.553,220.102 427.5,219.5 Z"/></g>
<g><path style="opacity:0.963" fill="#4c1d94" d="M 284.5,221.5 C 295.172,221.333 305.839,221.5 316.5,222C 329.124,225.138 335.791,233.305 336.5,246.5C 336.122,253.306 333.789,259.306 329.5,264.5C 339.538,273.859 341.705,284.859 336,297.5C 331.05,305.444 323.883,309.611 314.5,310C 304.506,310.5 294.506,310.666 284.5,310.5C 284.5,280.833 284.5,251.167 284.5,221.5 Z M 303.5,239.5 C 303.5,245.167 303.5,250.833 303.5,256.5C 307.308,256.837 310.974,256.337 314.5,255C 320.144,243.516 316.478,238.35 303.5,239.5 Z M 303.5,274.5 C 303.5,280.5 303.5,286.5 303.5,292.5C 308.412,292.937 313.078,292.104 317.5,290C 321.712,277.364 317.045,272.197 303.5,274.5 Z"/></g>
<g><path style="opacity:0.962" fill="#4b1d95" d="M 348.5,221.5 C 363.833,221.5 379.167,221.5 394.5,221.5C 394.5,227.5 394.5,233.5 394.5,239.5C 385.5,239.5 376.5,239.5 367.5,239.5C 367.5,245.167 367.5,250.833 367.5,256.5C 375.833,256.5 384.167,256.5 392.5,256.5C 392.5,262.167 392.5,267.833 392.5,273.5C 384.167,273.5 375.833,273.5 367.5,273.5C 367.5,279.833 367.5,286.167 367.5,292.5C 377.167,292.5 386.833,292.5 396.5,292.5C 396.808,298.425 396.475,304.259 395.5,310C 379.837,310.5 364.17,310.667 348.5,310.5C 348.5,280.833 348.5,251.167 348.5,221.5 Z"/></g>
<g><path style="opacity:0.967" fill="#4b1c95" d="M 461.5,221.5 C 479.167,221.5 496.833,221.5 514.5,221.5C 514.5,227.5 514.5,233.5 514.5,239.5C 508.833,239.5 503.167,239.5 497.5,239.5C 497.5,263.167 497.5,286.833 497.5,310.5C 491.167,310.5 484.833,310.5 478.5,310.5C 478.5,286.833 478.5,263.167 478.5,239.5C 472.833,239.5 467.167,239.5 461.5,239.5C 461.5,233.5 461.5,227.5 461.5,221.5 Z"/></g>
<g><path style="opacity:0.973" fill="#4b1d95" d="M 443.5,319.5 C 466.061,316.413 478.061,326.08 479.5,348.5C 473.167,348.5 466.833,348.5 460.5,348.5C 460.364,340.528 456.364,337.028 448.5,338C 446.333,338.833 444.833,340.333 444,342.5C 443.032,358.259 443.365,373.926 445,389.5C 449.596,393.432 454.263,393.432 459,389.5C 459.96,387.02 460.793,384.52 461.5,382C 467.491,381.501 473.491,381.334 479.5,381.5C 478.176,404.863 465.843,414.363 442.5,410C 431.689,406.854 425.523,399.688 424,388.5C 423.333,372.833 423.333,357.167 424,341.5C 425.792,329.88 432.292,322.547 443.5,319.5 Z"/></g>
<g><path style="opacity:0.98" fill="#4c1c94" d="M 263.5,321.5 C 276.228,321.08 288.894,321.58 301.5,323C 309.493,326.326 314.659,332.159 317,340.5C 321.83,368.657 309.996,382.324 281.5,381.5C 281.5,390.833 281.5,400.167 281.5,409.5C 275.5,409.5 269.5,409.5 263.5,409.5C 263.5,380.167 263.5,350.833 263.5,321.5 Z M 281.5,338.5 C 281.5,346.833 281.5,355.167 281.5,363.5C 285.936,363.79 290.27,363.29 294.5,362C 296.049,360.786 297.215,359.286 298,357.5C 301.286,343.371 295.786,337.037 281.5,338.5 Z"/></g>
<g><path style="opacity:0.978" fill="#4c1c94" d="M 327.5,321.5 C 338.838,321.333 350.172,321.5 361.5,322C 375.066,326.769 381.732,336.436 381.5,351C 381.113,361.27 377.113,369.77 369.5,376.5C 374.833,387.167 380.167,397.833 385.5,408.5C 378.5,409.833 371.5,409.833 364.5,408.5C 360.333,399.5 356.167,390.5 352,381.5C 349.959,380.577 347.792,380.244 345.5,380.5C 345.5,390.167 345.5,399.833 345.5,409.5C 339.5,409.5 333.5,409.5 327.5,409.5C 327.5,380.167 327.5,350.833 327.5,321.5 Z M 345.5,338.5 C 345.5,346.5 345.5,354.5 345.5,362.5C 351.039,363.362 355.872,362.028 360,358.5C 365.044,344.344 360.211,337.678 345.5,338.5 Z"/></g>
<g><path style="opacity:0.968" fill="#4c1c95" d="M 392.5,321.5 C 398.833,321.5 405.167,321.5 411.5,321.5C 411.5,350.833 411.5,380.167 411.5,409.5C 405.167,409.5 398.833,409.5 392.5,409.5C 392.5,380.167 392.5,350.833 392.5,321.5 Z"/></g>
<g><path style="opacity:0.978" fill="#4c1c94" d="M 489.5,321.5 C 504.833,321.5 520.167,321.5 535.5,321.5C 535.5,327.167 535.5,332.833 535.5,338.5C 526.167,338.5 516.833,338.5 507.5,338.5C 507.5,344.167 507.5,349.833 507.5,355.5C 515.507,355.334 523.507,355.5 531.5,356C 532.475,361.741 532.808,367.575 532.5,373.5C 524.167,373.5 515.833,373.5 507.5,373.5C 507.5,379.5 507.5,385.5 507.5,391.5C 517.167,391.5 526.833,391.5 536.5,391.5C 536.5,397.5 536.5,403.5 536.5,409.5C 520.833,409.5 505.167,409.5 489.5,409.5C 489.5,380.167 489.5,350.833 489.5,321.5 Z"/></g>
<g><path style="opacity:0.903" fill="#4c1c94" d="M 297.5,419.5 C 306.205,418.875 310.871,422.875 311.5,431.5C 307.579,432.07 305.412,430.403 305,426.5C 301.729,423.803 298.729,424.136 296,427.5C 295.066,435.605 295.399,443.605 297,451.5C 299.667,452.833 302.333,452.833 305,451.5C 306.316,448.312 306.816,444.978 306.5,441.5C 304.5,441.5 302.5,441.5 300.5,441.5C 300.5,439.833 300.5,438.167 300.5,436.5C 304.167,436.5 307.833,436.5 311.5,436.5C 311.666,441.511 311.499,446.511 311,451.5C 307.723,457.109 302.89,458.942 296.5,457C 294.714,456.215 293.214,455.049 292,453.5C 290.389,444.268 290.055,434.935 291,425.5C 292.436,422.558 294.603,420.558 297.5,419.5 Z"/></g>
<g><path style="opacity:0.869" fill="#4c1d94" d="M 316.5,420.5 C 318.167,420.5 319.833,420.5 321.5,420.5C 321.334,429.839 321.5,439.173 322,448.5C 324.823,453.395 328.157,453.729 332,449.5C 332.5,439.839 332.666,430.172 332.5,420.5C 334.167,420.5 335.833,420.5 337.5,420.5C 337.666,430.839 337.5,441.172 337,451.5C 335.065,455.802 331.732,457.802 327,457.5C 321.729,457.869 318.396,455.536 317,450.5C 316.5,440.506 316.334,430.506 316.5,420.5 Z"/></g>
<g><path style="opacity:0.89" fill="#4c1c94" d="M 349.5,420.5 C 351.5,420.5 353.5,420.5 355.5,420.5C 358.656,432.792 361.656,445.125 364.5,457.5C 362.801,457.66 361.134,457.494 359.5,457C 358.802,454.546 357.802,452.213 356.5,450C 353.518,449.502 350.518,449.335 347.5,449.5C 348.229,455.142 345.895,457.809 340.5,457.5C 343.344,445.125 346.344,432.792 349.5,420.5 Z M 351.5,431.5 C 350.833,435.833 350.167,440.167 349.5,444.5C 351.857,444.663 354.19,444.497 356.5,444C 355.273,440.596 354.273,437.096 353.5,433.5C 353.253,432.287 352.586,431.62 351.5,431.5 Z"/></g>
<g><path style="opacity:0.931" fill="#4c1d94" d="M 367.5,420.5 C 373.762,419.872 379.762,420.705 385.5,423C 390.238,431.076 388.905,437.91 381.5,443.5C 384.167,447.833 386.833,452.167 389.5,456.5C 387.579,457.641 385.579,457.808 383.5,457C 381.055,452.069 378.055,447.569 374.5,443.5C 373.507,448.12 373.173,452.786 373.5,457.5C 371.5,457.5 369.5,457.5 367.5,457.5C 367.5,445.167 367.5,432.833 367.5,420.5 Z M 373.5,425.5 C 373.5,429.833 373.5,434.167 373.5,438.5C 375.92,438.708 378.253,438.374 380.5,437.5C 383.133,433.633 383.133,429.799 380.5,426C 378.19,425.503 375.857,425.337 373.5,425.5 Z"/></g>
<g><path style="opacity:0.882" fill="#4c1c94" d="M 399.5,420.5 C 401.467,420.261 403.301,420.594 405,421.5C 408.095,433.383 411.262,445.217 414.5,457C 412.527,457.495 410.527,457.662 408.5,457.5C 408.336,449.632 404.503,447.299 397,450.5C 396.338,452.813 395.838,455.146 395.5,457.5C 393.833,457.5 392.167,457.5 390.5,457.5C 392.889,445.003 395.889,432.67 399.5,420.5 Z M 401.5,429.5 C 401.012,434.274 400.012,438.94 398.5,443.5C 400.743,444.474 403.076,444.808 405.5,444.5C 404.611,439.272 403.278,434.272 401.5,429.5 Z"/></g>
<g><path style="opacity:0.893" fill="#4c1d95" d="M 417.5,420.5 C 419.467,420.261 421.301,420.594 423,421.5C 426.667,429.5 430.333,437.5 434,445.5C 433.595,437.226 433.428,428.893 433.5,420.5C 435.5,420.5 437.5,420.5 439.5,420.5C 439.5,432.833 439.5,445.167 439.5,457.5C 437.396,457.799 435.396,457.466 433.5,456.5C 430,448.833 426.5,441.167 423,433.5C 422.5,441.493 422.334,449.493 422.5,457.5C 420.833,457.5 419.167,457.5 417.5,457.5C 417.5,445.167 417.5,432.833 417.5,420.5 Z"/></g>
<g><path style="opacity:0.857" fill="#4c1d94" d="M 442.5,420.5 C 449.5,420.5 456.5,420.5 463.5,420.5C 463.5,422.167 463.5,423.833 463.5,425.5C 460.833,425.5 458.167,425.5 455.5,425.5C 455.5,436.167 455.5,446.833 455.5,457.5C 453.833,457.5 452.167,457.5 450.5,457.5C 450.5,446.833 450.5,436.167 450.5,425.5C 447.833,425.5 445.167,425.5 442.5,425.5C 442.5,423.833 442.5,422.167 442.5,420.5 Z"/></g>
<g><path style="opacity:0.91" fill="#4b1d95" d="M 466.5,420.5 C 472.833,420.5 479.167,420.5 485.5,420.5C 485.5,422.167 485.5,423.833 485.5,425.5C 481.167,425.5 476.833,425.5 472.5,425.5C 472.5,429.167 472.5,432.833 472.5,436.5C 476.5,436.5 480.5,436.5 484.5,436.5C 484.5,437.833 484.5,439.167 484.5,440.5C 480.5,440.5 476.5,440.5 472.5,440.5C 472.5,444.5 472.5,448.5 472.5,452.5C 476.833,452.5 481.167,452.5 485.5,452.5C 485.5,454.167 485.5,455.833 485.5,457.5C 479.167,457.5 472.833,457.5 466.5,457.5C 466.5,445.167 466.5,432.833 466.5,420.5 Z"/></g>
<g><path style="opacity:0.854" fill="#4c1d95" d="M 490.5,420.5 C 496.5,420.5 502.5,420.5 508.5,420.5C 508.5,422.167 508.5,423.833 508.5,425.5C 504.167,425.5 499.833,425.5 495.5,425.5C 495.5,429.167 495.5,432.833 495.5,436.5C 499.5,436.5 503.5,436.5 507.5,436.5C 507.5,437.833 507.5,439.167 507.5,440.5C 503.5,440.5 499.5,440.5 495.5,440.5C 495.5,444.5 495.5,448.5 495.5,452.5C 500.167,452.5 504.833,452.5 509.5,452.5C 509.5,454.167 509.5,455.833 509.5,457.5C 503.167,457.5 496.833,457.5 490.5,457.5C 490.5,445.167 490.5,432.833 490.5,420.5 Z"/></g>
<g><path style="opacity:0.88" fill="#4c1c94" d="M 267.5,425.5 C 269.785,428.335 271.118,431.668 271.5,435.5C 275.226,435.177 278.893,435.511 282.5,436.5C 279.644,438.857 276.978,441.357 274.5,444C 275.401,446.871 276.401,449.704 277.5,452.5C 276.998,453.521 276.332,453.688 275.5,453C 273,451.167 270.5,449.333 268,447.5C 265.234,450.317 262.068,452.151 258.5,453C 259.804,450.125 260.804,447.125 261.5,444C 259.127,441.291 256.46,438.791 253.5,436.5C 257.167,435.833 260.833,435.167 264.5,434.5C 265.705,431.55 266.705,428.55 267.5,425.5 Z"/></g>
<g><path style="opacity:0.873" fill="#4c1d93" d="M 530.5,425.5 C 532.785,428.335 534.118,431.668 534.5,435.5C 538.514,435.334 542.514,435.501 546.5,436C 543.271,438.442 540.271,441.108 537.5,444C 539.37,447.061 540.037,450.227 539.5,453.5C 536.754,451.377 533.921,449.377 531,447.5C 528.234,450.317 525.068,452.151 521.5,453C 523.378,449.709 524.212,446.209 524,442.5C 521.331,440.66 518.831,438.66 516.5,436.5C 520.122,435.675 523.789,435.175 527.5,435C 528.598,431.873 529.598,428.707 530.5,425.5 Z"/></g>
<g><path style="opacity:0.949" fill="#4c1c94" d="M 386.5,482.5 C 392.122,486.282 397.622,490.282 403,494.5C 408.333,490.5 413.667,486.5 419,482.5C 417.88,489.138 416.047,495.638 413.5,502C 418.833,506 424.167,510 429.5,514C 423.167,514.333 416.833,514.667 410.5,515C 407.613,520.989 405.113,527.156 403,533.5C 400.136,527.409 397.969,521.075 396.5,514.5C 389.825,514.666 383.158,514.5 376.5,514C 381.833,510 387.167,506 392.5,502C 389.794,495.714 387.794,489.214 386.5,482.5 Z"/></g>
<g><path style="opacity:0.885" fill="#4c1d94" d="M 329.5,488.5 C 330.251,487.427 331.251,487.26 332.5,488C 334.993,490.08 337.659,491.914 340.5,493.5C 343.672,491.748 346.672,489.748 349.5,487.5C 350.149,491.275 349.482,494.942 347.5,498.5C 350.661,501.491 353.995,504.325 357.5,507C 353.129,507.172 348.796,507.672 344.5,508.5C 343.36,511.923 342.026,515.256 340.5,518.5C 338.869,515.331 337.535,511.998 336.5,508.5C 332.167,507.833 327.833,507.167 323.5,506.5C 327.146,504.183 330.48,501.516 333.5,498.5C 332.336,494.987 331.002,491.654 329.5,488.5 Z"/></g>
<g><path style="opacity:0.885" fill="#4c1c94" d="M 448.5,487.5 C 452.104,489.261 455.604,491.261 459,493.5C 462.29,491.713 465.457,489.713 468.5,487.5C 468.501,491.377 467.501,495.21 465.5,499C 469.282,500.954 472.615,503.454 475.5,506.5C 471.541,507.327 467.541,507.827 463.5,508C 462.191,511.599 460.691,515.099 459,518.5C 457.309,515.099 455.809,511.599 454.5,508C 450.459,507.827 446.459,507.327 442.5,506.5C 445.616,503.768 448.949,501.268 452.5,499C 450.869,495.272 449.535,491.439 448.5,487.5 Z"/></g>
</svg>
