<svg xmlns="http://www.w3.org/2000/svg" xmlns:xlink="http://www.w3.org/1999/xlink" width="346" zoomAndPan="magnify" viewBox="0 0 259.5 259.500006" height="346" preserveAspectRatio="xMidYMid meet" version="1.0"><defs><g/><clipPath id="dca96fdc2f"><path d="M 0.75 0.75 L 258.253906 0.75 L 258.253906 258.253906 L 0.75 258.253906 Z M 0.75 0.75 " clip-rule="nonzero"/></clipPath><clipPath id="aac07c7ed5"><path d="M 129.5 258.253906 C 95.125 258.253906 62.757812 244.875 38.46875 220.53125 C 14.128906 196.242188 0.75 163.875 0.75 129.5 C 0.75 95.125 14.128906 62.757812 38.46875 38.46875 C 62.757812 14.128906 95.125 0.75 129.5 0.75 C 163.875 0.75 196.242188 14.128906 220.53125 38.46875 C 244.875 62.808594 258.253906 95.125 258.253906 129.5 C 258.253906 163.875 244.875 196.242188 220.53125 220.53125 C 196.242188 244.875 163.875 258.253906 129.5 258.253906 Z M 129.5 8.46875 C 97.183594 8.46875 66.769531 21.074219 43.921875 43.921875 C 21.074219 66.769531 8.46875 97.183594 8.46875 129.5 C 8.46875 161.816406 21.074219 192.230469 43.921875 215.078125 C 66.769531 237.925781 97.183594 250.535156 129.5 250.535156 C 161.816406 250.535156 192.230469 237.925781 215.078125 215.078125 C 237.925781 192.230469 250.535156 161.816406 250.535156 129.5 C 250.535156 97.183594 237.925781 66.769531 215.078125 43.921875 C 192.230469 21.074219 161.816406 8.46875 129.5 8.46875 Z M 129.5 8.46875 " clip-rule="nonzero"/></clipPath><clipPath id="81a62fe088"><path d="M 22.332031 87.5 L 236.417969 87.5 L 236.417969 178.824219 L 22.332031 178.824219 Z M 22.332031 87.5 " clip-rule="nonzero"/></clipPath><clipPath id="06cad9cb2f"><path d="M 155 108 L 201.191406 108 L 201.191406 159 L 155 159 Z M 155 108 " clip-rule="nonzero"/></clipPath><clipPath id="f00d6d9770"><path d="M 51.480469 95.050781 L 162 95.050781 L 162 159 L 51.480469 159 Z M 51.480469 95.050781 " clip-rule="nonzero"/></clipPath><clipPath id="fe080164f6"><path d="M 164 145 L 190 145 L 190 170.65625 L 164 170.65625 Z M 164 145 " clip-rule="nonzero"/></clipPath><clipPath id="1be6eda5cc"><path d="M 82 145 L 108 145 L 108 170.65625 L 82 170.65625 Z M 82 145 " clip-rule="nonzero"/></clipPath></defs><path fill="#ffffff" d="M 0 0 L 259 0 L 259 259 L 0 259 Z M 0 0 " fill-opacity="1" fill-rule="nonzero"/><g clip-path="url(#dca96fdc2f)"><g clip-path="url(#aac07c7ed5)"><path fill="#4c1d95" d="M 0.75 0.75 L 258.253906 0.75 L 258.253906 258.253906 L 0.75 258.253906 Z M 0.75 0.75 " fill-opacity="1" fill-rule="nonzero"/></g></g><g clip-path="url(#81a62fe088)"><path fill="#4c1d95" d="M 230.035156 158.074219 C 227.316406 167.324219 223.167969 176.101562 218.019531 184.183594 C 213.769531 190.761719 208.9375 196.945312 203.503906 202.566406 C 202.804688 203.335938 202.019531 204.023438 201.273438 204.75 C 200.515625 205.460938 199.777344 206.195312 199.003906 206.890625 L 196.648438 208.9375 L 195.472656 209.964844 L 194.25 210.933594 L 191.8125 212.882812 C 190.988281 213.511719 190.136719 214.109375 189.300781 214.730469 C 187.644531 215.996094 185.886719 217.105469 184.164062 218.277344 C 183.914062 218.445312 183.652344 218.621094 183.382812 218.804688 C 183.101562 218.972656 182.808594 219.148438 182.503906 219.332031 C 181.898438 219.695312 181.242188 220.085938 180.546875 220.5 C 179.171875 221.367188 177.542969 222.179688 175.785156 223.113281 C 175.34375 223.339844 174.902344 223.589844 174.433594 223.8125 C 173.964844 224.03125 173.484375 224.253906 172.996094 224.480469 C 172.019531 224.933594 171.007812 225.402344 169.960938 225.882812 C 167.820312 226.722656 165.585938 227.726562 163.152344 228.503906 C 153.539062 231.992188 141.539062 234.148438 129.5 234.195312 C 117.457031 234.148438 105.460938 231.992188 95.84375 228.503906 C 93.410156 227.726562 91.175781 226.722656 89.035156 225.882812 C 87.992188 225.402344 86.980469 224.933594 86.003906 224.480469 C 85.515625 224.253906 85.035156 224.03125 84.566406 223.816406 C 84.097656 223.589844 83.65625 223.339844 83.210938 223.113281 C 81.453125 222.179688 79.824219 221.367188 78.449219 220.5 C 77.753906 220.085938 77.101562 219.695312 76.492188 219.332031 C 76.1875 219.148438 75.898438 218.972656 75.617188 218.804688 C 75.34375 218.621094 75.082031 218.445312 74.835938 218.28125 C 68.292969 213.992188 62.148438 209.121094 56.5625 203.652344 C 50.671875 197.769531 45.519531 191.175781 40.976562 184.183594 C 35.828125 176.101562 31.679688 167.324219 28.960938 158.074219 C 26.132812 148.851562 24.824219 139.175781 24.742188 129.5 C 24.824219 119.820312 26.132812 110.144531 28.960938 100.925781 C 31.679688 91.671875 35.828125 82.898438 40.976562 74.8125 C 45.226562 68.234375 50.058594 62.050781 55.492188 56.429688 C 56.195312 55.660156 56.976562 54.972656 57.722656 54.25 C 58.480469 53.535156 59.21875 52.800781 59.992188 52.105469 L 62.347656 50.058594 L 63.523438 49.03125 L 64.746094 48.0625 L 67.183594 46.117188 C 68.011719 45.484375 68.863281 44.886719 69.699219 44.269531 C 71.351562 43.003906 73.109375 41.890625 74.832031 40.71875 C 75.082031 40.550781 75.34375 40.378906 75.613281 40.195312 C 75.894531 40.027344 76.1875 39.851562 76.492188 39.667969 C 77.097656 39.304688 77.753906 38.914062 78.449219 38.496094 C 79.824219 37.632812 81.453125 36.816406 83.210938 35.882812 C 83.652344 35.65625 84.097656 35.40625 84.566406 35.183594 C 85.035156 34.964844 85.511719 34.742188 86 34.515625 C 86.980469 34.0625 87.992188 33.597656 89.035156 33.113281 C 91.175781 32.277344 93.410156 31.273438 95.84375 30.492188 C 105.460938 27.003906 117.457031 24.851562 129.5 24.800781 C 141.539062 24.851562 153.539062 27.003906 163.152344 30.492188 C 165.585938 31.273438 167.820312 32.277344 169.960938 33.113281 C 171.007812 33.597656 172.015625 34.0625 172.996094 34.515625 C 173.484375 34.742188 173.964844 34.964844 174.433594 35.183594 C 174.898438 35.40625 175.34375 35.65625 175.785156 35.882812 C 177.542969 36.816406 179.171875 37.632812 180.546875 38.496094 C 181.242188 38.914062 181.898438 39.304688 182.503906 39.667969 C 182.808594 39.847656 183.101562 40.023438 183.382812 40.195312 C 183.652344 40.375 183.914062 40.550781 184.164062 40.71875 C 190.703125 45.003906 196.847656 49.875 202.433594 55.34375 C 208.328125 61.230469 213.476562 67.820312 218.019531 74.8125 C 223.167969 82.894531 227.316406 91.671875 230.035156 100.925781 C 232.863281 110.144531 234.171875 119.820312 234.257812 129.5 C 234.171875 139.175781 232.863281 148.851562 230.035156 158.074219 Z M 236.664062 129.425781 L 236.664062 129.417969 C 236.574219 119.539062 235.246094 109.648438 232.367188 100.222656 C 229.597656 90.765625 225.359375 81.789062 220.070312 73.546875 L 217.53125 69.726562 C 217.53125 69.726562 216.796875 68.699219 215.695312 67.15625 C 214.632812 65.585938 213.007812 63.648438 211.460938 61.65625 C 209.789062 59.761719 208.1875 57.808594 206.839844 56.476562 C 205.53125 55.109375 204.65625 54.199219 204.65625 54.199219 C 204.65625 54.199219 204.4375 53.976562 204.039062 53.59375 C 203.640625 53.210938 203.074219 52.660156 202.394531 52.003906 C 201.066406 50.652344 199.140625 49.023438 197.25 47.351562 C 196.28125 46.546875 195.28125 45.773438 194.359375 45.03125 C 193.898438 44.664062 193.449219 44.308594 193.027344 43.96875 C 192.585938 43.652344 192.171875 43.351562 191.789062 43.074219 C 190.253906 41.96875 189.230469 41.230469 189.230469 41.230469 C 189.230469 41.230469 189.007812 41.046875 188.644531 40.816406 C 188.289062 40.578125 187.8125 40.257812 187.339844 39.941406 C 186.386719 39.300781 185.433594 38.664062 185.433594 38.664062 C 185.179688 38.492188 184.914062 38.3125 184.636719 38.125 C 184.347656 37.953125 184.050781 37.773438 183.738281 37.585938 C 183.117188 37.210938 182.449219 36.808594 181.738281 36.382812 C 180.332031 35.496094 178.667969 34.65625 176.871094 33.699219 C 176.417969 33.464844 175.964844 33.210938 175.484375 32.980469 C 175.003906 32.757812 174.515625 32.527344 174.015625 32.296875 C 173.015625 31.832031 171.980469 31.355469 170.910156 30.859375 C 168.722656 29.996094 166.4375 28.972656 163.945312 28.167969 C 154.105469 24.59375 141.820312 22.378906 129.5 22.332031 C 117.179688 22.378906 104.894531 24.59375 95.050781 28.167969 C 92.5625 28.972656 90.277344 30 88.085938 30.859375 C 87.015625 31.355469 85.980469 31.832031 84.980469 32.296875 C 84.480469 32.53125 83.992188 32.757812 83.511719 32.980469 C 83.03125 33.210938 82.578125 33.464844 82.125 33.699219 C 80.328125 34.65625 78.664062 35.496094 77.257812 36.382812 C 76.546875 36.808594 75.878906 37.210938 75.257812 37.585938 C 74.945312 37.773438 74.648438 37.953125 74.363281 38.125 C 74.082031 38.316406 73.816406 38.492188 73.5625 38.664062 C 73.5625 38.664062 72.613281 39.300781 71.660156 39.941406 C 71.183594 40.257812 70.707031 40.578125 70.351562 40.816406 C 69.992188 41.046875 69.769531 41.230469 69.769531 41.230469 C 69.769531 41.230469 68.746094 41.96875 67.210938 43.074219 C 66.824219 43.351562 66.410156 43.652344 65.972656 43.96875 C 65.546875 44.308594 65.097656 44.664062 64.636719 45.03125 C 63.714844 45.773438 62.714844 46.546875 61.746094 47.351562 C 59.855469 49.023438 57.929688 50.652344 56.601562 52.003906 C 55.921875 52.660156 55.355469 53.210938 54.957031 53.59375 C 54.558594 53.976562 54.339844 54.199219 54.339844 54.199219 C 54.339844 54.199219 53.464844 55.109375 52.15625 56.476562 C 50.808594 57.808594 49.207031 59.761719 47.539062 61.65625 C 45.988281 63.648438 44.363281 65.585938 43.304688 67.15625 C 42.203125 68.699219 41.464844 69.726562 41.464844 69.726562 L 38.925781 73.546875 C 33.640625 81.789062 29.398438 90.765625 26.628906 100.222656 C 23.75 109.652344 22.421875 119.539062 22.335938 129.417969 L 22.332031 129.425781 L 22.332031 129.570312 L 22.335938 129.578125 C 22.421875 139.460938 23.75 149.347656 26.628906 158.773438 C 29.398438 168.230469 33.640625 177.207031 38.925781 185.453125 L 41.46875 189.269531 C 41.46875 189.269531 42.203125 190.300781 43.304688 191.839844 C 44.363281 193.414062 45.988281 195.351562 47.539062 197.34375 C 49.207031 199.234375 50.808594 201.1875 52.15625 202.519531 C 53.464844 203.886719 54.339844 204.796875 54.339844 204.796875 C 54.339844 204.796875 54.558594 205.023438 54.957031 205.40625 C 55.355469 205.789062 55.921875 206.335938 56.601562 206.992188 C 57.929688 208.347656 59.855469 209.976562 61.746094 211.648438 C 62.714844 212.453125 63.714844 213.222656 64.636719 213.964844 C 65.097656 214.335938 65.546875 214.691406 65.972656 215.027344 C 66.410156 215.34375 66.824219 215.644531 67.210938 215.921875 C 68.746094 217.03125 69.769531 217.765625 69.769531 217.765625 C 69.769531 217.765625 69.992188 217.949219 70.351562 218.179688 C 70.707031 218.421875 71.183594 218.738281 71.660156 219.058594 C 72.613281 219.695312 73.5625 220.332031 73.5625 220.332031 C 73.816406 220.503906 74.085938 220.683594 74.363281 220.871094 C 74.648438 221.046875 74.945312 221.226562 75.257812 221.414062 C 75.878906 221.785156 76.546875 222.1875 77.257812 222.617188 C 78.664062 223.5 80.328125 224.339844 82.128906 225.296875 C 82.578125 225.53125 83.035156 225.785156 83.511719 226.015625 C 83.992188 226.238281 84.484375 226.46875 84.980469 226.699219 C 85.980469 227.164062 87.015625 227.644531 88.085938 228.140625 C 90.277344 229 92.5625 230.027344 95.054688 230.828125 C 104.894531 234.402344 117.179688 236.617188 129.5 236.664062 C 141.820312 236.617188 154.105469 234.402344 163.945312 230.828125 C 166.4375 230.027344 168.722656 229 170.914062 228.136719 C 171.980469 227.644531 173.015625 227.164062 174.015625 226.699219 C 174.515625 226.46875 175.007812 226.238281 175.488281 226.015625 C 175.964844 225.785156 176.417969 225.53125 176.871094 225.296875 C 178.667969 224.339844 180.332031 223.5 181.738281 222.617188 C 182.449219 222.1875 183.117188 221.785156 183.742188 221.414062 C 184.050781 221.226562 184.347656 221.042969 184.636719 220.871094 C 184.914062 220.683594 185.179688 220.503906 185.433594 220.332031 C 185.433594 220.332031 186.386719 219.695312 187.339844 219.058594 C 187.8125 218.738281 188.289062 218.421875 188.644531 218.179688 C 189.007812 217.949219 189.230469 217.765625 189.230469 217.765625 C 189.230469 217.765625 190.253906 217.03125 191.789062 215.921875 C 192.171875 215.644531 192.585938 215.34375 193.027344 215.027344 C 193.449219 214.691406 193.898438 214.335938 194.359375 213.964844 C 195.28125 213.222656 196.28125 212.453125 197.25 211.648438 C 199.140625 209.976562 201.066406 208.347656 202.394531 206.992188 C 203.074219 206.335938 203.640625 205.789062 204.039062 205.40625 C 204.4375 205.023438 204.65625 204.796875 204.65625 204.796875 C 204.65625 204.796875 205.53125 203.886719 206.839844 202.519531 C 208.1875 201.1875 209.789062 199.234375 211.460938 197.34375 C 213.007812 195.351562 214.632812 193.410156 215.695312 191.839844 C 216.796875 190.296875 217.53125 189.269531 217.53125 189.269531 L 220.070312 185.453125 C 225.359375 177.207031 229.597656 168.230469 232.367188 158.773438 C 235.246094 149.347656 236.574219 139.457031 236.664062 129.578125 L 236.664062 129.425781 " fill-opacity="1" fill-rule="nonzero"/></g><g clip-path="url(#06cad9cb2f)"><path fill="#4c1d95" d="M 166.210938 113.878906 L 181.910156 113.878906 L 193.433594 130.433594 L 164.332031 130.433594 Z M 161.09375 108.730469 L 155.484375 158.164062 L 162.359375 158.164062 C 162.359375 158.160156 162.359375 158.160156 162.359375 158.15625 C 162.792969 154.335938 164.726562 150.671875 167.734375 147.96875 C 170.742188 145.269531 174.578125 143.75 178.398438 143.75 C 182.222656 143.75 185.714844 145.269531 188.109375 147.96875 C 190.503906 150.671875 191.605469 154.335938 191.171875 158.15625 C 191.171875 158.160156 191.171875 158.160156 191.171875 158.164062 L 198.042969 158.164062 L 201.191406 130.433594 L 186.082031 108.730469 L 161.09375 108.730469 " fill-opacity="1" fill-rule="nonzero"/></g><g clip-path="url(#f00d6d9770)"><path fill="#4c1d95" d="M 75.507812 95.195312 L 74.65625 102.730469 L 88.265625 102.730469 C 89.71875 102.730469 90.75 103.898438 90.585938 105.34375 C 90.421875 106.796875 89.121094 107.960938 87.671875 107.960938 L 63.148438 107.960938 C 61.695312 107.960938 60.398438 109.128906 60.234375 110.582031 C 60.070312 112.027344 61.101562 113.195312 62.550781 113.195312 L 105.054688 113.195312 C 106.503906 113.195312 107.539062 114.363281 107.375 115.8125 C 107.210938 117.265625 105.910156 118.429688 104.460938 118.429688 L 70.816406 118.429688 C 69.363281 118.429688 68.066406 119.597656 67.902344 121.046875 C 67.734375 122.496094 68.769531 123.664062 70.21875 123.664062 L 89.066406 123.664062 C 90.511719 123.664062 91.546875 124.832031 91.382812 126.28125 C 91.21875 127.730469 89.921875 128.898438 88.46875 128.898438 L 54.558594 128.898438 C 53.109375 128.898438 51.808594 130.0625 51.644531 131.515625 C 51.480469 132.964844 52.515625 134.132812 53.964844 134.132812 L 71.09375 134.132812 L 68.367188 158.164062 L 81.039062 158.164062 C 81.039062 158.160156 81.039062 158.160156 81.039062 158.15625 C 81.472656 154.335938 83.40625 150.671875 86.414062 147.96875 C 89.421875 145.269531 93.257812 143.75 97.078125 143.75 C 100.898438 143.75 104.390625 145.269531 106.785156 147.96875 C 109.183594 150.671875 110.285156 154.335938 109.851562 158.15625 C 109.851562 158.160156 109.851562 158.160156 109.851562 158.164062 L 154.164062 158.164062 L 161.308594 95.195312 L 75.507812 95.195312 " fill-opacity="1" fill-rule="nonzero"/></g><g clip-path="url(#fe080164f6)"><path fill="#4c1d95" d="M 177.457031 152.074219 C 179.070312 152.074219 180.542969 152.714844 181.554688 153.855469 C 182.570312 154.996094 183.03125 156.542969 182.851562 158.15625 C 182.667969 159.769531 181.851562 161.320312 180.582031 162.460938 C 179.308594 163.601562 177.6875 164.242188 176.078125 164.242188 C 172.714844 164.242188 170.300781 161.515625 170.679688 158.15625 C 170.863281 156.542969 171.679688 154.996094 172.953125 153.855469 C 174.222656 152.714844 175.84375 152.074219 177.457031 152.074219 Z M 178.171875 145.765625 C 174.882812 145.765625 171.585938 147.070312 168.996094 149.394531 C 166.410156 151.71875 164.746094 154.871094 164.371094 158.15625 C 164 161.445312 164.949219 164.597656 167.007812 166.921875 C 169.070312 169.242188 172.074219 170.550781 175.359375 170.550781 C 178.648438 170.550781 181.945312 169.242188 184.535156 166.921875 C 187.121094 164.597656 188.785156 161.445312 189.160156 158.15625 C 189.53125 154.871094 188.582031 151.71875 186.523438 149.394531 C 184.460938 147.070312 181.457031 145.765625 178.171875 145.765625 " fill-opacity="1" fill-rule="nonzero"/></g><g clip-path="url(#1be6eda5cc)"><path fill="#4c1d95" d="M 96.132812 152.074219 C 97.746094 152.074219 99.222656 152.714844 100.234375 153.855469 C 101.246094 154.996094 101.710938 156.542969 101.527344 158.15625 C 101.34375 159.769531 100.527344 161.320312 99.257812 162.460938 C 97.988281 163.601562 96.367188 164.242188 94.753906 164.242188 C 91.394531 164.242188 88.976562 161.515625 89.359375 158.15625 C 89.542969 156.542969 90.359375 154.996094 91.628906 153.855469 C 92.898438 152.714844 94.519531 152.074219 96.132812 152.074219 Z M 96.847656 145.765625 C 93.5625 145.765625 90.261719 147.070312 87.675781 149.394531 C 85.085938 151.71875 83.421875 154.871094 83.050781 158.15625 C 82.675781 161.445312 83.625 164.597656 85.6875 166.921875 C 87.746094 169.242188 90.75 170.550781 94.039062 170.550781 C 97.324219 170.550781 100.625 169.242188 103.214844 166.921875 C 105.800781 164.597656 107.464844 161.445312 107.835938 158.15625 C 108.210938 154.871094 107.261719 151.71875 105.199219 149.394531 C 103.140625 147.070312 100.136719 145.765625 96.847656 145.765625 " fill-opacity="1" fill-rule="nonzero"/></g><path fill="#4c1d95" d="M 97.59375 158.15625 C 97.53125 158.726562 97.242188 159.277344 96.792969 159.679688 C 96.34375 160.082031 95.769531 160.308594 95.199219 160.308594 C 94.628906 160.308594 94.109375 160.082031 93.75 159.679688 C 93.390625 159.277344 93.226562 158.726562 93.292969 158.15625 C 93.425781 156.96875 94.5 156.003906 95.6875 156.003906 C 96.878906 156.003906 97.730469 156.96875 97.59375 158.15625 " fill-opacity="1" fill-rule="nonzero"/><path fill="#4c1d95" d="M 178.917969 158.15625 C 178.851562 158.726562 178.566406 159.277344 178.113281 159.679688 C 177.664062 160.082031 177.09375 160.308594 176.523438 160.308594 C 175.949219 160.308594 175.429688 160.082031 175.070312 159.679688 C 174.714844 159.277344 174.546875 158.726562 174.613281 158.15625 C 174.75 156.96875 175.820312 156.003906 177.007812 156.003906 C 178.199219 156.003906 179.054688 156.96875 178.917969 158.15625 " fill-opacity="1" fill-rule="nonzero"/><g fill="#4c1d95" fill-opacity="1"><g transform="translate(68.853893, 49.970314)"><g><path d="M 1.257812 -0.816406 L 1.582031 -1.105469 L 5.558594 -3.78125 L 5.78125 -3.980469 L 7.671875 -5.230469 L 7.867188 -5.609375 L 7.777344 -6.003906 L 7.609375 -6.320312 L 7.367188 -6.605469 L 7.203125 -6.945312 L 6.761719 -7.554688 L 6.40625 -7.808594 L 5.796875 -7.574219 L 3.839844 -6.257812 L 3.40625 -6.097656 L 3.234375 -6.34375 L 3.207031 -6.753906 L 3.269531 -8.25 L 3.320312 -8.671875 L 3.300781 -8.996094 L 3.332031 -10.878906 L 3.203125 -11.265625 L 3.078125 -12.042969 L 2.789062 -12.730469 L 2.589844 -13.023438 L 1.832031 -13.867188 L 0.53125 -14.539062 L 0.171875 -14.636719 L -0.210938 -14.691406 L -1.378906 -14.640625 L -1.734375 -14.601562 L -2.246094 -14.386719 L -3.3125 -13.792969 L -4.023438 -13.238281 L -4.503906 -12.683594 L -4.890625 -12.054688 L -5.042969 -11.679688 L -5.265625 -10.574219 L -5.234375 -10.234375 L -5.007812 -9.074219 L -4.8125 -8.753906 L -4.660156 -8.402344 L -4.316406 -8.230469 L -3.921875 -8.25 L -2.398438 -9.269531 L -2.199219 -9.609375 L -2.203125 -10.015625 L -2.273438 -10.351562 L -2.164062 -10.722656 L -2.007812 -10.988281 L -1.582031 -11.328125 L -1.144531 -11.582031 L -0.808594 -11.558594 L -0.445312 -11.425781 L -0.175781 -11.132812 L 0 -10.84375 L 0.132812 -10.480469 L 0.242188 -9.921875 L 0.261719 -9.367188 L 0.171875 -8.964844 L 0.25 -7.792969 L 0.203125 -6.265625 L 0.246094 -5.90625 L 0.191406 -4.757812 L 0.25 -4.34375 L 0.195312 -3.992188 L 0.261719 -3.628906 L 0.214844 -3.234375 L 0.230469 -2.878906 L 0.277344 -2.480469 L 0.203125 -2.089844 L 0.191406 -1.3125 L 0.292969 -0.835938 L 0.585938 -0.535156 Z M 1.257812 -0.816406 "/></g></g></g><g fill="#4c1d95" fill-opacity="1"><g transform="translate(80.374415, 42.425179)"><g><path d="M -2.03125 -5.398438 L -1.71875 -5.160156 L -1.316406 -5.113281 L -0.976562 -5.3125 L -0.609375 -5.460938 L -0.328125 -5.6875 L 0.363281 -5.984375 L 0.621094 -6.179688 L 1.75 -6.765625 L 2.109375 -6.886719 L 3.082031 -7.410156 L 3.496094 -7.835938 L 3.511719 -8.285156 L 2.785156 -9.617188 L 2.476562 -9.921875 L 2.050781 -9.933594 L 0.378906 -9.046875 L 0.03125 -8.953125 L -1.882812 -7.921875 L -2.230469 -7.78125 L -2.53125 -7.585938 L -2.777344 -7.207031 L -2.761719 -6.8125 Z M -2.03125 -5.398438 "/></g></g></g><g fill="#4c1d95" fill-opacity="1"><g transform="translate(89.913044, 37.593228)"><g><path d="M 4.507812 -1.40625 L 5.007812 -1.570312 L 5.882812 -1.957031 L 6.832031 -2.683594 L 7.484375 -3.566406 L 7.972656 -5.003906 L 7.988281 -5.386719 L 8.035156 -5.746094 L 8.054688 -6.128906 L 8.011719 -6.515625 L 7.933594 -6.886719 L 7.539062 -7.957031 L 7.007812 -8.898438 L 6.195312 -9.695312 L 5.488281 -9.992188 L 4.808594 -10.160156 L 4.398438 -10.1875 L 4.128906 -10.371094 L 3.976562 -10.730469 L 4.023438 -11.148438 L 4.105469 -11.515625 L 4.164062 -12.277344 L 4.292969 -13.003906 L 4.332031 -13.4375 L 4.574219 -14.566406 L 4.570312 -15.0625 L 4.339844 -15.417969 L 3.875 -15.382812 L 3 -15.101562 L 2.503906 -14.878906 L 2.105469 -14.769531 L 1.75 -14.597656 L -1.726562 -13.3125 L -2.292969 -13.164062 L -2.648438 -12.992188 L -3.144531 -12.609375 L -3.15625 -12.207031 L -2.8125 -11.117188 L -2.507812 -10.449219 L -2.21875 -10.15625 L -1.800781 -10.113281 L 0.710938 -11.039062 L 1 -11.007812 L 1.183594 -10.675781 L 1.195312 -10.320312 L 1.039062 -9.605469 L 0.9375 -7.773438 L 0.871094 -7.308594 L 1.128906 -6.984375 L 1.503906 -7.003906 L 2.886719 -7.414062 L 3.242188 -7.425781 L 3.910156 -7.292969 L 4.226562 -7.089844 L 4.441406 -6.773438 L 4.683594 -6.28125 L 4.824219 -5.734375 L 4.789062 -5.34375 L 4.632812 -4.90625 L 4.398438 -4.621094 L 3.324219 -4.183594 L 2.660156 -4.355469 L 1.988281 -4.828125 L 1.53125 -4.816406 L -0.21875 -4.210938 L -0.433594 -3.929688 L -0.449219 -3.484375 L -0.246094 -3.203125 L -0.0585938 -2.851562 L 0.410156 -2.289062 L 1.058594 -1.828125 L 1.40625 -1.699219 L 1.714844 -1.511719 L 2.046875 -1.375 L 2.589844 -1.257812 L 3.539062 -1.226562 L 3.796875 -1.285156 L 4.152344 -1.296875 Z M 4.507812 -1.40625 "/></g></g></g><g fill="#4c1d95" fill-opacity="1"><g transform="translate(103.022747, 33.09705)"><g/></g></g><g fill="#4c1d95" fill-opacity="1"><g transform="translate(110.723557, 30.92677)"><g><path d="M 4.523438 -0.863281 L 4.855469 -0.558594 L 5.289062 -0.355469 L 5.996094 -0.445312 L 6.390625 -0.636719 L 6.648438 -1.054688 L 6.785156 -1.390625 L 6.855469 -1.808594 L 7.007812 -2.164062 L 7.070312 -2.488281 L 7.199219 -2.898438 L 7.261719 -3.207031 L 7.703125 -4.640625 L 7.777344 -5.042969 L 8.042969 -5.785156 L 8.210938 -6.535156 L 8.402344 -6.5 L 8.621094 -6.199219 L 8.773438 -5.820312 L 9.152344 -5.21875 L 10.5 -2.453125 L 10.839844 -1.867188 L 10.984375 -1.523438 L 11.378906 -1.167969 L 11.828125 -0.988281 L 12.183594 -1.042969 L 12.492188 -1.128906 L 12.925781 -1.324219 L 13.171875 -1.6875 L 13.246094 -2.050781 L 13.382812 -2.402344 L 14.179688 -5.753906 L 14.3125 -6.089844 L 14.769531 -7.734375 L 14.867188 -8.269531 L 15.003906 -8.621094 L 15.046875 -8.945312 L 15.921875 -12.230469 L 15.976562 -12.652344 L 16.128906 -13.003906 L 16.371094 -14.175781 L 16.214844 -14.613281 L 15.832031 -14.667969 L 15.453125 -14.6875 L 14.804688 -14.585938 L 14.054688 -14.546875 L 13.667969 -14.472656 L 13.308594 -14.492188 L 12.9375 -14.265625 L 12.660156 -13.84375 L 12.601562 -13.480469 L 12.464844 -13.148438 L 11.765625 -9.765625 L 11.726562 -9.386719 L 11.5625 -8.582031 L 11.511719 -7.785156 L 11.433594 -7.421875 L 11.246094 -7.421875 L 10.769531 -8.445312 L 10.636719 -8.808594 L 9.628906 -10.835938 L 9.371094 -11.523438 L 9.1875 -11.863281 L 8.890625 -12.585938 L 8.707031 -12.886719 L 8.527344 -13.207031 L 8.230469 -13.554688 L 7.816406 -13.738281 L 7.40625 -13.699219 L 7.050781 -13.476562 L 6.773438 -13.070312 L 6.339844 -11.164062 L 6.128906 -10.46875 L 5.671875 -8.238281 L 5.511719 -7.941406 L 5.476562 -7.542969 L 5.269531 -6.808594 L 5.121094 -6.773438 L 5.003906 -7.214844 L 3.40625 -11.15625 L 3.226562 -11.457031 L 2.929688 -12.164062 L 2.820312 -12.527344 L 2.632812 -12.886719 L 2.265625 -13.152344 L 1.898438 -13.28125 L 0.40625 -13.152344 L 0.0625 -13.195312 L -0.269531 -13.105469 L -0.65625 -13.046875 L -1.039062 -12.898438 L -1.070312 -12.460938 L -0.925781 -11.96875 L 0.0664062 -9.921875 L 0.265625 -9.621094 L 1.238281 -7.609375 L 1.390625 -7.210938 L 2.050781 -5.867188 L 2.246094 -5.585938 L 4.175781 -1.507812 L 4.378906 -1.167969 Z M 4.523438 -0.863281 "/></g></g></g><g fill="#4c1d95" fill-opacity="1"><g transform="translate(131.246455, 29.427581)"><g><path d="M 6.492188 0.523438 L 9.167969 0.679688 L 9.570312 0.539062 L 9.804688 0.164062 L 9.941406 -1.722656 L 9.761719 -2.109375 L 9.382812 -2.308594 L 8.949219 -2.300781 L 8.601562 -2.382812 L 7.648438 -2.46875 L 7.027344 -2.441406 L 6.65625 -2.503906 L 6.246094 -2.515625 L 5.894531 -2.597656 L 5.480469 -2.589844 L 5.101562 -2.804688 L 4.976562 -3.152344 L 5.0625 -4.328125 L 5.257812 -4.707031 L 5.609375 -4.886719 L 6.167969 -4.867188 L 6.761719 -4.769531 L 7.476562 -4.753906 L 8.238281 -4.679688 L 8.617188 -4.691406 L 9.042969 -4.640625 L 9.429688 -4.761719 L 9.585938 -5.128906 L 9.761719 -6.804688 L 9.613281 -7.339844 L 9.203125 -7.613281 L 8.101562 -7.691406 L 7.707031 -7.683594 L 6.925781 -7.796875 L 5.839844 -7.835938 L 5.460938 -8.035156 L 5.351562 -8.625 L 5.394531 -9.203125 L 5.585938 -9.546875 L 6.007812 -9.664062 L 6.363281 -9.621094 L 6.722656 -9.667969 L 9.390625 -9.441406 L 9.746094 -9.433594 L 10.15625 -9.628906 L 10.367188 -9.953125 L 10.375 -10.324219 L 10.417969 -10.699219 L 10.464844 -11.820312 L 10.320312 -12.1875 L 9.957031 -12.363281 L 9.566406 -12.394531 L 9.234375 -12.492188 L 7.722656 -12.582031 L 7.308594 -12.574219 L 6.9375 -12.640625 L 6.617188 -12.644531 L 6.246094 -12.707031 L 4.714844 -12.78125 L 4.34375 -12.863281 L 3.984375 -12.8125 L 3.652344 -12.875 L 3.273438 -12.867188 L 2.902344 -12.910156 L 2.5 -12.789062 L 2.265625 -12.414062 L 2.25 -11.699219 L 2.140625 -10.9375 L 2.167969 -10.523438 L 1.996094 -8.695312 L 2.023438 -8.300781 L 1.960938 -7.949219 L 1.832031 -6.417969 L 1.863281 -6.078125 L 1.628906 -3.054688 L 1.566406 -2.703125 L 1.59375 -2.324219 L 1.445312 -1.039062 L 1.453125 -0.628906 L 1.566406 -0.113281 L 2.109375 0.171875 L 3.453125 0.285156 L 3.867188 0.277344 L 4.199219 0.320312 L 4.96875 0.320312 L 5.320312 0.421875 L 5.746094 0.472656 L 6.125 0.460938 Z M 6.492188 0.523438 "/></g></g></g><g fill="#4c1d95" fill-opacity="1"><g transform="translate(144.851608, 30.610865)"><g><path d="M 6.359375 1.410156 L 8.988281 1.929688 L 9.40625 1.84375 L 9.691406 1.503906 L 10.082031 -0.347656 L 9.960938 -0.753906 L 9.609375 -1.003906 L 9.179688 -1.054688 L 8.84375 -1.183594 L 7.914062 -1.402344 L 7.292969 -1.457031 L 6.9375 -1.570312 L 6.53125 -1.636719 L 6.191406 -1.765625 L 5.78125 -1.816406 L 5.4375 -2.078125 L 5.359375 -2.441406 L 5.605469 -3.59375 L 5.851562 -3.945312 L 6.222656 -4.074219 L 6.777344 -3.976562 L 7.351562 -3.796875 L 8.054688 -3.6875 L 8.800781 -3.507812 L 9.175781 -3.46875 L 9.59375 -3.359375 L 9.992188 -3.429688 L 10.199219 -3.765625 L 10.601562 -5.402344 L 10.527344 -5.957031 L 10.15625 -6.28125 L 9.078125 -6.511719 L 8.683594 -6.558594 L 7.925781 -6.777344 L 6.855469 -6.964844 L 6.507812 -7.210938 L 6.480469 -7.808594 L 6.601562 -8.378906 L 6.839844 -8.691406 L 7.273438 -8.75 L 7.617188 -8.660156 L 7.984375 -8.660156 L 10.59375 -8.066406 L 10.945312 -8.011719 L 11.375 -8.148438 L 11.628906 -8.4375 L 11.6875 -8.808594 L 11.785156 -9.171875 L 11.980469 -10.277344 L 11.890625 -10.660156 L 11.554688 -10.886719 L 11.171875 -10.96875 L 10.859375 -11.109375 L 9.371094 -11.40625 L 8.960938 -11.457031 L 8.601562 -11.570312 L 8.285156 -11.617188 L 7.925781 -11.734375 L 6.417969 -12.015625 L 6.0625 -12.148438 L 5.699219 -12.148438 L 5.378906 -12.253906 L 5.003906 -12.296875 L 4.640625 -12.390625 L 4.226562 -12.328125 L 3.941406 -11.984375 L 3.832031 -11.28125 L 3.617188 -10.542969 L 3.585938 -10.128906 L 3.167969 -8.339844 L 3.140625 -7.945312 L 3.03125 -7.605469 L 2.695312 -6.105469 L 2.679688 -5.765625 L 2.03125 -2.804688 L 1.921875 -2.464844 L 1.898438 -2.085938 L 1.574219 -0.832031 L 1.523438 -0.421875 L 1.566406 0.101562 L 2.066406 0.457031 L 3.378906 0.757812 L 3.789062 0.804688 L 4.117188 0.894531 L 4.878906 0.996094 L 5.210938 1.144531 L 5.628906 1.253906 L 6.003906 1.292969 Z M 6.359375 1.410156 "/></g></g></g><g fill="#4c1d95" fill-opacity="1"><g transform="translate(158.128794, 33.563523)"><g><path d="M 1.804688 0.734375 L 2.910156 1.085938 L 3.390625 1.304688 L 3.96875 1.460938 L 4.375 1.453125 L 4.710938 1.136719 L 5.199219 -0.277344 L 5.390625 -0.625 L 6.023438 -2.488281 L 6.328125 -2.714844 L 6.839844 -2.742188 L 7.300781 -2.53125 L 7.589844 -2.082031 L 7.660156 -1.738281 L 7.648438 -1.324219 L 7.929688 0.121094 L 7.9375 0.464844 L 8.003906 0.769531 L 8.097656 1.542969 L 8.207031 1.882812 L 8.261719 2.285156 L 8.351562 2.578125 L 8.558594 3.035156 L 8.898438 3.359375 L 10.675781 4.003906 L 11.003906 4.085938 L 11.347656 4.234375 L 11.75 4.285156 L 11.980469 3.933594 L 11.632812 1.542969 L 11.511719 1.179688 L 11.300781 0.0820312 L 11.199219 -0.238281 L 11.128906 -0.640625 L 11.101562 -0.992188 L 10.871094 -2.136719 L 10.949219 -2.566406 L 11.316406 -2.851562 L 12.027344 -3.105469 L 12.859375 -3.613281 L 13.292969 -3.972656 L 13.53125 -4.242188 L 14.210938 -5.148438 L 14.753906 -6.222656 L 14.847656 -6.589844 L 15.304688 -7.65625 L 15.28125 -8.066406 L 14.953125 -8.367188 L 14.445312 -8.617188 L 13.839844 -8.761719 L 13.339844 -9.027344 L 12.808594 -9.207031 L 12.363281 -9.132812 L 12.097656 -8.855469 L 11.953125 -8.46875 L 11.777344 -8.15625 L 11.664062 -7.796875 L 11.097656 -6.710938 L 10.894531 -6.484375 L 10.652344 -6.15625 L 10.039062 -5.746094 L 9.261719 -5.535156 L 8.890625 -5.515625 L 8.488281 -5.605469 L 8.097656 -5.632812 L 7.710938 -5.773438 L 7.492188 -6.097656 L 7.539062 -6.496094 L 7.683594 -6.824219 L 8.136719 -8.09375 L 8.21875 -8.421875 L 8.410156 -8.832031 L 8.597656 -9.378906 L 8.898438 -10.085938 L 8.777344 -10.453125 L 8.328125 -10.800781 L 7.484375 -11.214844 L 7.144531 -11.320312 L 6.804688 -11.488281 L 6.414062 -11.613281 L 5.976562 -11.515625 L 5.695312 -11.242188 L 5.546875 -10.957031 L 4.785156 -8.804688 L 4.601562 -8.472656 L 4.523438 -8.105469 L 3.683594 -5.960938 L 3.625 -5.640625 L 3.285156 -4.949219 L 3.195312 -4.542969 L 2.921875 -3.867188 L 2.839844 -3.535156 L 2.519531 -2.835938 L 2.285156 -2.105469 L 2.160156 -1.832031 L 2.058594 -1.449219 L 1.894531 -1.113281 L 1.59375 -0.203125 L 1.566406 0.40625 Z M 1.804688 0.734375 "/></g></g></g><g fill="#4c1d95" fill-opacity="1"><g transform="translate(172.846164, 39.331354)"><g><path d="M 4.3125 2.609375 L 5.582031 3.363281 L 5.925781 3.515625 L 6.300781 3.617188 L 6.652344 3.75 L 7.054688 3.804688 L 7.367188 3.9375 L 7.757812 3.960938 L 9.246094 3.914062 L 9.992188 3.691406 L 10.285156 3.554688 L 10.664062 3.296875 L 10.929688 3.054688 L 11.179688 2.832031 L 11.738281 2.070312 L 11.996094 1.53125 L 12.285156 0.445312 L 12.25 0.0859375 L 12.101562 -0.644531 L 11.953125 -1.070312 L 11.765625 -1.347656 L 11.570312 -1.691406 L 10.515625 -2.796875 L 10.21875 -3.027344 L 9.902344 -3.226562 L 9.59375 -3.484375 L 9.121094 -3.75 L 8.355469 -4.417969 L 7.917969 -5.046875 L 7.800781 -5.414062 L 8.007812 -5.941406 L 8.335938 -6.335938 L 8.652344 -6.4375 L 9 -6.480469 L 9.34375 -6.480469 L 9.671875 -6.382812 L 10.203125 -6.105469 L 10.691406 -5.746094 L 10.9375 -5.5 L 11.121094 -5.140625 L 11.273438 -4.757812 L 11.335938 -4.292969 L 11.574219 -3.878906 L 12.378906 -3.511719 L 12.800781 -3.234375 L 13.128906 -3.050781 L 13.402344 -2.851562 L 13.839844 -2.90625 L 14.128906 -3.113281 L 14.238281 -3.460938 L 14.378906 -3.789062 L 14.398438 -4.894531 L 14.3125 -5.585938 L 13.65625 -6.941406 L 12.914062 -7.761719 L 12.351562 -8.25 L 11.113281 -8.988281 L 10.699219 -9.089844 L 10.363281 -9.257812 L 10.039062 -9.375 L 9.308594 -9.527344 L 8.570312 -9.511719 L 7.484375 -9.410156 L 6.484375 -8.964844 L 5.6875 -8.230469 L 5.1875 -7.457031 L 4.921875 -6.941406 L 4.667969 -6.226562 L 4.609375 -5.507812 L 4.792969 -4.417969 L 5.566406 -3.191406 L 6.042969 -2.664062 L 8.441406 -0.933594 L 8.875 -0.328125 L 8.976562 -0.0117188 L 8.847656 0.453125 L 8.488281 0.785156 L 8.136719 0.914062 L 7.445312 0.847656 L 6.921875 0.59375 L 6.597656 0.480469 L 5.8125 -0.0703125 L 5.617188 -0.371094 L 5.441406 -0.707031 L 5.230469 -1.597656 L 4.976562 -1.910156 L 4.664062 -2.042969 L 4.382812 -2.265625 L 3.085938 -2.90625 L 2.71875 -2.9375 L 2.398438 -2.667969 L 2.261719 -2.316406 L 2.144531 -1.953125 L 2.078125 -1.601562 L 2.050781 -0.824219 L 2.160156 -0.484375 L 2.234375 -0.121094 L 2.605469 0.558594 L 2.695312 0.933594 L 2.925781 1.253906 L 3.195312 1.535156 L 3.707031 2.121094 Z M 4.3125 2.609375 "/></g></g></g><g fill="#4c1d95" fill-opacity="1"><g transform="translate(185.730156, 46.984088)"><g/></g></g><g fill="#4c1d95" fill-opacity="1"><g transform="translate(45.239053, 203.061856)"><g><path d="M 1.160156 0.53125 L 1.046875 0.863281 L 1.175781 1.234375 L 1.925781 2.089844 L 2.53125 2.628906 L 2.875 2.777344 L 3.359375 2.582031 L 3.703125 2.1875 L 3.949219 2 L 5.179688 0.800781 L 5.515625 0.679688 L 5.847656 0.816406 L 6.117188 1.050781 L 6.304688 1.34375 L 6.574219 1.53125 L 6.777344 1.789062 L 7.023438 2.023438 L 7.222656 2.28125 L 7.707031 2.742188 L 8.058594 2.875 L 8.535156 2.644531 L 9.570312 1.636719 L 9.691406 1.296875 L 9.550781 0.960938 L 9.023438 0.363281 L 8.382812 -0.214844 L 8.007812 -0.730469 L 7.75 -0.976562 L 7.617188 -1.300781 L 7.742188 -1.664062 L 8.070312 -1.980469 L 8.316406 -2.167969 L 8.820312 -2.695312 L 9.167969 -2.804688 L 9.535156 -2.726562 L 9.890625 -2.351562 L 10.195312 -1.988281 L 10.40625 -1.785156 L 10.621094 -1.539062 L 10.878906 -1.316406 L 11.707031 -0.402344 L 12.046875 -0.277344 L 12.394531 -0.386719 L 12.972656 -0.980469 L 13.441406 -1.382812 L 13.65625 -1.859375 L 13.597656 -2.183594 L 12.914062 -2.875 L 12.699219 -3.167969 L 12.242188 -3.601562 L 12.0625 -3.835938 L 11.703125 -4.167969 L 11.492188 -4.414062 L 11.121094 -4.753906 L 10.683594 -5.210938 L 10.503906 -5.445312 L 9.933594 -6.042969 L 9.675781 -6.269531 L 9.371094 -6.609375 L 8.996094 -6.746094 L 8.71875 -6.613281 L 8.203125 -6.1875 L 7.886719 -5.816406 L 6.523438 -4.609375 L 6.347656 -4.394531 L 6.113281 -4.148438 L 5.878906 -3.972656 L 5.632812 -3.691406 L 5.398438 -3.511719 L 5.164062 -3.308594 L 4.960938 -3.074219 L 4.667969 -2.839844 Z M 1.160156 0.53125 "/></g></g></g><g fill="#4c1d95" fill-opacity="1"><g transform="translate(53.528358, 211.613207)"><g><path d="M 7.363281 6.117188 L 7.871094 6.472656 L 8.089844 6.695312 L 8.488281 7.003906 L 8.890625 7.230469 L 9.175781 6.960938 L 9.324219 6.601562 L 9.519531 5.980469 L 9.71875 5.050781 L 9.925781 4.445312 L 10.046875 3.789062 L 10.511719 2.253906 L 10.539062 1.964844 L 10.613281 1.625 L 10.761719 1.285156 L 10.804688 1.003906 L 10.894531 0.742188 L 11.015625 0.0625 L 11.144531 -0.273438 L 11.753906 -2.695312 L 11.886719 -3.007812 L 11.933594 -3.34375 L 12.042969 -3.632812 L 12.167969 -4.265625 L 12.140625 -4.667969 L 11.832031 -5.132812 L 11.316406 -5.328125 L 10.917969 -5.300781 L 10.628906 -5.179688 L 10.335938 -5 L 10.078125 -4.917969 L 8.625 -4.179688 L 8.332031 -4.105469 L 8.0625 -3.90625 L 7.730469 -3.785156 L 7.46875 -3.621094 L 3.980469 -1.996094 L 3.679688 -1.78125 L 3.398438 -1.699219 L 3.105469 -1.519531 L 2.550781 -1.304688 L 1.949219 -0.960938 L 1.667969 -0.898438 L 1.417969 -0.722656 L 0.753906 -0.429688 L 0.472656 -0.242188 L 0.277344 0.125 L 0.464844 0.40625 L 0.972656 0.78125 L 1.203125 1.015625 L 1.925781 1.566406 L 2.285156 1.71875 L 2.710938 1.6875 L 3.277344 1.460938 L 3.710938 1.421875 L 4.085938 1.5 L 4.292969 1.734375 L 4.859375 2.117188 L 5.054688 2.339844 L 6.292969 3.339844 L 6.496094 3.550781 L 6.800781 3.742188 L 6.964844 4.105469 L 7.035156 4.503906 L 6.953125 4.832031 L 6.84375 5.121094 L 6.9375 5.515625 L 7.121094 5.878906 Z M 7.09375 0.65625 L 6.886719 0.402344 L 6.578125 0.1875 L 6.449219 -0.0664062 L 6.632812 -0.3125 L 8.335938 -1.179688 L 8.566406 -1.179688 L 8.660156 -0.933594 L 8.113281 0.929688 L 7.875 1.113281 L 7.605469 1.058594 Z M 7.09375 0.65625 "/></g></g></g><g fill="#4c1d95" fill-opacity="1"><g transform="translate(65.155419, 220.89522)"><g><path d="M 3.613281 2.457031 L 4.679688 3.167969 L 4.96875 3.316406 L 5.289062 3.417969 L 5.585938 3.550781 L 5.929688 3.617188 L 6.195312 3.746094 L 6.535156 3.785156 L 7.824219 3.8125 L 8.480469 3.652344 L 8.738281 3.546875 L 9.082031 3.339844 L 9.320312 3.148438 L 9.550781 2.964844 L 10.066406 2.332031 L 10.316406 1.875 L 10.613281 0.949219 L 10.601562 0.636719 L 10.503906 -0.00390625 L 10.394531 -0.378906 L 10.246094 -0.625 L 10.09375 -0.933594 L 9.234375 -1.9375 L 8.984375 -2.152344 L 8.71875 -2.339844 L 8.464844 -2.578125 L 8.066406 -2.828125 L 7.4375 -3.441406 L 7.085938 -4.007812 L 7 -4.328125 L 7.207031 -4.777344 L 7.507812 -5.101562 L 7.785156 -5.175781 L 8.085938 -5.199219 L 8.382812 -5.183594 L 8.664062 -5.082031 L 9.113281 -4.816406 L 9.515625 -4.484375 L 9.722656 -4.261719 L 9.863281 -3.941406 L 9.976562 -3.601562 L 10.007812 -3.195312 L 10.195312 -2.828125 L 10.875 -2.472656 L 11.230469 -2.210938 L 11.503906 -2.039062 L 11.734375 -1.855469 L 12.117188 -1.882812 L 12.371094 -2.046875 L 12.480469 -2.339844 L 12.621094 -2.621094 L 12.6875 -3.574219 L 12.644531 -4.179688 L 12.136719 -5.382812 L 11.535156 -6.128906 L 11.070312 -6.574219 L 10.03125 -7.269531 L 9.675781 -7.378906 L 9.394531 -7.539062 L 9.121094 -7.652344 L 8.496094 -7.820312 L 7.855469 -7.839844 L 6.910156 -7.804688 L 6.023438 -7.460938 L 5.300781 -6.863281 L 4.832031 -6.21875 L 4.578125 -5.785156 L 4.328125 -5.175781 L 4.242188 -4.554688 L 4.351562 -3.605469 L 4.964844 -2.507812 L 5.355469 -2.03125 L 7.351562 -0.421875 L 7.699219 0.125 L 7.773438 0.402344 L 7.636719 0.796875 L 7.3125 1.070312 L 7.003906 1.164062 L 6.40625 1.074219 L 5.964844 0.832031 L 5.691406 0.71875 L 5.035156 0.207031 L 4.878906 -0.0625 L 4.742188 -0.363281 L 4.601562 -1.140625 L 4.394531 -1.425781 L 4.132812 -1.554688 L 3.898438 -1.761719 L 2.804688 -2.375 L 2.488281 -2.417969 L 2.199219 -2.199219 L 2.066406 -1.902344 L 1.945312 -1.589844 L 1.875 -1.292969 L 1.8125 -0.621094 L 1.890625 -0.320312 L 1.941406 0 L 2.230469 0.601562 L 2.292969 0.929688 L 2.472656 1.21875 L 2.695312 1.472656 L 3.109375 2.003906 Z M 3.613281 2.457031 "/></g></g></g><g fill="#4c1d95" fill-opacity="1"><g transform="translate(76.576475, 227.86802)"><g><path d="M 3.800781 1.871094 L 4.792969 2.316406 L 5.285156 2.375 L 5.628906 2.039062 L 6.042969 1.296875 L 6.265625 0.722656 L 6.445312 0.429688 L 6.710938 -0.160156 L 6.867188 -0.410156 L 6.980469 -0.753906 L 8.144531 -3.089844 L 8.25 -3.417969 L 8.910156 -4.667969 L 9.238281 -5.050781 L 9.601562 -5.09375 L 10.183594 -4.847656 L 10.691406 -4.511719 L 11.019531 -4.40625 L 11.273438 -4.265625 L 11.601562 -4.304688 L 11.929688 -4.542969 L 12.617188 -5.921875 L 12.597656 -6.292969 L 12.410156 -6.617188 L 11.503906 -7.054688 L 11.242188 -7.21875 L 10.914062 -7.324219 L 10.648438 -7.488281 L 9.4375 -8 L 9.175781 -8.199219 L 8.902344 -8.347656 L 8.574219 -8.453125 L 8.269531 -8.636719 L 7.976562 -8.707031 L 7.136719 -9.167969 L 6.664062 -9.34375 L 5.667969 -9.894531 L 5.320312 -9.882812 L 4.980469 -9.632812 L 4.855469 -9.332031 L 4.472656 -8.617188 L 4.28125 -8.148438 L 4.289062 -7.824219 L 4.480469 -7.550781 L 4.785156 -7.4375 L 6.160156 -6.738281 L 6.367188 -6.457031 L 6.386719 -6.085938 L 6.132812 -5.632812 L 5.960938 -5.210938 L 5.792969 -4.898438 L 5.664062 -4.597656 L 5.4375 -4.203125 L 4.429688 -2.003906 L 4.257812 -1.726562 L 3.671875 -0.550781 L 3.554688 -0.230469 L 3.128906 0.613281 L 2.964844 0.875 L 3 1.289062 L 3.351562 1.640625 Z M 3.800781 1.871094 "/></g></g></g><g fill="#4c1d95" fill-opacity="1"><g transform="translate(87.51505, 232.983636)"><g><path d="M 5.304688 1.9375 L 7.5 2.6875 L 7.871094 2.664062 L 8.152344 2.402344 L 8.703125 0.859375 L 8.644531 0.492188 L 8.371094 0.238281 L 8.007812 0.144531 L 7.734375 -0.00390625 L 6.960938 -0.296875 L 6.433594 -0.414062 L 6.140625 -0.554688 L 5.796875 -0.660156 L 5.523438 -0.808594 L 5.175781 -0.898438 L 4.910156 -1.164062 L 4.886719 -1.484375 L 5.226562 -2.445312 L 5.480469 -2.71875 L 5.816406 -2.789062 L 6.28125 -2.640625 L 6.753906 -2.421875 L 7.34375 -2.246094 L 7.964844 -2.007812 L 8.28125 -1.929688 L 8.628906 -1.789062 L 8.976562 -1.800781 L 9.195312 -2.070312 L 9.730469 -3.429688 L 9.730469 -3.910156 L 9.449219 -4.234375 L 8.546875 -4.554688 L 8.214844 -4.640625 L 7.585938 -4.914062 L 6.691406 -5.199219 L 6.417969 -5.449219 L 6.464844 -5.96875 L 6.632812 -6.441406 L 6.875 -6.683594 L 7.253906 -6.6875 L 7.539062 -6.566406 L 7.851562 -6.527344 L 10.027344 -5.71875 L 10.324219 -5.628906 L 10.710938 -5.699219 L 10.960938 -5.917969 L 11.054688 -6.230469 L 11.175781 -6.53125 L 11.472656 -7.457031 L 11.4375 -7.796875 L 11.175781 -8.03125 L 10.855469 -8.144531 L 10.601562 -8.300781 L 9.359375 -8.726562 L 9.011719 -8.816406 L 8.714844 -8.957031 L 8.449219 -9.035156 L 8.15625 -9.171875 L 6.890625 -9.589844 L 6.601562 -9.742188 L 6.289062 -9.785156 L 6.023438 -9.914062 L 5.707031 -9.992188 L 5.40625 -10.117188 L 5.042969 -10.109375 L 4.761719 -9.847656 L 4.585938 -9.253906 L 4.316406 -8.644531 L 4.242188 -8.292969 L 3.679688 -6.804688 L 3.609375 -6.46875 L 3.476562 -6.1875 L 3.015625 -4.9375 L 2.960938 -4.648438 L 2.066406 -2.175781 L 1.933594 -1.894531 L 1.871094 -1.574219 L 1.449219 -0.535156 L 1.359375 -0.1875 L 1.335938 0.269531 L 1.722656 0.628906 L 2.816406 1.035156 L 3.164062 1.125 L 3.433594 1.238281 L 4.078125 1.417969 L 4.347656 1.582031 L 4.691406 1.722656 L 5.007812 1.800781 Z M 5.304688 1.9375 "/></g></g></g><g fill="#4c1d95" fill-opacity="1"><g transform="translate(99.201348, 237.010265)"><g><path d="M 1.335938 -0.378906 L 1.382812 0.148438 L 1.792969 0.457031 L 2.121094 0.480469 L 2.617188 0.644531 L 2.875 0.667969 L 3.351562 0.777344 L 3.894531 0.734375 L 4.140625 0.308594 L 4.261719 -0.230469 L 4.359375 -0.507812 L 4.386719 -0.851562 L 4.648438 -1.859375 L 4.863281 -2.140625 L 5.203125 -2.246094 L 6.09375 -1.914062 L 6.347656 -1.570312 L 6.464844 -1.210938 L 6.527344 -0.898438 L 6.753906 -0.347656 L 6.921875 0.289062 L 7.042969 0.566406 L 7.097656 0.910156 L 7.210938 1.21875 L 7.496094 1.582031 L 8 1.847656 L 9.253906 2.117188 L 9.546875 2.214844 L 10.074219 2.320312 L 10.40625 2.246094 L 10.582031 1.917969 L 10.484375 1.53125 L 10.347656 1.265625 L 10.289062 0.9375 L 9.933594 0.0078125 L 9.855469 -0.308594 L 9.535156 -1.25 L 9.398438 -1.527344 L 9.46875 -1.910156 L 9.691406 -2.226562 L 9.964844 -2.414062 L 10.230469 -2.554688 L 11.101562 -3.523438 L 11.515625 -4.394531 L 11.707031 -5.398438 L 11.734375 -5.726562 L 11.652344 -6.691406 L 11.585938 -6.988281 L 11.46875 -7.28125 L 10.785156 -8.4375 L 10.296875 -8.863281 L 9.742188 -9.207031 L 8.886719 -9.617188 L 8.386719 -9.746094 L 7.917969 -9.820312 L 6.96875 -10.035156 L 6.667969 -10.167969 L 6.351562 -10.242188 L 6.046875 -10.226562 L 5.730469 -10.296875 L 5.429688 -10.433594 L 5.085938 -10.527344 L 4.132812 -10.660156 L 3.8125 -10.566406 L 3.523438 -10.167969 L 2.714844 -6.539062 L 2.675781 -6.214844 L 2.484375 -5.59375 L 2.421875 -5.242188 L 2.347656 -4.925781 L 2.3125 -4.617188 L 2.210938 -4.324219 L 1.90625 -3.046875 L 1.867188 -2.722656 Z M 5.777344 -4.78125 L 5.5 -5.027344 L 5.429688 -5.308594 L 5.644531 -6.257812 L 5.675781 -6.535156 L 5.859375 -7.191406 L 6.070312 -7.460938 L 6.429688 -7.511719 L 6.742188 -7.421875 L 7.390625 -7.34375 L 7.8125 -7.148438 L 8.214844 -7.023438 L 8.5 -6.875 L 8.785156 -6.292969 L 8.820312 -6.019531 L 8.789062 -5.59375 L 8.636719 -5.128906 L 8.421875 -4.847656 L 8.195312 -4.648438 L 7.988281 -4.542969 L 7.671875 -4.484375 L 7.1875 -4.476562 L 6.886719 -4.527344 L 6.132812 -4.734375 Z M 5.777344 -4.78125 "/></g></g></g><g fill="#4c1d95" fill-opacity="1"><g transform="translate(113.105591, 239.852331)"><g/></g></g><g fill="#4c1d95" fill-opacity="1"><g transform="translate(120.363876, 240.783463)"><g><path d="M 4.359375 0.300781 L 5.636719 0.378906 L 5.964844 0.359375 L 6.289062 0.289062 L 6.617188 0.253906 L 6.945312 0.132812 L 7.238281 0.113281 L 7.550781 -0.0234375 L 8.679688 -0.648438 L 9.167969 -1.117188 L 9.335938 -1.339844 L 9.527344 -1.691406 L 9.636719 -1.980469 L 9.742188 -2.25 L 9.867188 -3.058594 L 9.855469 -3.578125 L 9.644531 -4.527344 L 9.476562 -4.792969 L 9.070312 -5.296875 L 8.789062 -5.566406 L 8.535156 -5.703125 L 8.25 -5.894531 L 6.996094 -6.328125 L 6.675781 -6.386719 L 6.351562 -6.414062 L 6.011719 -6.492188 L 5.542969 -6.507812 L 4.6875 -6.71875 L 4.097656 -7.03125 L 3.863281 -7.265625 L 3.816406 -7.757812 L 3.914062 -8.191406 L 4.117188 -8.394531 L 4.363281 -8.566406 L 4.628906 -8.703125 L 4.925781 -8.757812 L 5.445312 -8.753906 L 5.960938 -8.671875 L 6.25 -8.578125 L 6.535156 -8.375 L 6.800781 -8.136719 L 7.035156 -7.804688 L 7.382812 -7.582031 L 8.148438 -7.617188 L 8.585938 -7.570312 L 8.910156 -7.558594 L 9.199219 -7.515625 L 9.515625 -7.730469 L 9.65625 -8.003906 L 9.601562 -8.3125 L 9.578125 -8.621094 L 9.15625 -9.480469 L 8.816406 -9.980469 L 7.773438 -10.765625 L 6.875 -11.105469 L 6.246094 -11.257812 L 5 -11.335938 L 4.640625 -11.25 L 4.3125 -11.246094 L 4.019531 -11.207031 L 3.398438 -11.035156 L 2.835938 -10.730469 L 2.035156 -10.222656 L 1.441406 -9.480469 L 1.117188 -8.597656 L 1.042969 -7.804688 L 1.039062 -7.304688 L 1.128906 -6.648438 L 1.371094 -6.074219 L 1.941406 -5.304688 L 3.023438 -4.667969 L 3.601562 -4.449219 L 6.136719 -4.070312 L 6.710938 -3.773438 L 6.914062 -3.570312 L 6.996094 -3.160156 L 6.855469 -2.761719 L 6.632812 -2.523438 L 6.074219 -2.300781 L 5.570312 -2.285156 L 5.277344 -2.246094 L 4.453125 -2.359375 L 4.183594 -2.515625 L 3.914062 -2.703125 L 3.398438 -3.304688 L 3.078125 -3.445312 L 2.785156 -3.425781 L 2.480469 -3.484375 L 1.226562 -3.464844 L 0.929688 -3.34375 L 0.789062 -3.007812 L 0.828125 -2.683594 L 0.878906 -2.355469 L 0.964844 -2.058594 L 1.253906 -1.449219 L 1.472656 -1.230469 L 1.675781 -0.980469 L 2.230469 -0.601562 L 2.449219 -0.351562 L 2.75 -0.195312 L 3.070312 -0.0859375 L 3.695312 0.164062 Z M 4.359375 0.300781 "/></g></g></g><g fill="#4c1d95" fill-opacity="1"><g transform="translate(133.81719, 241.11457)"><g><path d="M 1.136719 -0.558594 L 1.359375 -0.269531 L 1.683594 -0.121094 L 2.003906 -0.167969 L 2.65625 -0.191406 L 2.992188 -0.257812 L 3.671875 -0.300781 L 3.992188 -0.527344 L 4.09375 -0.847656 L 4.097656 -1.15625 L 4.035156 -1.507812 L 3.773438 -4.371094 L 3.886719 -4.722656 L 4.207031 -4.964844 L 6.113281 -5.152344 L 6.457031 -5.136719 L 6.75 -5.160156 L 7.070312 -5.011719 L 7.261719 -4.71875 L 7.601562 -1.148438 L 7.804688 -0.90625 L 8.292969 -0.738281 L 9.132812 -0.816406 L 9.453125 -0.878906 L 10.121094 -0.890625 L 10.40625 -1.128906 L 10.578125 -1.421875 L 10.410156 -2.886719 L 10.410156 -3.410156 L 10.339844 -3.664062 L 9.617188 -11.777344 L 9.441406 -12.105469 L 9.105469 -12.203125 L 7.246094 -12.050781 L 6.785156 -11.894531 L 6.660156 -11.492188 L 6.699219 -10.878906 L 6.757812 -10.605469 L 6.785156 -9.941406 L 6.863281 -9.636719 L 6.960938 -8.375 L 6.8125 -8.035156 L 6.503906 -7.828125 L 6.195312 -7.847656 L 5.570312 -7.726562 L 5.226562 -7.726562 L 4.9375 -7.667969 L 3.984375 -7.597656 L 3.664062 -7.714844 L 3.472656 -8.007812 L 3.425781 -8.363281 L 3.394531 -8.703125 L 3.351562 -8.992188 L 3.253906 -10.253906 L 3.253906 -10.613281 L 3.167969 -11.207031 L 2.992188 -11.5 L 2.636719 -11.648438 L 2.285156 -11.582031 L 0.679688 -11.46875 L 0.339844 -11.273438 L 0.207031 -10.9375 L 0.207031 -10.578125 L 0.355469 -9.320312 L 0.351562 -8.996094 L 0.476562 -8.339844 L 0.5 -7.722656 L 0.554688 -7.335938 L 0.550781 -7.007812 L 0.992188 -2.175781 L 1.066406 -1.890625 Z M 1.136719 -0.558594 "/></g></g></g><g fill="#4c1d95" fill-opacity="1"><g transform="translate(148.624187, 239.465722)"><g><path d="M 5.335938 -1.035156 L 5.964844 -1.199219 L 6.21875 -1.417969 L 6.316406 -1.75 L 5.992188 -3.324219 L 5.738281 -3.585938 L 5.351562 -3.691406 L 5.019531 -3.621094 L 4.613281 -3.667969 L 4.34375 -3.996094 L 4.332031 -4.308594 L 3.953125 -6.050781 L 3.914062 -6.410156 L 3.613281 -7.539062 L 3.347656 -9.160156 L 3.382812 -9.546875 L 3.703125 -9.761719 L 4.011719 -9.875 L 4.316406 -10.070312 L 4.425781 -10.359375 L 4.113281 -11.933594 L 3.863281 -12.199219 L 3.539062 -12.3125 L 1.617188 -11.917969 L 1.324219 -11.890625 L 1.019531 -11.761719 L -0.285156 -11.492188 L -0.597656 -11.476562 L -0.960938 -11.402344 L -1.246094 -11.175781 L -1.328125 -10.761719 L -1.035156 -9.597656 L -1.003906 -9.289062 L -0.765625 -9.003906 L -0.378906 -8.902344 L -0.0625 -8.96875 L 0.28125 -8.839844 L 0.511719 -8.441406 L 1.566406 -3.570312 L 1.488281 -3.058594 L 0.507812 -2.523438 L 0.390625 -2.203125 L 0.644531 -0.730469 L 0.890625 -0.332031 L 1.238281 -0.257812 L 1.542969 -0.316406 L 1.835938 -0.414062 L 2.3125 -0.445312 L 2.800781 -0.5625 L 3.113281 -0.660156 L 3.761719 -0.726562 L 4.222656 -0.886719 L 5.003906 -1.050781 Z M 5.335938 -1.035156 "/></g></g></g><g fill="#4c1d95" fill-opacity="1"><g transform="translate(158.762943, 237.299672)"><g><path d="M 2.085938 -0.617188 L 2.832031 -0.890625 L 3.117188 -0.964844 L 3.460938 -1.109375 L 3.746094 -1.339844 L 3.78125 -1.707031 L 3.667969 -2.011719 L 3.574219 -2.355469 L 3.359375 -2.917969 L 3.296875 -3.222656 L 3.164062 -3.574219 L 3.214844 -3.894531 L 3.515625 -4.179688 L 3.847656 -4.320312 L 4.191406 -4.363281 L 5.742188 -4.996094 L 7.023438 -6.054688 L 7.195312 -6.3125 L 7.332031 -6.632812 L 7.46875 -6.894531 L 7.59375 -7.191406 L 7.761719 -7.792969 L 7.828125 -8.476562 L 7.765625 -8.832031 L 7.78125 -9.109375 L 7.402344 -10.386719 L 7.257812 -10.628906 L 7.101562 -10.953125 L 6.734375 -11.46875 L 6.273438 -11.898438 L 5.738281 -12.289062 L 4.847656 -12.667969 L 4.230469 -12.84375 L 3.550781 -12.832031 L 3.253906 -12.855469 L 2.945312 -12.757812 L 2.601562 -12.765625 L 2.132812 -12.632812 L 1.644531 -12.457031 L 1.316406 -12.304688 L 0.371094 -12.015625 L 0.046875 -11.960938 L -0.890625 -11.59375 L -1.238281 -11.5 L -1.53125 -11.457031 L -1.835938 -11.292969 L -2.105469 -11.015625 L -2.164062 -10.726562 L -1.546875 -8.859375 L -1.410156 -8.222656 L -1.285156 -7.9375 L -0.015625 -3.929688 L 0.109375 -3.648438 L 1.007812 -0.785156 L 1.273438 -0.546875 L 1.800781 -0.542969 Z M 2.707031 -6.648438 L 2.339844 -6.734375 L 2.117188 -6.949219 L 1.667969 -8.1875 L 1.59375 -8.523438 L 1.390625 -9.15625 L 1.449219 -9.5 L 1.726562 -9.757812 L 3.347656 -10.226562 L 3.703125 -10.1875 L 4.003906 -10.097656 L 4.269531 -9.960938 L 4.523438 -9.699219 L 4.65625 -9.4375 L 4.828125 -9.015625 L 4.929688 -8.585938 L 4.910156 -8.273438 L 4.851562 -7.984375 L 4.730469 -7.671875 L 4.542969 -7.40625 L 4.320312 -7.25 L 3.859375 -7.035156 L 3.066406 -6.796875 Z M 2.707031 -6.648438 "/></g></g></g><g fill="#4c1d95" fill-opacity="1"><g transform="translate(171.802964, 232.916605)"><g><path d="M 1.996094 -0.867188 L 2.703125 -1.230469 L 2.972656 -1.339844 L 3.300781 -1.523438 L 3.554688 -1.785156 L 3.542969 -2.15625 L 3.394531 -2.445312 L 3.257812 -2.777344 L 2.976562 -3.308594 L 2.875 -3.601562 L 2.707031 -3.933594 L 2.714844 -4.257812 L 2.980469 -4.578125 L 3.289062 -4.757812 L 3.625 -4.839844 L 5.089844 -5.660156 L 6.230469 -6.867188 L 6.371094 -7.144531 L 6.464844 -7.476562 L 6.570312 -7.757812 L 6.660156 -8.066406 L 6.75 -8.679688 L 6.734375 -9.371094 L 6.628906 -9.714844 L 6.609375 -9.992188 L 6.078125 -11.214844 L 5.90625 -11.4375 L 5.710938 -11.742188 L 5.28125 -12.203125 L 4.769531 -12.574219 L 4.191406 -12.898438 L 3.265625 -13.164062 L 2.628906 -13.265625 L 1.957031 -13.167969 L 1.660156 -13.15625 L 1.363281 -13.019531 L 1.023438 -12.988281 L 0.574219 -12.796875 L 0.109375 -12.566406 L -0.195312 -12.371094 L -1.101562 -11.972656 L -1.414062 -11.878906 L -2.300781 -11.398438 L -2.632812 -11.261719 L -2.917969 -11.183594 L -3.199219 -10.984375 L -3.433594 -10.675781 L -3.457031 -10.378906 L -2.617188 -8.605469 L -2.40625 -7.988281 L -2.246094 -7.722656 L -0.496094 -3.898438 L -0.339844 -3.632812 L 0.90625 -0.902344 L 1.199219 -0.695312 L 1.722656 -0.761719 Z M 1.875 -6.925781 L 1.5 -6.96875 L 1.25 -7.15625 L 0.65625 -8.332031 L 0.542969 -8.652344 L 0.261719 -9.257812 L 0.28125 -9.605469 L 0.519531 -9.894531 L 2.074219 -10.558594 L 2.429688 -10.5625 L 2.738281 -10.511719 L 3.019531 -10.40625 L 3.304688 -10.179688 L 3.46875 -9.9375 L 3.691406 -9.535156 L 3.84375 -9.125 L 3.863281 -8.8125 L 3.839844 -8.515625 L 3.757812 -8.191406 L 3.605469 -7.90625 L 3.402344 -7.722656 L 2.972656 -7.453125 L 2.214844 -7.121094 Z M 1.875 -6.925781 "/></g></g></g><g fill="#4c1d95" fill-opacity="1"><g transform="translate(184.104469, 226.955942)"><g><path d="M 4.695312 -2.738281 L 5.238281 -3.101562 L 5.402344 -3.390625 L 5.382812 -3.738281 L 4.558594 -5.117188 L 4.234375 -5.28125 L 3.835938 -5.25 L 3.542969 -5.074219 L 3.140625 -4.984375 L 2.78125 -5.207031 L 2.664062 -5.496094 L 1.734375 -7.019531 L 1.578125 -7.339844 L 0.921875 -8.308594 L 0.136719 -9.75 L 0.0390625 -10.128906 L 0.273438 -10.4375 L 0.523438 -10.644531 L 0.75 -10.933594 L 0.757812 -11.238281 L -0.0546875 -12.625 L -0.382812 -12.789062 L -0.722656 -12.792969 L -2.40625 -11.78125 L -2.675781 -11.660156 L -2.921875 -11.4375 L -4.0625 -10.753906 L -4.351562 -10.636719 L -4.671875 -10.445312 L -4.867188 -10.136719 L -4.804688 -9.722656 L -4.144531 -8.714844 L -4.015625 -8.433594 L -3.695312 -8.25 L -3.296875 -8.277344 L -3.019531 -8.445312 L -2.65625 -8.4375 L -2.304688 -8.136719 L 0.300781 -3.886719 L 0.398438 -3.378906 L -0.355469 -2.550781 L -0.359375 -2.207031 L 0.367188 -0.902344 L 0.730469 -0.609375 L 1.085938 -0.652344 L 1.351562 -0.808594 L 1.597656 -0.996094 L 2.035156 -1.183594 L 2.457031 -1.453125 L 2.71875 -1.648438 L 3.308594 -1.925781 L 3.695312 -2.234375 L 4.375 -2.640625 Z M 4.695312 -2.738281 "/></g></g></g><g fill="#4c1d95" fill-opacity="1"><g transform="translate(193.014975, 221.573678)"><g><path d="M 7.429688 -6.046875 L 7.933594 -6.105469 L 8.324219 -6.34375 L 8.539062 -6.652344 L 8.472656 -7.007812 L 4.890625 -11.726562 L 4.683594 -11.917969 L 3.707031 -13.191406 L 3.507812 -13.53125 L 2.097656 -15.292969 L 1.769531 -15.449219 L 1.40625 -15.394531 L -0.183594 -14.15625 L -0.316406 -13.828125 L -0.253906 -13.449219 L -0.0585938 -13.167969 L 0.140625 -12.992188 L 0.515625 -12.421875 L 0.757812 -12.15625 L 2.5 -9.832031 L 2.589844 -9.554688 L 2.328125 -9.496094 L 0.714844 -9.710938 L 0.136719 -9.714844 L -4.367188 -10.332031 L -4.679688 -10.339844 L -5.09375 -10.265625 L -5.546875 -10.0625 L -5.746094 -9.703125 L -5.675781 -9.371094 L -2.683594 -5.46875 L -2.527344 -5.242188 L -2.097656 -4.734375 L -1.964844 -4.484375 L -0.320312 -2.390625 L -0.160156 -2.128906 L 0.695312 -1.066406 L 1 -0.910156 L 1.339844 -1.027344 L 1.886719 -1.40625 L 2.152344 -1.648438 L 2.683594 -1.996094 L 2.941406 -2.214844 L 3.101562 -2.542969 L 2.925781 -3.039062 L 0.4375 -6.308594 L 0.265625 -6.585938 L 0.1875 -6.875 L 0.40625 -6.9375 L 0.742188 -6.847656 L 2.328125 -6.671875 L 2.640625 -6.609375 L 2.96875 -6.632812 L 6.488281 -6.183594 L 7.109375 -6.066406 Z M 7.429688 -6.046875 "/></g></g></g><g fill="#4c1d95" fill-opacity="1"><g transform="translate(205.104963, 212.035915)"><g><path d="M 4.070312 -3.894531 L 5.210938 -5.050781 L 5.855469 -6.121094 L 6.25 -7.351562 L 6.328125 -7.984375 L 6.3125 -8.339844 L 6.34375 -8.648438 L 6.320312 -8.949219 L 6.238281 -9.257812 L 6.132812 -9.566406 L 6.105469 -9.863281 L 5.652344 -10.769531 L 5.304688 -11.292969 L 5.121094 -11.5 L 4.957031 -11.75 L 4.726562 -11.976562 L 4.53125 -12.21875 L 4.066406 -12.628906 L 3.757812 -12.707031 L 3.425781 -12.601562 L 3.175781 -12.371094 L 2.902344 -12.160156 L 1.398438 -10.566406 L 0.667969 -9.917969 L 0.269531 -9.445312 L 0.15625 -9.101562 L 0.273438 -8.78125 L 1.371094 -7.699219 L 1.65625 -7.621094 L 1.992188 -7.703125 L 2.34375 -8.015625 L 2.867188 -8.636719 L 3.105469 -8.8125 L 3.359375 -8.90625 L 3.589844 -8.746094 L 3.671875 -8.4375 L 3.699219 -8.070312 L 3.664062 -7.78125 L 3.4375 -7.253906 L 3.097656 -6.699219 L 2.8125 -6.386719 L 2.164062 -5.867188 L 1.292969 -5.496094 L 0.628906 -5.464844 L 0.339844 -5.5 L -0.292969 -5.691406 L -0.71875 -5.929688 L -1.144531 -6.234375 L -1.824219 -6.882812 L -2.195312 -7.410156 L -2.429688 -8.003906 L -2.621094 -8.898438 L -2.507812 -9.589844 L -2.417969 -9.886719 L -2.226562 -10.128906 L -2.125 -10.417969 L -1.453125 -11.144531 L -0.914062 -11.457031 L -0.605469 -11.585938 L -0.238281 -11.65625 L 0.046875 -11.648438 L 0.390625 -11.605469 L 0.828125 -11.652344 L 1.183594 -11.851562 L 1.546875 -12.199219 L 1.84375 -12.589844 L 2.425781 -13.109375 L 2.582031 -13.523438 L 2.453125 -13.789062 L 1.820312 -14.09375 L 1.511719 -14.195312 L 0.382812 -14.394531 L -0.0742188 -14.34375 L -0.429688 -14.332031 L -0.738281 -14.292969 L -1.964844 -13.90625 L -2.25 -13.710938 L -2.9375 -13.316406 L -4.042969 -12.285156 L -4.257812 -12.042969 L -4.382812 -11.777344 L -4.589844 -11.546875 L -5.140625 -10.339844 L -5.375 -9.316406 L -5.425781 -8.363281 L -5.390625 -8.03125 L -5.386719 -7.6875 L -5.339844 -7.386719 L -4.894531 -6.105469 L -3.957031 -4.769531 L -3.597656 -4.394531 L -2.734375 -3.652344 L -1.328125 -2.90625 L -0.730469 -2.726562 L -0.0742188 -2.605469 L 0.867188 -2.589844 L 1.507812 -2.707031 L 2.757812 -3.046875 L 3.007812 -3.1875 L 3.773438 -3.730469 Z M 4.070312 -3.894531 "/></g></g></g></svg>